<?xml version="1.0" encoding="UTF-8"?>
<!DOCTYPE svg PUBLIC "-//W3C//DTD SVG 1.1//EN" "http://www.w3.org/Graphics/SVG/1.1/DTD/svg11.dtd">
<svg xmlns="http://www.w3.org/2000/svg" version="1.1" width="512px" height="512px" style="shape-rendering:geometricPrecision; text-rendering:geometricPrecision; image-rendering:optimizeQuality; fill-rule:evenodd; clip-rule:evenodd" xmlns:xlink="http://www.w3.org/1999/xlink">
<g><path style="opacity:0.95" fill="#000000" d="M 110.5,-0.5 C 116.5,-0.5 122.5,-0.5 128.5,-0.5C 142.031,6.67719 147.364,18.0105 144.5,33.5C 218.5,33.5 292.5,33.5 366.5,33.5C 363.636,18.0105 368.969,6.67719 382.5,-0.5C 388.5,-0.5 394.5,-0.5 400.5,-0.5C 407.393,1.89027 412.226,6.55693 415,13.5C 416.377,20.0764 416.877,26.7431 416.5,33.5C 429.504,33.3334 442.504,33.5001 455.5,34C 472.112,38.2782 482.278,48.7782 486,65.5C 486.667,203.5 486.667,341.5 486,479.5C 482.952,496.042 473.452,506.708 457.5,511.5C 322.833,511.5 188.167,511.5 53.5,511.5C 37.5481,506.708 28.0481,496.042 25,479.5C 24.3333,341.5 24.3333,203.5 25,65.5C 28.7216,48.7782 38.8882,38.2782 55.5,34C 68.4957,33.5001 81.4957,33.3334 94.5,33.5C 94.1226,26.7431 94.6226,20.0764 96,13.5C 98.774,6.55693 103.607,1.89027 110.5,-0.5 Z M 117.5,14.5 C 121.254,14.5568 124.421,15.8901 127,18.5C 128.388,23.3722 128.888,28.3722 128.5,33.5C 122.5,33.5 116.5,33.5 110.5,33.5C 110.334,28.8215 110.501,24.1548 111,19.5C 112.563,16.9771 114.73,15.3104 117.5,14.5 Z M 390.5,14.5 C 393.579,14.8042 396.413,15.8042 399,17.5C 400.397,22.7081 400.897,28.0414 400.5,33.5C 394.5,33.5 388.5,33.5 382.5,33.5C 382.334,29.1539 382.501,24.8206 383,20.5C 384.542,17.1077 387.042,15.1077 390.5,14.5 Z M 57.5,49.5 C 69.8333,49.5 82.1667,49.5 94.5,49.5C 94.1009,59.8983 94.6009,70.2317 96,80.5C 102.369,92.2817 111.702,95.9484 124,91.5C 126.906,82.3701 123.406,77.5367 113.5,77C 112.299,76.0975 111.465,74.9308 111,73.5C 110.5,65.5069 110.334,57.5069 110.5,49.5C 195.833,49.5 281.167,49.5 366.5,49.5C 366.334,57.84 366.5,66.1733 367,74.5C 370.657,89.0668 379.824,95.2334 394.5,93C 398.122,88.9981 398.456,84.6647 395.5,80C 389.974,79.6579 385.807,77.1579 383,72.5C 382.5,64.8406 382.334,57.1739 382.5,49.5C 406.169,49.3334 429.836,49.5 453.5,50C 462.096,52.9294 467.596,58.7627 470,67.5C 470.5,91.8311 470.667,116.164 470.5,140.5C 363.166,140.333 255.833,140.5 148.5,141C 143.311,143.913 142.144,148.08 145,153.5C 145.903,154.701 147.069,155.535 148.5,156C 255.833,156.5 363.166,156.667 470.5,156.5C 470.667,222.168 470.5,287.834 470,353.5C 468.564,359.87 464.731,364.037 458.5,366C 438.833,366.333 419.167,366.667 399.5,367C 384.98,369.188 375.813,377.355 372,391.5C 371.667,411.167 371.333,430.833 371,450.5C 369.374,459.793 363.874,464.959 354.5,466C 257.167,466.667 159.833,466.667 62.5,466C 50.7006,465.2 43.5339,459.033 41,447.5C 40.5,350.501 40.3333,253.501 40.5,156.5C 68.502,156.667 96.502,156.5 124.5,156C 129.299,152.929 130.465,148.762 128,143.5C 127.097,142.299 125.931,141.465 124.5,141C 96.502,140.5 68.502,140.333 40.5,140.5C 40.3334,116.164 40.5,91.8311 41,67.5C 43.5923,58.7446 49.0923,52.7446 57.5,49.5 Z M 85.5,201.5 C 96.8333,201.5 108.167,201.5 119.5,201.5C 119.5,212.833 119.5,224.167 119.5,235.5C 108.167,235.5 96.8333,235.5 85.5,235.5C 85.5,224.167 85.5,212.833 85.5,201.5 Z M 187.5,201.5 C 198.833,201.5 210.167,201.5 221.5,201.5C 221.5,212.833 221.5,224.167 221.5,235.5C 210.167,235.5 198.833,235.5 187.5,235.5C 187.5,224.167 187.5,212.833 187.5,201.5 Z M 289.5,201.5 C 300.833,201.5 312.167,201.5 323.5,201.5C 323.5,212.833 323.5,224.167 323.5,235.5C 312.167,235.5 300.833,235.5 289.5,235.5C 289.5,224.167 289.5,212.833 289.5,201.5 Z M 391.5,201.5 C 402.833,201.5 414.167,201.5 425.5,201.5C 425.5,212.833 425.5,224.167 425.5,235.5C 414.167,235.5 402.833,235.5 391.5,235.5C 391.5,224.167 391.5,212.833 391.5,201.5 Z M 85.5,294.5 C 96.8333,294.5 108.167,294.5 119.5,294.5C 119.5,305.833 119.5,317.167 119.5,328.5C 108.167,328.5 96.8333,328.5 85.5,328.5C 85.5,317.167 85.5,305.833 85.5,294.5 Z M 187.5,294.5 C 198.833,294.5 210.167,294.5 221.5,294.5C 221.5,305.833 221.5,317.167 221.5,328.5C 210.167,328.5 198.833,328.5 187.5,328.5C 187.5,317.167 187.5,305.833 187.5,294.5 Z M 289.5,294.5 C 300.833,294.5 312.167,294.5 323.5,294.5C 323.5,305.833 323.5,317.167 323.5,328.5C 312.167,328.5 300.833,328.5 289.5,328.5C 289.5,317.167 289.5,305.833 289.5,294.5 Z M 391.5,296.5 C 402.833,296.5 414.167,296.5 425.5,296.5C 425.5,307.833 425.5,319.167 425.5,330.5C 414.167,330.5 402.833,330.5 391.5,330.5C 391.5,319.167 391.5,307.833 391.5,296.5 Z M 400.5,382.5 C 419.836,382.333 439.17,382.5 458.5,383C 434.667,406.833 410.833,430.667 387,454.5C 387.285,434.54 387.618,414.54 388,394.5C 390.168,388.347 394.335,384.347 400.5,382.5 Z M 85.5,386.5 C 96.8333,386.5 108.167,386.5 119.5,386.5C 119.5,398.167 119.5,409.833 119.5,421.5C 108.167,421.5 96.8333,421.5 85.5,421.5C 85.5,409.833 85.5,398.167 85.5,386.5 Z M 187.5,386.5 C 198.833,386.5 210.167,386.5 221.5,386.5C 221.5,398.167 221.5,409.833 221.5,421.5C 210.167,421.5 198.833,421.5 187.5,421.5C 187.5,409.833 187.5,398.167 187.5,386.5 Z M 469.5,394.5 C 470.664,421.997 470.83,449.664 470,477.5C 468.353,486.479 463.186,492.313 454.5,495C 323.863,496.656 193.196,496.99 62.5,496C 49.7107,494.874 42.544,488.041 41,475.5C 44.858,478.012 49.0247,479.845 53.5,481C 160.833,481.667 268.167,481.667 375.5,481C 380.882,479.476 385.882,477.142 390.5,474C 417.035,447.632 443.368,421.132 469.5,394.5 Z"/></g>
<g><path style="opacity:0.934" fill="#000000" d="M 80.5,185.5 C 95.1705,185.333 109.837,185.5 124.5,186C 130,187.5 133.5,191 135,196.5C 135.667,211.167 135.667,225.833 135,240.5C 133.5,246 130,249.5 124.5,251C 109.833,251.667 95.1667,251.667 80.5,251C 74.9022,249.069 71.4022,245.236 70,239.5C 69.3333,225.5 69.3333,211.5 70,197.5C 71.2797,191.396 74.7797,187.396 80.5,185.5 Z M 85.5,201.5 C 85.5,212.833 85.5,224.167 85.5,235.5C 96.8333,235.5 108.167,235.5 119.5,235.5C 119.5,224.167 119.5,212.833 119.5,201.5C 108.167,201.5 96.8333,201.5 85.5,201.5 Z"/></g>
<g><path style="opacity:0.932" fill="#000000" d="M 182.5,185.5 C 197.17,185.333 211.837,185.5 226.5,186C 232,187.5 235.5,191 237,196.5C 237.667,211.167 237.667,225.833 237,240.5C 235.5,246 232,249.5 226.5,251C 211.833,251.667 197.167,251.667 182.5,251C 177,249.5 173.5,246 172,240.5C 171.333,225.833 171.333,211.167 172,196.5C 173.684,190.984 177.184,187.318 182.5,185.5 Z M 187.5,201.5 C 187.5,212.833 187.5,224.167 187.5,235.5C 198.833,235.5 210.167,235.5 221.5,235.5C 221.5,224.167 221.5,212.833 221.5,201.5C 210.167,201.5 198.833,201.5 187.5,201.5 Z"/></g>
<g><path style="opacity:0.932" fill="#000000" d="M 284.5,185.5 C 299.17,185.333 313.837,185.5 328.5,186C 334,187.5 337.5,191 339,196.5C 339.667,211.167 339.667,225.833 339,240.5C 337.5,246 334,249.5 328.5,251C 313.833,251.667 299.167,251.667 284.5,251C 279,249.5 275.5,246 274,240.5C 273.333,225.833 273.333,211.167 274,196.5C 275.684,190.984 279.184,187.318 284.5,185.5 Z M 289.5,201.5 C 289.5,212.833 289.5,224.167 289.5,235.5C 300.833,235.5 312.167,235.5 323.5,235.5C 323.5,224.167 323.5,212.833 323.5,201.5C 312.167,201.5 300.833,201.5 289.5,201.5 Z"/></g>
<g><path style="opacity:0.934" fill="#000000" d="M 386.5,185.5 C 401.17,185.333 415.837,185.5 430.5,186C 436.41,187.579 439.91,191.412 441,197.5C 441.667,211.5 441.667,225.5 441,239.5C 439.598,245.236 436.098,249.069 430.5,251C 415.833,251.667 401.167,251.667 386.5,251C 381,249.5 377.5,246 376,240.5C 375.333,225.833 375.333,211.167 376,196.5C 377.684,190.984 381.184,187.318 386.5,185.5 Z M 391.5,201.5 C 391.5,212.833 391.5,224.167 391.5,235.5C 402.833,235.5 414.167,235.5 425.5,235.5C 425.5,224.167 425.5,212.833 425.5,201.5C 414.167,201.5 402.833,201.5 391.5,201.5 Z"/></g>
<g><path style="opacity:0.934" fill="#000000" d="M 79.5,278.5 C 94.837,278.333 110.17,278.5 125.5,279C 130,280.833 133.167,284 135,288.5C 135.667,303.5 135.667,318.5 135,333.5C 133.217,339.157 129.384,342.657 123.5,344C 109.833,344.667 96.1667,344.667 82.5,344C 76.1089,342.61 71.9422,338.776 70,332.5C 69.3333,318.167 69.3333,303.833 70,289.5C 71.5992,284.406 74.7658,280.739 79.5,278.5 Z M 85.5,294.5 C 85.5,305.833 85.5,317.167 85.5,328.5C 96.8333,328.5 108.167,328.5 119.5,328.5C 119.5,317.167 119.5,305.833 119.5,294.5C 108.167,294.5 96.8333,294.5 85.5,294.5 Z"/></g>
<g><path style="opacity:0.934" fill="#000000" d="M 181.5,278.5 C 196.837,278.333 212.17,278.5 227.5,279C 232.428,280.927 235.594,284.427 237,289.5C 237.667,304.167 237.667,318.833 237,333.5C 235.069,339.098 231.236,342.598 225.5,344C 211.5,344.667 197.5,344.667 183.5,344C 177.333,342.5 173.5,338.667 172,332.5C 171.333,318.167 171.333,303.833 172,289.5C 173.599,284.406 176.766,280.739 181.5,278.5 Z M 187.5,294.5 C 187.5,305.833 187.5,317.167 187.5,328.5C 198.833,328.5 210.167,328.5 221.5,328.5C 221.5,317.167 221.5,305.833 221.5,294.5C 210.167,294.5 198.833,294.5 187.5,294.5 Z"/></g>
<g><path style="opacity:0.934" fill="#000000" d="M 283.5,278.5 C 298.837,278.333 314.17,278.5 329.5,279C 334.428,280.927 337.594,284.427 339,289.5C 339.667,303.833 339.667,318.167 339,332.5C 337.5,338.667 333.667,342.5 327.5,344C 313.5,344.667 299.5,344.667 285.5,344C 279.764,342.598 275.931,339.098 274,333.5C 273.333,318.833 273.333,304.167 274,289.5C 275.599,284.406 278.766,280.739 283.5,278.5 Z M 289.5,294.5 C 289.5,305.833 289.5,317.167 289.5,328.5C 300.833,328.5 312.167,328.5 323.5,328.5C 323.5,317.167 323.5,305.833 323.5,294.5C 312.167,294.5 300.833,294.5 289.5,294.5 Z"/></g>
<g><path style="opacity:0.934" fill="#000000" d="M 386.5,280.5 C 401.17,280.333 415.837,280.5 430.5,281C 436.41,282.579 439.91,286.412 441,292.5C 441.667,306.5 441.667,320.5 441,334.5C 439.598,340.236 436.098,344.069 430.5,346C 415.833,346.667 401.167,346.667 386.5,346C 381,344.5 377.5,341 376,335.5C 375.333,320.833 375.333,306.167 376,291.5C 377.684,285.984 381.184,282.318 386.5,280.5 Z M 391.5,296.5 C 391.5,307.833 391.5,319.167 391.5,330.5C 402.833,330.5 414.167,330.5 425.5,330.5C 425.5,319.167 425.5,307.833 425.5,296.5C 414.167,296.5 402.833,296.5 391.5,296.5 Z"/></g>
<g><path style="opacity:0.958" fill="#000000" d="M 79.5,371.5 C 95.1702,371.333 110.837,371.5 126.5,372C 130.388,374.222 133.221,377.388 135,381.5C 135.667,396.5 135.667,411.5 135,426.5C 133.6,429.902 131.433,432.736 128.5,435C 112.259,436.636 95.9253,436.97 79.5,436C 74.5723,434.073 71.4056,430.573 70,425.5C 69.3333,411.167 69.3333,396.833 70,382.5C 71.5992,377.406 74.7658,373.739 79.5,371.5 Z M 85.5,386.5 C 85.5,398.167 85.5,409.833 85.5,421.5C 96.8333,421.5 108.167,421.5 119.5,421.5C 119.5,409.833 119.5,398.167 119.5,386.5C 108.167,386.5 96.8333,386.5 85.5,386.5 Z"/></g>
<g><path style="opacity:0.96" fill="#000000" d="M 181.5,371.5 C 196.837,371.333 212.17,371.5 227.5,372C 232.4,373.902 235.567,377.402 237,382.5C 237.667,396.833 237.667,411.167 237,425.5C 236.036,429.468 233.869,432.635 230.5,435C 214.234,436.622 197.9,436.955 181.5,436C 176.572,434.073 173.406,430.573 172,425.5C 171.333,411.167 171.333,396.833 172,382.5C 173.599,377.406 176.766,373.739 181.5,371.5 Z M 187.5,386.5 C 187.5,398.167 187.5,409.833 187.5,421.5C 198.833,421.5 210.167,421.5 221.5,421.5C 221.5,409.833 221.5,398.167 221.5,386.5C 210.167,386.5 198.833,386.5 187.5,386.5 Z"/></g>
<g><path style="opacity:0.953" fill="#000000" d="M 283.5,371.5 C 298.837,371.333 314.17,371.5 329.5,372C 334.428,373.927 337.594,377.427 339,382.5C 339.667,396.833 339.667,411.167 339,425.5C 337.594,430.573 334.428,434.073 329.5,436C 314.167,436.667 298.833,436.667 283.5,436C 274.547,431.801 271.88,425.134 275.5,416C 279.5,412.667 283.5,412.667 287.5,416C 288.861,417.584 289.528,419.418 289.5,421.5C 300.833,421.5 312.167,421.5 323.5,421.5C 323.5,409.833 323.5,398.167 323.5,386.5C 312.167,386.5 300.833,386.5 289.5,386.5C 289.666,390.846 289.499,395.179 289,399.5C 286.774,403.861 283.274,405.361 278.5,404C 276.333,403.167 274.833,401.667 274,399.5C 273.123,392.751 273.456,386.084 275,379.5C 277.098,375.897 279.932,373.23 283.5,371.5 Z"/></g>
</svg>
