<?xml version="1.0" encoding="UTF-8"?>
<!DOCTYPE svg PUBLIC "-//W3C//DTD SVG 1.1//EN" "http://www.w3.org/Graphics/SVG/1.1/DTD/svg11.dtd">
<svg xmlns="http://www.w3.org/2000/svg" version="1.1" width="512px" height="512px" style="shape-rendering:geometricPrecision; text-rendering:geometricPrecision; image-rendering:optimizeQuality; fill-rule:evenodd; clip-rule:evenodd" xmlns:xlink="http://www.w3.org/1999/xlink">
<g><path style="opacity:0.931" fill="#000000" d="M 232.5,-0.5 C 247.833,-0.5 263.167,-0.5 278.5,-0.5C 379.371,12.3469 450.871,65.0136 493,157.5C 502.497,181.819 508.663,206.819 511.5,232.5C 511.5,247.833 511.5,263.167 511.5,278.5C 499.099,376.153 448.766,446.653 360.5,490C 334.11,501.263 306.776,508.429 278.5,511.5C 263.167,511.5 247.833,511.5 232.5,511.5C 143.853,500.61 76.6868,456.943 31,380.5C 13.7076,348.465 3.20759,314.465 -0.5,278.5C -0.5,263.167 -0.5,247.833 -0.5,232.5C 12.3465,131.63 65.0132,60.1301 157.5,18C 181.82,8.50296 206.82,2.33629 232.5,-0.5 Z M 254.5,15.5 C 346.404,19.012 416.238,59.6787 464,137.5C 499.491,204.379 504.157,273.379 478,344.5C 444.521,421.974 386.688,470.474 304.5,490C 215.855,505.562 140.355,481.062 78,416.5C 25.6539,355.801 6.65392,285.801 21,206.5C 43.1165,116.049 98.2832,55.8827 186.5,26C 208.874,19.6386 231.541,16.1386 254.5,15.5 Z M 252.5,248.5 C 261.85,248.365 264.517,252.532 260.5,261C 251.956,264.322 248.123,261.489 249,252.5C 249.69,250.65 250.856,249.316 252.5,248.5 Z"/></g>
<g><path style="opacity:0.93" fill="#000000" d="M 234.5,31.5 C 285.657,27.623 332.99,39.123 376.5,66C 378.96,67.4578 381.127,69.2911 383,71.5C 385.216,80.6105 381.716,84.7772 372.5,84C 310.218,44.154 244.551,37.4873 175.5,64C 115.586,90.9183 75.7525,135.752 56,198.5C 37.532,272.283 52.8653,337.949 102,395.5C 104.167,405.333 100.333,409.167 90.5,407C 56.2871,370.384 36.7871,326.884 32,276.5C 26.4798,195.402 54.9798,129.236 117.5,78C 152.178,51.6077 191.178,36.1077 234.5,31.5 Z"/></g>
<g><path style="opacity:0.96" fill="#000000" d="M 251.5,63.5 C 254.187,63.3359 256.854,63.5026 259.5,64C 261.333,64.5 262.5,65.6667 263,67.5C 263.667,78.1667 263.667,88.8333 263,99.5C 262.5,101.333 261.333,102.5 259.5,103C 256.833,103.667 254.167,103.667 251.5,103C 249.667,102.5 248.5,101.333 248,99.5C 247.333,88.8333 247.333,78.1667 248,67.5C 248.69,65.6498 249.856,64.3164 251.5,63.5 Z"/></g>
<g><path style="opacity:0.913" fill="#000000" d="M 395.5,86.5 C 398.978,86.1842 402.312,86.6842 405.5,88C 411,93.5 416.5,99 422,104.5C 425.833,116.667 421.667,120.833 409.5,117C 404.667,110.833 399.167,105.333 393,100.5C 390.425,95.034 391.258,90.3673 395.5,86.5 Z"/></g>
<g><path style="opacity:0.902" fill="#000000" d="M 160.5,87.5 C 164.803,86.7962 168.303,88.1295 171,91.5C 174.414,97.9969 178.081,104.33 182,110.5C 185.91,121.914 182.076,126.414 170.5,124C 165.625,117.086 161.125,109.919 157,102.5C 154.092,96.3207 155.258,91.3207 160.5,87.5 Z"/></g>
<g><path style="opacity:0.902" fill="#000000" d="M 344.5,87.5 C 353.705,87.2063 357.205,91.5396 355,100.5C 350.747,107.337 346.747,114.337 343,121.5C 338,126.833 333,126.833 328,121.5C 327.333,118.5 327.333,115.5 328,112.5C 332.253,105.663 336.253,98.6628 340,91.5C 341.397,89.9297 342.897,88.5964 344.5,87.5 Z"/></g>
<g><path style="opacity:0.953" fill="#000000" d="M 251.5,119.5 C 254.187,119.336 256.854,119.503 259.5,120C 261.333,120.5 262.5,121.667 263,123.5C 263.167,159.838 263.667,196.171 264.5,232.5C 277.081,238.664 281.914,248.664 279,262.5C 278.152,265.698 276.652,268.531 274.5,271C 289.207,296.915 304.04,322.748 319,348.5C 320.663,357.167 317.163,361 308.5,360C 306.061,359.226 304.227,357.726 303,355.5C 288.919,330.337 274.586,305.337 260,280.5C 237.439,279.274 228.439,267.607 233,245.5C 236.028,239.639 240.528,235.306 246.5,232.5C 247.333,196.171 247.833,159.838 248,123.5C 248.69,121.65 249.856,120.316 251.5,119.5 Z M 252.5,248.5 C 250.856,249.316 249.69,250.65 249,252.5C 248.123,261.489 251.956,264.322 260.5,261C 264.517,252.532 261.85,248.365 252.5,248.5 Z"/></g>
<g><path style="opacity:0.93" fill="#000000" d="M 430.5,127.5 C 433.518,127.335 436.518,127.502 439.5,128C 462.301,159.798 475.468,195.298 479,234.5C 484.369,309.757 459.536,372.924 404.5,424C 335.685,480.361 259.018,494.027 174.5,465C 151.758,456.137 131.091,443.971 112.5,428.5C 109.657,417.511 113.657,413.345 124.5,416C 180.652,459.831 243.319,472.831 312.5,455C 384.667,432.167 432.167,384.667 455,312.5C 471.348,250.253 462.014,192.253 427,138.5C 425.882,134.077 427.049,130.41 430.5,127.5 Z"/></g>
<g><path style="opacity:0.902" fill="#000000" d="M 91.5,155.5 C 94.5184,155.335 97.5184,155.502 100.5,156C 107.337,160.253 114.337,164.253 121.5,168C 126.833,173 126.833,178 121.5,183C 118.5,183.667 115.5,183.667 112.5,183C 104.416,178.543 96.5822,173.709 89,168.5C 86.6062,163.527 87.4395,159.194 91.5,155.5 Z"/></g>
<g><path style="opacity:0.902" fill="#000000" d="M 410.5,155.5 C 421.001,154.161 424.835,158.494 422,168.5C 414.418,173.709 406.584,178.543 398.5,183C 387.992,184.828 384.159,180.662 387,170.5C 394.813,165.351 402.647,160.351 410.5,155.5 Z"/></g>
<g><path style="opacity:0.96" fill="#000000" d="M 67.5,247.5 C 78.1719,247.333 88.8385,247.5 99.5,248C 101.333,248.5 102.5,249.667 103,251.5C 103.667,254.167 103.667,256.833 103,259.5C 102.5,261.333 101.333,262.5 99.5,263C 88.8333,263.667 78.1667,263.667 67.5,263C 64.484,261.471 63.1506,258.971 63.5,255.5C 63.2824,251.934 64.6157,249.268 67.5,247.5 Z"/></g>
<g><path style="opacity:0.96" fill="#000000" d="M 411.5,247.5 C 422.172,247.333 432.839,247.5 443.5,248C 445.333,248.5 446.5,249.667 447,251.5C 447.667,254.167 447.667,256.833 447,259.5C 446.5,261.333 445.333,262.5 443.5,263C 432.833,263.667 422.167,263.667 411.5,263C 408.484,261.471 407.151,258.971 407.5,255.5C 407.282,251.934 408.616,249.268 411.5,247.5 Z"/></g>
<g><path style="opacity:0.902" fill="#000000" d="M 112.5,327.5 C 123.001,326.161 126.835,330.494 124,340.5C 116.418,345.709 108.584,350.543 100.5,355C 89.9919,356.828 86.1586,352.662 89,342.5C 96.8132,337.351 104.647,332.351 112.5,327.5 Z"/></g>
<g><path style="opacity:0.902" fill="#000000" d="M 389.5,327.5 C 392.518,327.335 395.518,327.502 398.5,328C 405.337,332.253 412.337,336.253 419.5,340C 424.833,345 424.833,350 419.5,355C 416.5,355.667 413.5,355.667 410.5,355C 402.416,350.543 394.582,345.709 387,340.5C 384.606,335.527 385.44,331.194 389.5,327.5 Z"/></g>
<g><path style="opacity:0.902" fill="#000000" d="M 172.5,385.5 C 181.705,385.206 185.205,389.54 183,398.5C 178.747,405.337 174.747,412.337 171,419.5C 166,424.833 161,424.833 156,419.5C 155.333,416.5 155.333,413.5 156,410.5C 160.253,403.663 164.253,396.663 168,389.5C 169.397,387.93 170.897,386.596 172.5,385.5 Z"/></g>
<g><path style="opacity:0.903" fill="#000000" d="M 332.5,385.5 C 336.803,384.796 340.303,386.13 343,389.5C 346.414,395.997 350.081,402.33 354,408.5C 357.91,419.914 354.076,424.414 342.5,422C 337.625,415.086 333.125,407.919 329,400.5C 326.092,394.321 327.258,389.321 332.5,385.5 Z"/></g>
<g><path style="opacity:0.96" fill="#000000" d="M 251.5,407.5 C 254.187,407.336 256.854,407.503 259.5,408C 261.333,408.5 262.5,409.667 263,411.5C 263.667,422.167 263.667,432.833 263,443.5C 262.5,445.333 261.333,446.5 259.5,447C 256.833,447.667 254.167,447.667 251.5,447C 249.667,446.5 248.5,445.333 248,443.5C 247.333,432.833 247.333,422.167 248,411.5C 248.69,409.65 249.856,408.316 251.5,407.5 Z"/></g>
</svg>
