<?xml version="1.0" encoding="UTF-8"?>
<!DOCTYPE svg PUBLIC "-//W3C//DTD SVG 1.1//EN" "http://www.w3.org/Graphics/SVG/1.1/DTD/svg11.dtd">
<svg xmlns="http://www.w3.org/2000/svg" version="1.1" width="512px" height="512px" style="shape-rendering:geometricPrecision; text-rendering:geometricPrecision; image-rendering:optimizeQuality; fill-rule:evenodd; clip-rule:evenodd" xmlns:xlink="http://www.w3.org/1999/xlink">
<g><path style="opacity:0.964" fill="#000000" d="M 511.5,169.5 C 511.5,173.5 511.5,177.5 511.5,181.5C 499.777,209.297 488.277,237.297 477,265.5C 470.8,271.52 463.633,273.02 455.5,270C 432.028,247.528 408.861,224.695 386,201.5C 379.706,183.133 386.206,174.633 405.5,176C 417.937,186.435 429.771,197.602 441,209.5C 424.65,143.135 385.483,95.302 323.5,66C 244.167,34.428 171.167,45.0947 104.5,98C 41.2625,156.729 19.7625,228.229 40,312.5C 63.1667,384.333 110.667,431.833 182.5,455C 262.298,474.387 331.631,455.721 390.5,399C 404.253,394.874 412.253,399.874 414.5,414C 414.176,418.308 412.676,422.141 410,425.5C 345.176,486.428 269.01,507.595 181.5,489C 105.084,468.062 50.5839,421.562 18,349.5C 8.19732,325.953 2.03066,301.62 -0.5,276.5C -0.5,262.5 -0.5,248.5 -0.5,234.5C 9.73488,150.154 51.4015,86.6537 124.5,44C 187.701,11.5905 253.034,6.59052 320.5,29C 396.992,58.8243 447.159,112.991 471,191.5C 474.195,184.247 477.195,176.914 480,169.5C 484.473,160.518 491.64,157.351 501.5,160C 506.02,162.022 509.353,165.189 511.5,169.5 Z M 232.5,144.5 C 251.692,142.332 264.192,150.332 270,168.5C 270.5,181.496 270.667,194.496 270.5,207.5C 249.5,207.5 228.5,207.5 207.5,207.5C 207.333,196.828 207.5,186.161 208,175.5C 209.522,159.735 217.689,149.402 232.5,144.5 Z"/></g>
<g><path style="opacity:0.986" fill="#000000" d="M 228.5,111.5 C 268.124,108.704 292.957,126.371 303,164.5C 303.5,178.829 303.667,193.163 303.5,207.5C 310.841,207.334 318.174,207.5 325.5,208C 330,209.833 333.167,213 335,217.5C 335.667,264.167 335.667,310.833 335,357.5C 333.167,362 330,365.167 325.5,367C 268.167,367.667 210.833,367.667 153.5,367C 149,365.167 145.833,362 144,357.5C 143.333,310.833 143.333,264.167 144,217.5C 145.833,213 149,209.833 153.5,208C 160.826,207.5 168.159,207.334 175.5,207.5C 175.333,193.163 175.5,178.829 176,164.5C 182.347,135.653 199.847,117.987 228.5,111.5 Z M 232.5,144.5 C 217.689,149.402 209.522,159.735 208,175.5C 207.5,186.161 207.333,196.828 207.5,207.5C 228.5,207.5 249.5,207.5 270.5,207.5C 270.667,194.496 270.5,181.496 270,168.5C 264.192,150.332 251.692,142.332 232.5,144.5 Z M 175.5,239.5 C 217.833,239.5 260.167,239.5 302.5,239.5C 302.5,271.5 302.5,303.5 302.5,335.5C 260.167,335.5 217.833,335.5 175.5,335.5C 175.5,303.5 175.5,271.5 175.5,239.5 Z"/></g>
</svg>
