<?xml version="1.0" encoding="UTF-8"?>
<!DOCTYPE svg PUBLIC "-//W3C//DTD SVG 1.1//EN" "http://www.w3.org/Graphics/SVG/1.1/DTD/svg11.dtd">
<svg xmlns="http://www.w3.org/2000/svg" version="1.1" width="512px" height="512px" style="shape-rendering:geometricPrecision; text-rendering:geometricPrecision; image-rendering:optimizeQuality; fill-rule:evenodd; clip-rule:evenodd" xmlns:xlink="http://www.w3.org/1999/xlink">
<g><path style="opacity:0.967" fill="#000000" d="M 8.5,-0.5 C 30.1667,-0.5 51.8333,-0.5 73.5,-0.5C 225.031,13.351 344.531,82.0176 432,205.5C 478.737,275.877 505.237,353.21 511.5,437.5C 511.5,459.167 511.5,480.833 511.5,502.5C 510.196,503.987 509.03,505.654 508,507.5C 505.985,508.697 504.151,510.03 502.5,511.5C 478.5,511.5 454.5,511.5 430.5,511.5C 426.521,509.685 423.688,506.685 422,502.5C 427.564,399.995 398.897,308.662 336,228.5C 270.171,149.988 186.004,104.488 83.5,92C 58.5256,90.4112 33.5256,89.4112 8.5,89C 4.31481,87.3122 1.31481,84.4788 -0.5,80.5C -0.5,56.5 -0.5,32.5 -0.5,8.5C 0.803551,7.01307 1.97022,5.3464 3,3.5C 5.01533,2.30342 6.84866,0.970083 8.5,-0.5 Z M 29.5,29.5 C 163.705,28.3798 276.538,76.3798 368,173.5C 445.182,261.17 483.016,363.836 481.5,481.5C 471.5,481.5 461.5,481.5 451.5,481.5C 453.332,349.386 404.666,240.219 305.5,154C 225.445,88.5901 133.445,57.0901 29.5,59.5C 29.5,49.5 29.5,39.5 29.5,29.5 Z"/></g>
<g><path style="opacity:0.967" fill="#000000" d="M 382.5,511.5 C 358.5,511.5 334.5,511.5 310.5,511.5C 306.521,509.685 303.688,506.685 302,502.5C 301.906,477.426 300.572,452.426 298,427.5C 285.192,354.997 249.025,297.497 189.5,255C 152.359,229.84 111.359,215.173 66.5,211C 47.1759,210.074 27.8425,209.408 8.5,209C 4.31481,207.312 1.31481,204.479 -0.5,200.5C -0.5,176.5 -0.5,152.5 -0.5,128.5C 1.31481,124.521 4.31481,121.688 8.5,120C 124.013,111.71 221.513,149.21 301,232.5C 371.009,311.192 400.009,402.859 388,507.5C 385.985,508.697 384.151,510.03 382.5,511.5 Z M 29.5,149.5 C 134.327,148.128 220.827,186.794 289,265.5C 339.162,328.484 363.329,400.484 361.5,481.5C 351.5,481.5 341.5,481.5 331.5,481.5C 333.456,375.916 292.123,292.082 207.5,230C 153.852,193.584 94.5188,176.751 29.5,179.5C 29.5,169.5 29.5,159.5 29.5,149.5 Z"/></g>
<g><path style="opacity:0.971" fill="#000000" d="M 262.5,511.5 C 238.5,511.5 214.5,511.5 190.5,511.5C 186.521,509.685 183.688,506.685 182,502.5C 181.722,485.483 181.055,468.483 180,451.5C 170.285,394.233 138.118,355.733 83.5,336C 75.6304,333.699 67.6304,332.033 59.5,331C 42.5168,329.945 25.5168,329.278 8.5,329C 4.31481,327.312 1.31481,324.479 -0.5,320.5C -0.5,296.5 -0.5,272.5 -0.5,248.5C 1.31481,244.521 4.31481,241.688 8.5,240C 104.121,230.743 179.621,264.91 235,342.5C 267.31,393.385 278.31,448.385 268,507.5C 265.985,508.697 264.151,510.03 262.5,511.5 Z M 29.5,269.5 C 110.618,268.628 172.451,302.294 215,370.5C 234.049,405.032 242.883,442.032 241.5,481.5C 231.5,481.5 221.5,481.5 211.5,481.5C 214.091,409.696 184.758,355.529 123.5,319C 94.0734,303.481 62.7401,296.981 29.5,299.5C 29.5,289.5 29.5,279.5 29.5,269.5 Z"/></g>
<g><path style="opacity:0.963" fill="#000000" d="M 70.5,511.5 C 63.1667,511.5 55.8333,511.5 48.5,511.5C 22.5,504.833 6.16667,488.5 -0.5,462.5C -0.5,455.167 -0.5,447.833 -0.5,440.5C 9.21193,404.324 32.8786,387.824 70.5,391C 101.995,398.988 118.661,419.155 120.5,451.5C 118.401,483.725 101.734,503.725 70.5,511.5 Z M 52.5,421.5 C 77.9755,420.808 90.1422,433.142 89,458.5C 79.6995,479.49 64.5328,485.323 43.5,476C 29.9583,465.438 26.7917,452.272 34,436.5C 38.5918,429.394 44.7585,424.394 52.5,421.5 Z"/></g>
</svg>
