<?xml version="1.0" encoding="UTF-8"?>
<!DOCTYPE svg PUBLIC "-//W3C//DTD SVG 1.1//EN" "http://www.w3.org/Graphics/SVG/1.1/DTD/svg11.dtd">
<svg xmlns="http://www.w3.org/2000/svg" version="1.1" width="512px" height="512px" style="shape-rendering:geometricPrecision; text-rendering:geometricPrecision; image-rendering:optimizeQuality; fill-rule:evenodd; clip-rule:evenodd" xmlns:xlink="http://www.w3.org/1999/xlink">
<g><path style="opacity:0.962" fill="#000000" d="M -0.5,248.5 C -0.5,234.167 -0.5,219.833 -0.5,205.5C 6.81208,145.044 32.1454,93.5436 75.5,51C 84.8438,45.9377 92.6772,47.771 99,56.5C 101.148,61.9836 100.815,67.3169 98,72.5C 34.7777,136.726 16.4444,212.059 43,298.5C 55.3275,330.503 73.6608,358.503 98,382.5C 103.431,395.973 99.0976,404.306 85,407.5C 81.6795,406.832 78.5128,405.665 75.5,404C 31.8532,361.205 6.51986,309.372 -0.5,248.5 Z"/></g>
<g><path style="opacity:0.962" fill="#000000" d="M 511.5,206.5 C 511.5,220.5 511.5,234.5 511.5,248.5C 504.48,309.372 479.147,361.205 435.5,404C 426.156,409.062 418.323,407.229 412,398.5C 409.852,393.016 410.185,387.683 413,382.5C 476.222,318.275 494.555,242.942 468,156.5C 455.673,124.497 437.339,96.4966 413,72.5C 407.569,59.0273 411.902,50.6939 426,47.5C 429.32,48.1684 432.487,49.3351 435.5,51C 479.147,93.7951 504.48,145.628 511.5,206.5 Z"/></g>
<g><path style="opacity:0.959" fill="#000000" d="M 125.5,93.5 C 139.983,92.4821 146.483,99.1487 145,113.5C 142.14,119.365 138.14,124.365 133,128.5C 95.4462,176.029 87.1128,228.362 108,285.5C 115.859,304.558 127.192,321.225 142,335.5C 146.179,341.96 146.512,348.627 143,355.5C 135.865,362.497 128.032,363.33 119.5,358C 75.0796,311.058 58.2463,255.558 69,191.5C 76.0104,157.059 91.3438,127.059 115,101.5C 117.975,97.9525 121.475,95.2858 125.5,93.5 Z"/></g>
<g><path style="opacity:0.959" fill="#000000" d="M 375.5,93.5 C 381.311,92.7743 386.645,93.9409 391.5,97C 438.258,146.847 454.424,205.347 440,272.5C 431.429,305.494 415.262,333.994 391.5,358C 382.968,363.33 375.135,362.497 368,355.5C 364.483,348.664 364.816,341.997 369,335.5C 406.836,296.188 420.836,249.521 411,195.5C 404.276,166.043 390.276,140.71 369,119.5C 362.647,108.518 364.814,99.8518 375.5,93.5 Z"/></g>
<g><path style="opacity:0.958" fill="#000000" d="M 171.5,138.5 C 188.5,139.157 194,147.491 188,163.5C 161.083,191.409 154.083,223.742 167,260.5C 168.894,265.392 171.228,270.059 174,274.5C 179.576,281.32 184.909,288.32 190,295.5C 191.262,313.239 183.429,319.405 166.5,314C 130.083,276.15 120.583,232.317 138,182.5C 144.66,166.668 154.16,152.835 166.5,141C 168.315,140.243 169.981,139.41 171.5,138.5 Z"/></g>
<g><path style="opacity:0.957" fill="#000000" d="M 331.5,138.5 C 336.08,138.113 340.414,138.947 344.5,141C 376.229,173.399 387.396,211.899 378,256.5C 372.345,278.99 361.178,298.156 344.5,314C 327.571,319.405 319.738,313.239 321,295.5C 326.091,288.32 331.424,281.32 337,274.5C 355,243.167 355,211.833 337,180.5C 331.424,173.68 326.091,166.68 321,159.5C 318.714,149.404 322.214,142.404 331.5,138.5 Z"/></g>
<g><path style="opacity:0.977" fill="#000000" d="M 245.5,168.5 C 278.919,165.943 300.419,180.61 310,212.5C 313.606,236.441 305.773,255.608 286.5,270C 281.475,273.015 276.142,275.182 270.5,276.5C 270.667,335.501 270.5,394.501 270,453.5C 266.97,459.35 262.137,462.684 255.5,463.5C 248.863,462.684 244.03,459.35 241,453.5C 240.5,394.501 240.333,335.501 240.5,276.5C 219.31,270.141 206.144,256.141 201,234.5C 197.713,200.028 212.547,178.028 245.5,168.5 Z M 249.5,199.5 C 271.157,198.656 280.991,208.989 279,230.5C 270.425,248.047 257.591,252.213 240.5,243C 230.738,233.572 228.905,222.739 235,210.5C 238.857,205.468 243.69,201.801 249.5,199.5 Z"/></g>
</svg>
