<?xml version="1.0" encoding="UTF-8"?>
<!DOCTYPE svg PUBLIC "-//W3C//DTD SVG 1.1//EN" "http://www.w3.org/Graphics/SVG/1.1/DTD/svg11.dtd">
<svg xmlns="http://www.w3.org/2000/svg" version="1.1" width="512px" height="512px" style="shape-rendering:geometricPrecision; text-rendering:geometricPrecision; image-rendering:optimizeQuality; fill-rule:evenodd; clip-rule:evenodd" xmlns:xlink="http://www.w3.org/1999/xlink">
<g><path style="opacity:0.938" fill="#000000" d="M 234.5,25.5 C 248.504,25.3334 262.504,25.5001 276.5,26C 283.665,25.1564 288.498,27.9897 291,34.5C 294.995,51.4785 298.828,68.4785 302.5,85.5C 312.178,87.8373 321.511,91.1706 330.5,95.5C 344.975,84.8587 359.308,74.0254 373.5,63C 375.218,62.654 376.885,62.154 378.5,61.5C 380.115,62.154 381.782,62.654 383.5,63C 399.128,72.9505 413.295,84.7839 426,98.5C 427.923,102.805 427.923,107.138 426,111.5C 418.411,125.677 411.078,140.01 404,154.5C 403.48,156.289 403.813,157.956 405,159.5C 409.877,166.751 414.377,174.251 418.5,182C 436.169,182.963 453.835,183.963 471.5,185C 475.02,185.504 477.52,187.337 479,190.5C 484.931,209.748 487.931,229.415 488,249.5C 487.044,250.579 486.211,251.745 485.5,253C 469.283,260.275 452.949,267.275 436.5,274C 435.151,274.772 434.318,275.939 434,277.5C 432.764,286.578 431.43,295.578 430,304.5C 443,316.833 456,329.167 469,341.5C 470.483,344.702 470.817,348.036 470,351.5C 462.201,369.626 452.034,386.126 439.5,401C 438.167,401.167 436.833,401.333 435.5,401.5C 417.927,396.81 400.427,391.81 383,386.5C 381.775,386.862 380.609,387.362 379.5,388C 373.464,394.094 366.964,399.594 360,404.5C 361.129,422.372 362.962,440.205 365.5,458C 365.369,460.253 364.869,462.419 364,464.5C 345.048,476.151 324.548,482.984 302.5,485C 291.339,469.68 280.672,454.013 270.5,438C 260.5,437.333 250.5,437.333 240.5,438C 230.328,454.013 219.661,469.68 208.5,485C 187.254,482.92 167.254,476.586 148.5,466C 146.523,463.74 145.523,461.073 145.5,458C 148.038,440.205 149.871,422.372 151,404.5C 143.036,398.868 135.369,392.868 128,386.5C 113.144,390.922 98.3103,395.422 83.5,400C 76.2886,403.219 70.4553,401.719 66,395.5C 56.1484,381.808 47.8151,367.142 41,351.5C 40.1834,348.036 40.5167,344.702 42,341.5C 50.5,333.667 59,325.833 67.5,318C 72.7518,313.254 77.4185,308.087 81.5,302.5C 79.4935,293.113 77.4935,283.779 75.5,274.5C 58.7171,267.609 42.0504,260.442 25.5,253C 24.7894,251.745 23.956,250.579 23,249.5C 23.0694,229.415 26.0694,209.748 32,190.5C 33.4798,187.337 35.9798,185.504 39.5,185C 57.1646,183.963 74.8312,182.963 92.5,182C 96.6094,174.284 101.109,166.784 106,159.5C 107.187,157.956 107.52,156.289 107,154.5C 98.3098,138.125 90.4764,121.458 83.5,104.5C 83.5153,102.366 84.0153,100.366 85,98.5C 97.7054,84.7839 111.872,72.9505 127.5,63C 132.634,61.2546 137.3,62.2546 141.5,66C 154.5,75.8333 167.5,85.6667 180.5,95.5C 189.489,91.1706 198.822,87.8373 208.5,85.5C 212.349,67.4373 216.515,49.4373 221,31.5C 222.227,29.2739 224.061,27.7739 226.5,27C 229.365,26.8171 232.031,26.3171 234.5,25.5 Z M 237.5,44.5 C 249.518,44.1677 261.518,44.501 273.5,45.5C 277.555,63.7231 282.222,81.7231 287.5,99.5C 300.654,104.165 313.654,109.332 326.5,115C 329.865,116.797 333.198,116.797 336.5,115C 350.359,104.308 364.359,93.8076 378.5,83.5C 388.569,90.2107 397.902,97.8773 406.5,106.5C 397.802,123.06 389.802,139.894 382.5,157C 382.615,159.732 383.448,162.232 385,164.5C 392.611,174.716 398.944,185.716 404,197.5C 404.903,198.701 406.069,199.535 407.5,200C 425.845,201.223 444.178,202.556 462.5,204C 465.695,215.504 468.028,227.17 469.5,239C 453.915,245.862 438.248,252.528 422.5,259C 419.667,260.5 417.5,262.667 416,265.5C 414.521,280.372 412.187,295.039 409,309.5C 409.667,310.833 410.333,312.167 411,313.5C 423.833,325.667 436.667,337.833 449.5,350C 445.381,358.408 440.881,366.574 436,374.5C 434.663,377.002 432.829,379.002 430.5,380.5C 414.121,375.822 397.788,370.989 381.5,366C 378.217,365.257 375.217,365.924 372.5,368C 363.376,377.464 353.376,385.797 342.5,393C 341.54,394.419 340.707,395.919 340,397.5C 341.088,415.211 342.922,432.878 345.5,450.5C 345.167,451.5 344.833,452.5 344.5,453.5C 334.066,458.09 323.399,462.09 312.5,465.5C 302.112,451.265 292.279,436.598 283,421.5C 280.737,419.409 278.07,418.076 275,417.5C 268.486,418.147 261.986,418.814 255.5,419.5C 249.014,418.814 242.514,418.147 236,417.5C 233.755,418.137 231.588,418.97 229.5,420C 219.525,435.464 209.191,450.63 198.5,465.5C 187.612,462.093 176.945,458.093 166.5,453.5C 166.167,452.5 165.833,451.5 165.5,450.5C 167.582,434.178 169.582,417.844 171.5,401.5C 171.491,398.316 170.491,395.483 168.5,393C 157.624,385.797 147.624,377.464 138.5,368C 135.783,365.924 132.783,365.257 129.5,366C 113.354,370.911 97.1871,375.745 81,380.5C 79.1105,380.215 77.7771,379.215 77,377.5C 71.2002,368.738 66.0335,359.572 61.5,350C 74.3333,337.833 87.1667,325.667 100,313.5C 101.03,311.412 101.863,309.245 102.5,307C 98.4559,293.446 95.9559,279.613 95,265.5C 93.5,262.667 91.3333,260.5 88.5,259C 72.7515,252.528 57.0849,245.862 41.5,239C 42.9719,227.17 45.3053,215.504 48.5,204C 67.5933,202.821 86.5933,201.155 105.5,199C 112.103,185.624 119.603,172.791 128,160.5C 128.667,158.167 128.667,155.833 128,153.5C 120.167,137.833 112.333,122.167 104.5,106.5C 113.058,97.888 122.391,90.2213 132.5,83.5C 145.5,93.3333 158.5,103.167 171.5,113C 173.71,114.739 176.21,115.906 179,116.5C 192.12,110.682 205.62,105.848 219.5,102C 221.939,101.226 223.773,99.7261 225,97.5C 229.233,79.8294 233.4,62.1627 237.5,44.5 Z M 246.5,179.5 C 285.241,177.941 312.741,194.608 329,229.5C 341.505,269.654 330.671,301.82 296.5,326C 258.57,345.439 224.737,339.939 195,309.5C 170.333,275.5 170.333,241.5 195,207.5C 209.019,192.243 226.185,182.91 246.5,179.5 Z"/></g>
<g><path style="opacity:0.937" fill="#000000" d="M 245.5,160.5 C 294.654,158.865 328.821,180.532 348,225.5C 362.273,277.756 346.439,317.923 300.5,346C 253.93,365.887 213.43,357.387 179,320.5C 155.056,287.878 151.056,252.878 167,215.5C 183.944,183.949 210.11,165.616 245.5,160.5 Z M 246.5,179.5 C 226.185,182.91 209.019,192.243 195,207.5C 170.333,241.5 170.333,275.5 195,309.5C 224.737,339.939 258.57,345.439 296.5,326C 330.671,301.82 341.505,269.654 329,229.5C 312.741,194.608 285.241,177.941 246.5,179.5 Z"/></g>
</svg>
