<?xml version="1.0" encoding="UTF-8"?>
<!DOCTYPE svg PUBLIC "-//W3C//DTD SVG 1.1//EN" "http://www.w3.org/Graphics/SVG/1.1/DTD/svg11.dtd">
<svg xmlns="http://www.w3.org/2000/svg" version="1.1" width="512px" height="512px" style="shape-rendering:geometricPrecision; text-rendering:geometricPrecision; image-rendering:optimizeQuality; fill-rule:evenodd; clip-rule:evenodd" xmlns:xlink="http://www.w3.org/1999/xlink">
<g><path style="opacity:0.924" fill="#000000" d="M 230.5,68.5 C 238.077,66.8695 243.244,69.5362 246,76.5C 246.877,83.2494 246.544,89.9161 245,96.5C 240.727,101.464 235.561,102.63 229.5,100C 227.333,99.1667 225.833,97.6667 225,95.5C 224.333,88.5 224.333,81.5 225,74.5C 226.36,71.9774 228.193,69.9774 230.5,68.5 Z"/></g>
<g><path style="opacity:0.911" fill="#000000" d="M 127.5,101.5 C 131.41,101.263 135.077,102.096 138.5,104C 141.211,107.922 144.045,111.756 147,115.5C 149.629,128.825 144.463,133.992 131.5,131C 125.91,126.073 121.91,120.073 119.5,113C 119.87,107.384 122.537,103.551 127.5,101.5 Z"/></g>
<g><path style="opacity:0.949" fill="#000000" d="M 342.5,111.5 C 352.005,111.417 361.339,112.583 370.5,115C 374.267,117.19 376.267,120.523 376.5,125C 375.863,127.245 375.03,129.412 374,131.5C 351.377,157.559 349.71,184.892 369,213.5C 389.342,235.92 414.009,242.587 443,233.5C 452.778,234.36 456.778,239.693 455,249.5C 439.106,298.212 405.606,325.546 354.5,331.5C 320.487,380.028 273.821,400.861 214.5,394C 153.297,381.464 114.797,344.964 99,284.5C 89.4654,226.746 107.299,179.579 152.5,143C 196.01,113.604 242.344,108.438 291.5,127.5C 307.48,118.594 324.48,113.261 342.5,111.5 Z M 336.5,134.5 C 338.604,134.201 340.604,134.534 342.5,135.5C 324.98,176.229 332.313,211.729 364.5,242C 382.538,255.847 402.872,262.347 425.5,261.5C 408.139,291.139 382.139,306.806 347.5,308.5C 305.844,305.1 278.011,283.766 264,244.5C 254.907,203.545 267.407,171.045 301.5,147C 312.48,140.51 324.146,136.343 336.5,134.5 Z M 227.5,137.5 C 242.473,136.96 257.139,138.793 271.5,143C 244.663,170.521 234.496,203.354 241,241.5C 249.339,278.677 270.839,305.177 305.5,321C 312.831,323.556 320.165,325.889 327.5,328C 295.011,366.83 254.011,380.496 204.5,369C 162.141,355.308 134.641,327.141 122,284.5C 111.461,228.772 129.628,185.272 176.5,154C 192.496,144.944 209.496,139.444 227.5,137.5 Z"/></g>
<g><path style="opacity:0.914" fill="#000000" d="M 64.5,190.5 C 72.2117,190.761 79.545,192.595 86.5,196C 93.1132,206.16 90.6132,212.993 79,216.5C 72.9748,215.269 67.1415,213.436 61.5,211C 54.2386,202.997 55.2386,196.163 64.5,190.5 Z"/></g>
<g><path style="opacity:0.917" fill="#000000" d="M 72.5,295.5 C 84.9939,294.817 90.1606,300.484 88,312.5C 85.8308,316.01 82.6641,318.177 78.5,319C 73.269,321.584 67.9357,321.918 62.5,320C 54.5072,314.039 53.8406,307.372 60.5,300C 64.5711,298.37 68.5711,296.87 72.5,295.5 Z"/></g>
<g><path style="opacity:0.919" fill="#000000" d="M 133.5,378.5 C 145.061,378.22 149.561,383.886 147,395.5C 144.089,398.99 141.422,402.656 139,406.5C 133.959,410.267 128.792,410.434 123.5,407C 118.426,401.3 118.259,395.467 123,389.5C 126.03,385.305 129.53,381.639 133.5,378.5 Z"/></g>
<g><path style="opacity:0.91" fill="#000000" d="M 327.5,379.5 C 335.438,377.721 341.271,380.387 345,387.5C 350.254,393.682 350.754,400.182 346.5,407C 342.782,409.298 338.782,409.965 334.5,409C 325.67,403.502 321.504,395.668 322,385.5C 323.36,382.977 325.193,380.977 327.5,379.5 Z"/></g>
<g><path style="opacity:0.923" fill="#000000" d="M 232.5,409.5 C 238.957,408.975 243.457,411.642 246,417.5C 246.667,423.167 246.667,428.833 246,434.5C 243.242,441.628 238.076,444.128 230.5,442C 228,440.833 226.167,439 225,436.5C 224.333,429.5 224.333,422.5 225,415.5C 226.707,412.41 229.207,410.41 232.5,409.5 Z"/></g>
</svg>
