<?xml version="1.0" encoding="UTF-8"?>
<!DOCTYPE svg PUBLIC "-//W3C//DTD SVG 1.1//EN" "http://www.w3.org/Graphics/SVG/1.1/DTD/svg11.dtd">
<svg xmlns="http://www.w3.org/2000/svg" version="1.1" width="512px" height="512px" style="shape-rendering:geometricPrecision; text-rendering:geometricPrecision; image-rendering:optimizeQuality; fill-rule:evenodd; clip-rule:evenodd" xmlns:xlink="http://www.w3.org/1999/xlink">
<g><path style="opacity:0.943" fill="#000000" d="M 177.5,-0.5 C 182.833,-0.5 188.167,-0.5 193.5,-0.5C 198.763,1.21085 203.763,3.71085 208.5,7C 307,105.5 405.5,204 504,302.5C 507.289,307.237 509.789,312.237 511.5,317.5C 511.5,322.833 511.5,328.167 511.5,333.5C 509.404,339.686 506.237,345.353 502,350.5C 450.139,402.694 397.973,454.528 345.5,506C 341.525,508.146 337.525,509.98 333.5,511.5C 327.833,511.5 322.167,511.5 316.5,511.5C 311.786,509.334 307.119,506.834 302.5,504C 204,405.5 105.5,307 7,208.5C 4.16643,203.881 1.66643,199.214 -0.5,194.5C -0.5,188.833 -0.5,183.167 -0.5,177.5C 1.59647,171.314 4.76313,165.647 9,160.5C 60.8608,108.306 113.027,56.4723 165.5,5C 169.475,2.85371 173.475,1.02038 177.5,-0.5 Z M 182.5,23.5 C 186.219,23.0025 189.553,23.8358 192.5,26C 277.167,110.667 361.833,195.333 446.5,280C 391,335.5 335.5,391 280,446.5C 194.306,361.139 108.973,275.473 24,189.5C 23.0885,185.548 23.7552,181.881 26,178.5C 77.7561,126.243 129.923,74.5764 182.5,23.5 Z M 463.5,297.5 C 471.132,304.631 478.632,311.964 486,319.5C 488.121,323.997 487.788,328.33 485,332.5C 434.167,383.333 383.333,434.167 332.5,485C 327.833,488.333 323.167,488.333 318.5,485C 311.5,478 304.5,471 297.5,464C 353.035,408.632 408.368,353.132 463.5,297.5 Z"/></g>
<g><path style="opacity:0.946" fill="#000000" d="M 373.5,6.5 C 377.273,6.26326 380.94,6.76326 384.5,8C 436.667,34.8333 476.167,74.3333 503,126.5C 505.969,141.196 500.136,146.696 485.5,143C 477.375,129.247 468.875,115.747 460,102.5C 453.045,92.9423 445.378,83.9423 437,75.5C 416.629,55.9812 393.962,39.6478 369,26.5C 364.568,18.404 366.068,11.7374 373.5,6.5 Z"/></g>
<g><path style="opacity:0.906" fill="#000000" d="M 184.5,33.5 C 196.022,35.2128 199.855,41.5461 196,52.5C 189.631,59.6977 182.965,60.031 176,53.5C 171.577,43.5757 174.41,36.909 184.5,33.5 Z"/></g>
<g><path style="opacity:0.942" fill="#000000" d="M 357.5,47.5 C 397.82,65.6417 429.654,93.6417 453,131.5C 456.986,138.47 460.486,145.636 463.5,153C 460.674,165.413 453.674,168.58 442.5,162.5C 427.469,133.61 407.136,109.11 381.5,89C 372.024,82.2045 362.024,76.2045 351.5,71C 343.874,64.3324 343.541,57.3324 350.5,50C 352.927,49.0977 355.26,48.2644 357.5,47.5 Z"/></g>
<g><path style="opacity:0.927" fill="#000000" d="M 122.5,92.5 C 136.131,91.2947 141.298,97.2947 138,110.5C 129.5,120.333 120.333,129.5 110.5,138C 97.1444,141.311 91.311,136.144 93,122.5C 102.366,111.968 112.199,101.968 122.5,92.5 Z"/></g>
<g><path style="opacity:0.942" fill="#000000" d="M 56.5,345.5 C 62.661,344.331 67.4943,346.331 71,351.5C 90.5,391 120,420.5 159.5,440C 167.126,446.668 167.459,453.668 160.5,461C 158.222,461.986 155.889,462.82 153.5,463.5C 113.159,445.335 81.326,417.335 58,379.5C 54.0138,372.53 50.5138,365.364 47.5,358C 48.0564,351.961 51.0564,347.794 56.5,345.5 Z"/></g>
<g><path style="opacity:0.946" fill="#000000" d="M 13.5,366.5 C 19.0839,365.525 23.9173,366.858 28,370.5C 49.4365,412.935 80.2699,446.768 120.5,472C 127.912,475.788 135.079,479.955 142,484.5C 147.726,498.105 143.226,504.605 128.5,504C 75.3875,477.221 35.2208,437.387 8,384.5C 4.69652,376.789 6.52986,370.789 13.5,366.5 Z"/></g>
<g><path style="opacity:0.927" fill="#000000" d="M 403.5,371.5 C 415.349,371.203 420.182,376.869 418,388.5C 408.833,399 399,408.833 388.5,418C 374.856,419.689 369.689,413.856 373,400.5C 382.126,389.536 392.292,379.869 403.5,371.5 Z"/></g>
</svg>
