<?xml version="1.0" encoding="UTF-8"?>
<!DOCTYPE svg PUBLIC "-//W3C//DTD SVG 1.1//EN" "http://www.w3.org/Graphics/SVG/1.1/DTD/svg11.dtd">
<svg xmlns="http://www.w3.org/2000/svg" version="1.1" width="512px" height="512px" style="shape-rendering:geometricPrecision; text-rendering:geometricPrecision; image-rendering:optimizeQuality; fill-rule:evenodd; clip-rule:evenodd" xmlns:xlink="http://www.w3.org/1999/xlink">
<g><path style="opacity:0.968" fill="#ffffff" d="M 511.5,225.5 C 511.5,245.5 511.5,265.5 511.5,285.5C 507.575,296.077 499.908,301.743 488.5,302.5C 488.667,320.503 488.5,338.503 488,356.5C 483.049,377.784 469.882,390.618 448.5,395C 312.167,395.667 175.833,395.667 39.5,395C 18.37,391.284 5.03667,379.118 -0.5,358.5C -0.5,289.833 -0.5,221.167 -0.5,152.5C 5.03667,131.882 18.37,119.716 39.5,116C 175.833,115.333 312.167,115.333 448.5,116C 469.882,120.382 483.049,133.216 488,154.5C 488.5,172.497 488.667,190.497 488.5,208.5C 499.908,209.257 507.575,214.923 511.5,225.5 Z M 42.5,139.5 C 176.834,139.333 311.167,139.5 445.5,140C 455.676,142.176 461.842,148.342 464,158.5C 464.667,223.167 464.667,287.833 464,352.5C 461.842,362.658 455.676,368.824 445.5,371C 311.167,371.667 176.833,371.667 42.5,371C 32.7432,368.909 26.5765,363.075 24,353.5C 23.3333,288.167 23.3333,222.833 24,157.5C 26.7546,147.911 32.9212,141.911 42.5,139.5 Z"/></g>
<g><path style="opacity:0.986" fill="#ffffff" d="M 45.5,161.5 C 146.833,161.5 248.167,161.5 349.5,161.5C 349.5,224.167 349.5,286.833 349.5,349.5C 248.167,349.5 146.833,349.5 45.5,349.5C 45.5,286.833 45.5,224.167 45.5,161.5 Z"/></g>
</svg>
