<?xml version="1.0" encoding="UTF-8"?>
<!DOCTYPE svg PUBLIC "-//W3C//DTD SVG 1.1//EN" "http://www.w3.org/Graphics/SVG/1.1/DTD/svg11.dtd">
<svg xmlns="http://www.w3.org/2000/svg" version="1.1" width="512px" height="512px" style="shape-rendering:geometricPrecision; text-rendering:geometricPrecision; image-rendering:optimizeQuality; fill-rule:evenodd; clip-rule:evenodd" xmlns:xlink="http://www.w3.org/1999/xlink">
<g><path style="opacity:0.939" fill="#000000" d="M 292.5,18.5 C 297.635,17.4262 301.468,19.0928 304,23.5C 304.667,178.167 304.667,332.833 304,487.5C 300.634,492.609 296.134,493.776 290.5,491C 289.107,489.829 288.273,488.329 288,486.5C 287.333,332.5 287.333,178.5 288,24.5C 288.599,21.7458 290.099,19.7458 292.5,18.5 Z"/></g>
<g><path style="opacity:0.92" fill="#000000" d="M 148.5,127.5 C 154.156,126.243 157.989,128.243 160,133.5C 160.667,145.5 160.667,157.5 160,169.5C 158.877,173.819 156.044,175.819 151.5,175.5C 148.209,175.721 145.709,174.387 144,171.5C 143.333,158.5 143.333,145.5 144,132.5C 145.025,130.313 146.525,128.646 148.5,127.5 Z"/></g>
<g><path style="opacity:0.932" fill="#000000" d="M 361.5,131.5 C 415.848,133.394 454.682,158.728 478,207.5C 495.688,256.048 488.021,300.048 455,339.5C 418.139,376.341 374.973,387.007 325.5,371.5C 323.147,368.251 322.981,364.918 325,361.5C 377.323,326.502 396.656,278.168 383,216.5C 377.774,199.374 369.441,184.041 358,170.5C 349.82,161.783 341.154,153.783 332,146.5C 330.902,142.495 331.735,138.995 334.5,136C 343.454,133.467 352.454,131.967 361.5,131.5 Z M 360.5,149.5 C 405.483,149.605 438.65,169.605 460,209.5C 477.247,250.282 472.581,288.282 446,323.5C 421.761,351.372 391.261,363.872 354.5,361C 397.219,322.172 412.719,274.339 401,217.5C 394.34,190.474 380.84,167.807 360.5,149.5 Z"/></g>
<g><path style="opacity:0.929" fill="#000000" d="M 205.5,197.5 C 205.5,198.167 205.833,198.5 206.5,198.5C 206.5,199.167 206.833,199.5 207.5,199.5C 230.4,224.536 236.233,253.203 225,285.5C 220.89,295.404 215.057,304.071 207.5,311.5C 206.833,311.5 206.5,311.833 206.5,312.5C 205.833,312.5 205.5,312.833 205.5,313.5C 176.057,337.63 144.39,340.797 110.5,323C 106.988,320.743 103.654,318.243 100.5,315.5C 99.8038,318.556 98.9704,321.556 98,324.5C 90.531,332.97 82.6977,341.137 74.5,349C 68.3844,352.043 63.8844,350.543 61,344.5C 60.5162,342.087 60.8495,339.754 62,337.5C 69.8025,328.697 77.9691,320.197 86.5,312C 89.4728,310.493 92.4728,310.16 95.5,311C 81.1582,296.138 73.4915,278.305 72.5,257.5C 71.7071,260.126 70.0405,261.96 67.5,263C 54.1667,263.667 40.8333,263.667 27.5,263C 22.1667,258 22.1667,253 27.5,248C 40.8333,247.333 54.1667,247.333 67.5,248C 70.0405,249.04 71.7071,250.874 72.5,253.5C 73.4915,232.695 81.1582,214.862 95.5,200C 92.4728,200.84 89.4728,200.507 86.5,199C 77.9691,190.803 69.8025,182.303 62,173.5C 59.5063,168.318 60.673,164.151 65.5,161C 68.634,160.21 71.634,160.543 74.5,162C 82.6977,169.863 90.531,178.03 98,186.5C 98.9704,189.444 99.8038,192.444 100.5,195.5C 128.972,173.656 159.305,170.822 191.5,187C 196.375,190.266 201.042,193.766 205.5,197.5 Z M 145.5,193.5 C 176.266,192.793 197.766,206.46 210,234.5C 218.805,265.089 210.305,289.589 184.5,308C 153.628,323.827 126.462,318.994 103,293.5C 85,268.167 85,242.833 103,217.5C 114.226,204.069 128.392,196.069 145.5,193.5 Z"/></g>
<g><path style="opacity:0.905" fill="#000000" d="M 207.5,199.5 C 206.833,199.5 206.5,199.167 206.5,198.5C 205.833,198.5 205.5,198.167 205.5,197.5C 204.01,193.426 204.176,189.426 206,185.5C 214.221,177.279 222.387,169.113 230.5,161C 241.132,159.964 244.632,164.464 241,174.5C 232.802,182.363 224.969,190.53 217.5,199C 214.233,200.82 210.9,200.986 207.5,199.5 Z"/></g>
<g><path style="opacity:0.964" fill="#000000" d="M 235.5,247.5 C 248.837,247.333 262.171,247.5 275.5,248C 277.333,248.5 278.5,249.667 279,251.5C 279.667,254.167 279.667,256.833 279,259.5C 278.5,261.333 277.333,262.5 275.5,263C 262.167,263.667 248.833,263.667 235.5,263C 230.208,257.835 230.208,252.668 235.5,247.5 Z"/></g>
<g><path style="opacity:0.904" fill="#000000" d="M 205.5,313.5 C 206.167,313.5 206.5,313.167 206.5,312.5C 207.167,312.5 207.5,312.167 207.5,311.5C 210.9,310.014 214.233,310.18 217.5,312C 224.969,320.47 232.802,328.637 241,336.5C 244.224,347.943 240.057,352.109 228.5,349C 221.365,340.864 213.865,333.03 206,325.5C 203.346,321.461 203.18,317.461 205.5,313.5 Z"/></g>
<g><path style="opacity:0.92" fill="#000000" d="M 147.5,335.5 C 151.839,334.846 155.673,335.846 159,338.5C 159.333,339.5 159.667,340.5 160,341.5C 160.667,353.5 160.667,365.5 160,377.5C 157.163,383.542 152.663,385.042 146.5,382C 145.299,381.097 144.465,379.931 144,378.5C 143.333,365.5 143.333,352.5 144,339.5C 145.376,338.295 146.542,336.962 147.5,335.5 Z"/></g>
</svg>
