<?xml version="1.0" encoding="UTF-8"?>
<!DOCTYPE svg PUBLIC "-//W3C//DTD SVG 1.1//EN" "http://www.w3.org/Graphics/SVG/1.1/DTD/svg11.dtd">
<svg xmlns="http://www.w3.org/2000/svg" version="1.1" width="512px" height="512px" style="shape-rendering:geometricPrecision; text-rendering:geometricPrecision; image-rendering:optimizeQuality; fill-rule:evenodd; clip-rule:evenodd" xmlns:xlink="http://www.w3.org/1999/xlink">
<g><path style="opacity:0.99" fill="#ffffff" d="M 511.5,95.5 C 511.5,202.167 511.5,308.833 511.5,415.5C 506.46,434.037 494.46,445.204 475.5,449C 453.152,453.119 435.652,445.952 423,427.5C 420.407,422.465 418.741,417.132 418,411.5C 417.333,307.5 417.333,203.5 418,99.5C 421.599,79.2337 433.432,66.7337 453.5,62C 475.628,57.6974 493.128,64.5307 506,82.5C 507.959,86.9044 509.792,91.2378 511.5,95.5 Z"/></g>
<g><path style="opacity:0.988" fill="#ffffff" d="M 313.5,162.5 C 334.962,159.694 351.795,167.027 364,184.5C 366.466,189.232 368.133,194.232 369,199.5C 369.667,270.5 369.667,341.5 369,412.5C 364.951,432.216 353.118,444.383 333.5,449C 308.008,453.503 289.508,444.337 278,421.5C 277.178,419.212 276.511,416.878 276,414.5C 275.333,342.5 275.333,270.5 276,198.5C 280.91,178.42 293.41,166.42 313.5,162.5 Z"/></g>
<g><path style="opacity:0.98" fill="#ffffff" d="M 167.5,235.5 C 189.049,231.289 206.549,237.622 220,254.5C 223.936,260.974 226.269,267.974 227,275.5C 227.965,322.528 227.632,369.528 226,416.5C 220.836,434.665 209.003,445.499 190.5,449C 169.777,452.876 152.944,446.709 140,430.5C 136.064,424.026 133.731,417.026 133,409.5C 132.035,362.472 132.368,315.472 134,268.5C 139.122,251.21 150.289,240.21 167.5,235.5 Z"/></g>
<g><path style="opacity:0.985" fill="#ffffff" d="M -0.5,415.5 C -0.5,384.167 -0.5,352.833 -0.5,321.5C 4.31874,303.849 15.6521,292.682 33.5,288C 54.0417,283.516 71.2084,289.016 85,304.5C 88.137,309.108 90.4703,314.108 92,319.5C 93.1201,335.796 93.6201,352.13 93.5,368.5C 93.3333,382.833 93.1667,397.167 93,411.5C 89.4011,431.766 77.5678,444.266 57.5,449C 28.6788,453.444 9.34544,442.278 -0.5,415.5 Z"/></g>
</svg>
