<?xml version="1.0" encoding="UTF-8"?>
<!DOCTYPE svg PUBLIC "-//W3C//DTD SVG 1.1//EN" "http://www.w3.org/Graphics/SVG/1.1/DTD/svg11.dtd">
<svg xmlns="http://www.w3.org/2000/svg" version="1.1" width="512px" height="512px" style="shape-rendering:geometricPrecision; text-rendering:geometricPrecision; image-rendering:optimizeQuality; fill-rule:evenodd; clip-rule:evenodd" xmlns:xlink="http://www.w3.org/1999/xlink">
<g><path style="opacity:0.962" fill="#ffffff" d="M 146.5,43.5 C 219.167,43.3333 291.834,43.5 364.5,44C 381.103,48.2694 391.269,58.7694 395,75.5C 395.667,195.5 395.667,315.5 395,435.5C 391.269,452.231 381.103,462.731 364.5,467C 291.833,467.667 219.167,467.667 146.5,467C 129.888,462.722 119.722,452.222 116,435.5C 115.333,315.5 115.333,195.5 116,75.5C 119.906,58.7631 130.072,48.0964 146.5,43.5 Z M 151.5,70.5 C 220.834,70.3333 290.167,70.5 359.5,71C 363.667,72.5 366.5,75.3333 368,79.5C 368.5,170.833 368.667,262.166 368.5,353.5C 293.167,353.5 217.833,353.5 142.5,353.5C 142.333,262.166 142.5,170.833 143,79.5C 144.688,75.3148 147.521,72.3148 151.5,70.5 Z M 142.5,381.5 C 217.833,381.5 293.167,381.5 368.5,381.5C 368.667,398.17 368.5,414.837 368,431.5C 366.5,435.667 363.667,438.5 359.5,440C 290.167,440.667 220.833,440.667 151.5,440C 147.333,438.5 144.5,435.667 143,431.5C 142.5,414.837 142.333,398.17 142.5,381.5 Z"/></g>
<g><path style="opacity:0.953" fill="#ffffff" d="M -0.5,278.5 C -0.5,267.167 -0.5,255.833 -0.5,244.5C 3.65475,213.206 15.1547,184.873 34,159.5C 36.8688,156.296 40.0354,153.463 43.5,151C 59.3806,149.544 64.8806,156.377 60,171.5C 27.8891,210.632 18.8891,254.632 33,303.5C 39.2502,322.011 48.5836,338.678 61,353.5C 61.6104,369.287 54.4438,374.453 39.5,369C 17.1611,342.818 3.82774,312.651 -0.5,278.5 Z"/></g>
<g><path style="opacity:0.953" fill="#ffffff" d="M 511.5,243.5 C 511.5,254.833 511.5,266.167 511.5,277.5C 507.382,309.354 495.549,338.021 476,363.5C 469.185,372.433 461.185,373.766 452,367.5C 447.343,361.205 447.343,354.872 452,348.5C 482.634,310.942 491.634,268.609 479,221.5C 472.712,201.905 463.045,184.239 450,168.5C 448.521,155.313 454.354,149.479 467.5,151C 472.619,153.785 476.786,157.618 480,162.5C 497.214,186.922 507.714,213.922 511.5,243.5 Z"/></g>
<g><path style="opacity:0.949" fill="#ffffff" d="M 82.5,184.5 C 95.7439,186.653 99.9106,193.986 95,206.5C 74.573,232.63 69.9064,261.297 81,292.5C 84.9757,301.788 89.9757,310.455 96,318.5C 98.2401,329.077 94.0734,335.077 83.5,336.5C 78.8904,336.612 75.0571,334.945 72,331.5C 43.3246,290.725 40.3246,248.058 63,203.5C 66.3333,198.833 69.6667,194.167 73,189.5C 75.9074,187.132 79.0741,185.465 82.5,184.5 Z"/></g>
<g><path style="opacity:0.95" fill="#ffffff" d="M 426.5,184.5 C 432.688,184.678 437.521,187.345 441,192.5C 470.992,237.878 470.992,283.212 441,328.5C 435.061,336.752 427.561,338.585 418.5,334C 413.254,328.435 412.421,322.268 416,315.5C 443.001,278.062 442.668,240.728 415,203.5C 412.775,193.257 416.608,186.924 426.5,184.5 Z"/></g>
<g><path style="opacity:0.94" fill="#ffffff" d="M 237.5,397.5 C 250.574,397.057 263.574,397.557 276.5,399C 284.96,405.91 285.627,413.576 278.5,422C 277.167,422.667 275.833,423.333 274.5,424C 261.833,424.667 249.167,424.667 236.5,424C 230.541,421.758 227.541,417.424 227.5,411C 228.077,404.305 231.411,399.805 237.5,397.5 Z"/></g>
</svg>
