<?xml version="1.0" encoding="UTF-8"?>
<!DOCTYPE svg PUBLIC "-//W3C//DTD SVG 1.1//EN" "http://www.w3.org/Graphics/SVG/1.1/DTD/svg11.dtd">
<svg xmlns="http://www.w3.org/2000/svg" version="1.1" width="512px" height="512px" style="shape-rendering:geometricPrecision; text-rendering:geometricPrecision; image-rendering:optimizeQuality; fill-rule:evenodd; clip-rule:evenodd" xmlns:xlink="http://www.w3.org/1999/xlink">
<g><path style="opacity:0.997" fill="#fe5876" d="M 232.5,-0.5 C 247.833,-0.5 263.167,-0.5 278.5,-0.5C 368.887,10.7557 436.721,55.7557 482,134.5C 498.057,165.419 507.891,198.086 511.5,232.5C 511.5,239.167 511.5,245.833 511.5,252.5C 501.217,353.607 450.551,426.44 359.5,471C 269.528,507.311 184.528,498.311 104.5,444C 41.7057,395.591 6.70573,331.757 -0.5,252.5C -0.5,245.833 -0.5,239.167 -0.5,232.5C 10.3879,142.856 54.7213,75.3562 132.5,30C 163.971,13.3053 197.304,3.1386 232.5,-0.5 Z"/></g>
<g><path style="opacity:1" fill="#e3edf8" d="M 468.5,241.5 C 465.541,315.938 433.541,374.104 372.5,416C 337.026,438.888 298.36,450.054 256.5,449.5C 260.106,449.061 262.272,447.061 263,443.5C 263.667,434.167 263.667,424.833 263,415.5C 260.459,410.931 256.625,409.431 251.5,411C 249.951,412.214 248.785,413.714 248,415.5C 247.333,425.167 247.333,434.833 248,444.5C 249.159,447.493 251.325,449.16 254.5,449.5C 181.908,448.621 124.075,418.954 81,360.5C 56.4494,325.015 43.6161,285.681 42.5,242.5C 48.7988,170.038 82.1322,113.871 142.5,74C 201.792,38.955 264.125,32.6217 329.5,55C 398.171,82.676 442.671,132.176 463,203.5C 466.243,215.961 468.077,228.627 468.5,241.5 Z"/></g>
<g><path style="opacity:1" fill="#455f70" d="M 252.5,61.5 C 257.28,60.6409 260.78,62.3075 263,66.5C 263.667,76.1667 263.667,85.8333 263,95.5C 260.459,100.069 256.625,101.569 251.5,100C 249.951,98.786 248.785,97.286 248,95.5C 247.333,85.8333 247.333,76.1667 248,66.5C 249.025,64.313 250.525,62.6464 252.5,61.5 Z"/></g>
<g><path style="opacity:1" fill="#415c6d" d="M 233.5,219.5 C 224.595,224.939 218.261,232.606 214.5,242.5C 185.26,217.435 156.427,191.768 128,165.5C 123.043,154.905 125.876,147.072 136.5,142C 141.039,141.268 145.372,141.934 149.5,144C 177.993,168.662 205.993,193.829 233.5,219.5 Z"/></g>
<g><path style="opacity:1" fill="#415c6c" d="M 295.5,240.5 C 291.964,232.26 286.631,225.427 279.5,220C 277.975,218.991 276.308,218.491 274.5,218.5C 287.686,204.814 301.019,191.314 314.5,178C 322.352,175.032 329.185,176.532 335,182.5C 338.265,188.472 338.265,194.472 335,200.5C 321.604,213.728 308.438,227.062 295.5,240.5 Z"/></g>
<g><path style="opacity:1" fill="#304557" d="M 274.5,218.5 C 276.308,218.491 277.975,218.991 279.5,220C 286.631,225.427 291.964,232.26 295.5,240.5C 291.167,245.5 286.5,250.167 281.5,254.5C 281.932,251.123 281.265,248.123 279.5,245.5C 276.401,237.4 270.735,232.067 262.5,229.5C 266.5,225.833 270.5,222.167 274.5,218.5 Z"/></g>
<g><path style="opacity:1" fill="#304557" d="M 233.5,219.5 C 238.126,222.458 242.126,226.124 245.5,230.5C 238.779,233.555 234.112,238.555 231.5,245.5C 230.778,245.918 230.278,246.584 230,247.5C 229.502,250.482 229.335,253.482 229.5,256.5C 223.887,252.52 218.887,247.854 214.5,242.5C 218.261,232.606 224.595,224.939 233.5,219.5 Z"/></g>
<g><path style="opacity:1" fill="#fd5775" d="M 262.5,229.5 C 270.735,232.067 276.401,237.4 279.5,245.5C 277.13,253.706 271.796,259.206 263.5,262C 251.556,265.463 241.723,262.297 234,252.5C 232.589,250.35 231.755,248.016 231.5,245.5C 234.112,238.555 238.779,233.555 245.5,230.5C 251.121,229.646 256.788,229.313 262.5,229.5 Z"/></g>
<g><path style="opacity:1" fill="#d5def0" d="M 468.5,241.5 C 471.325,319.232 441.992,381.732 380.5,429C 315.752,472.602 246.752,480.602 173.5,453C 89.8612,413.795 45.8612,347.795 41.5,255C 41.501,250.653 41.8343,246.486 42.5,242.5C 43.6161,285.681 56.4494,325.015 81,360.5C 124.075,418.954 181.908,448.621 254.5,449.5C 255.167,449.5 255.833,449.5 256.5,449.5C 298.36,450.054 337.026,438.888 372.5,416C 433.541,374.104 465.541,315.938 468.5,241.5 Z"/></g>
<g><path style="opacity:1" fill="#455f70" d="M 415.5,247.5 C 425.172,247.334 434.839,247.5 444.5,248C 448.861,250.226 450.361,253.726 449,258.5C 448.167,260.667 446.667,262.167 444.5,263C 434.833,263.667 425.167,263.667 415.5,263C 410.931,260.459 409.431,256.625 411,251.5C 412.397,249.93 413.897,248.596 415.5,247.5 Z"/></g>
<g><path style="opacity:1" fill="#e5495e" d="M 231.5,245.5 C 231.755,248.016 232.589,250.35 234,252.5C 241.723,262.297 251.556,265.463 263.5,262C 271.796,259.206 277.13,253.706 279.5,245.5C 281.265,248.123 281.932,251.123 281.5,254.5C 281.666,258.674 281,262.674 279.5,266.5C 277.574,271.088 274.574,274.755 270.5,277.5C 255.676,285.086 243.176,282.419 233,269.5C 230.74,265.46 229.573,261.127 229.5,256.5C 229.335,253.482 229.502,250.482 230,247.5C 230.278,246.584 230.778,245.918 231.5,245.5 Z"/></g>
<g><path style="opacity:1" fill="#455f70" d="M 66.5,247.5 C 76.1724,247.334 85.8391,247.5 95.5,248C 100.143,250.072 101.643,253.572 100,258.5C 99.1667,260.667 97.6667,262.167 95.5,263C 85.8333,263.667 76.1667,263.667 66.5,263C 61.4648,259.987 60.2981,255.82 63,250.5C 64.1451,249.364 65.3117,248.364 66.5,247.5 Z"/></g>
<g><path style="opacity:0.981" fill="#e6485d" d="M -0.5,252.5 C 6.70573,331.757 41.7057,395.591 104.5,444C 184.528,498.311 269.528,507.311 359.5,471C 450.551,426.44 501.217,353.607 511.5,252.5C 511.5,261.167 511.5,269.833 511.5,278.5C 500.612,368.144 456.279,435.644 378.5,481C 347.029,497.695 313.696,507.861 278.5,511.5C 263.167,511.5 247.833,511.5 232.5,511.5C 142.856,500.612 75.3562,456.279 30,378.5C 13.3053,347.029 3.1386,313.696 -0.5,278.5C -0.5,269.833 -0.5,261.167 -0.5,252.5 Z"/></g>
<g><path style="opacity:1" fill="#88dcfe" d="M 279.5,266.5 C 310.733,291.555 341.566,317.222 372,343.5C 373.495,353.009 369.661,356.509 360.5,354C 330.309,328.635 300.309,303.135 270.5,277.5C 274.574,274.755 277.574,271.088 279.5,266.5 Z"/></g>
<g><path style="opacity:1" fill="#455f70" d="M 256.5,449.5 C 255.833,449.5 255.167,449.5 254.5,449.5C 251.325,449.16 249.159,447.493 248,444.5C 247.333,434.833 247.333,425.167 248,415.5C 248.785,413.714 249.951,412.214 251.5,411C 256.625,409.431 260.459,410.931 263,415.5C 263.667,424.833 263.667,434.167 263,443.5C 262.272,447.061 260.106,449.061 256.5,449.5 Z"/></g>
</svg>
