<?xml version="1.0" encoding="UTF-8"?>
<!DOCTYPE svg PUBLIC "-//W3C//DTD SVG 1.1//EN" "http://www.w3.org/Graphics/SVG/1.1/DTD/svg11.dtd">
<svg xmlns="http://www.w3.org/2000/svg" version="1.1" width="512px" height="512px" style="shape-rendering:geometricPrecision; text-rendering:geometricPrecision; image-rendering:optimizeQuality; fill-rule:evenodd; clip-rule:evenodd" xmlns:xlink="http://www.w3.org/1999/xlink">
<g><path style="opacity:1" fill="#d4e6f6" d="M 20.5,7.5 C 177.167,7.33333 333.834,7.5 490.5,8C 496.667,10.1667 500.833,14.3333 503,20.5C 503.667,177.167 503.667,333.833 503,490.5C 500.833,496.667 496.667,500.833 490.5,503C 333.833,503.667 177.167,503.667 20.5,503C 14.3333,500.833 10.1667,496.667 8,490.5C 7.33333,333.833 7.33333,177.167 8,20.5C 10.3531,14.3154 14.5198,9.98203 20.5,7.5 Z"/></g>
<g><path style="opacity:1" fill="#cd4d61" d="M 169.5,39.5 C 169.5,77.5 169.5,115.5 169.5,153.5C 226.833,153.5 284.167,153.5 341.5,153.5C 341.5,115.5 341.5,77.5 341.5,39.5C 344.693,33.0896 349.359,31.9229 355.5,36C 356.582,37.3297 357.249,38.8297 357.5,40.5C 357.5,78.1667 357.5,115.833 357.5,153.5C 395.167,153.5 432.833,153.5 470.5,153.5C 477.147,155.681 478.98,160.015 476,166.5C 474.512,168.16 472.679,169.16 470.5,169.5C 432.833,169.5 395.167,169.5 357.5,169.5C 357.5,226.833 357.5,284.167 357.5,341.5C 395.167,341.5 432.833,341.5 470.5,341.5C 477.805,344.142 479.305,348.809 475,355.5C 473.67,356.582 472.17,357.249 470.5,357.5C 432.833,357.5 395.167,357.5 357.5,357.5C 357.5,395.167 357.5,432.833 357.5,470.5C 356.432,474.806 353.598,477.139 349,477.5C 344.715,477.048 342.215,474.715 341.5,470.5C 341.5,432.833 341.5,395.167 341.5,357.5C 284.167,357.5 226.833,357.5 169.5,357.5C 169.5,395.167 169.5,432.833 169.5,470.5C 168.661,475.167 165.828,477.5 161,477.5C 156.868,476.86 154.368,474.527 153.5,470.5C 153.5,432.833 153.5,395.167 153.5,357.5C 115.833,357.5 78.1667,357.5 40.5,357.5C 36.1939,356.432 33.8606,353.598 33.5,349C 33.8791,345.128 35.8791,342.628 39.5,341.5C 77.5,341.5 115.5,341.5 153.5,341.5C 153.5,284.167 153.5,226.833 153.5,169.5C 115.5,169.5 77.5,169.5 39.5,169.5C 33.1173,166.233 31.9507,161.566 36,155.5C 37.3297,154.418 38.8297,153.751 40.5,153.5C 78.1667,153.5 115.833,153.5 153.5,153.5C 153.5,115.833 153.5,78.1667 153.5,40.5C 155.696,33.8314 160.029,31.9981 166.5,35C 168.141,36.129 169.141,37.629 169.5,39.5 Z"/></g>
<g><path style="opacity:1" fill="#77414c" d="M 47.5,42.5 C 51.1309,42.1604 54.4642,42.9937 57.5,45C 66.6667,54.1667 75.8333,63.3333 85,72.5C 94.5,63 104,53.5 113.5,44C 124.487,40.6574 128.654,44.4907 126,55.5C 116.319,65.0141 106.819,74.6808 97.5,84.5C 107.516,94.682 117.349,105.015 127,115.5C 127.123,126.352 122.289,129.518 112.5,125C 103.319,115.652 93.9858,106.486 84.5,97.5C 74.6808,106.819 65.0141,116.319 55.5,126C 44.4907,128.654 40.6574,124.487 44,113.5C 53.681,103.986 63.181,94.3192 72.5,84.5C 63.1808,75.6811 54.0142,66.6811 45,57.5C 41.1021,51.5506 41.9355,46.5506 47.5,42.5 Z"/></g>
<g><path style="opacity:1" fill="#cd4d61" d="M 400.5,50.5 C 410.887,49.7955 419.387,53.4622 426,61.5C 440.146,46.5528 453.813,46.8862 467,62.5C 469.55,70.3483 468.55,77.6816 464,84.5C 452.167,95.6667 440.333,106.833 428.5,118C 427.167,118.667 425.833,118.667 424.5,118C 412,106.167 399.5,94.3333 387,82.5C 380.216,67.0687 384.716,56.402 400.5,50.5 Z"/></g>
<g><path style="opacity:1" fill="#d2a9ba" d="M 153.5,40.5 C 153.5,78.1667 153.5,115.833 153.5,153.5C 115.833,153.5 78.1667,153.5 40.5,153.5C 77.6629,152.502 114.996,152.168 152.5,152.5C 152.168,114.996 152.502,77.6629 153.5,40.5 Z"/></g>
<g><path style="opacity:1" fill="#d197a8" d="M 169.5,39.5 C 170.498,76.9963 170.832,114.663 170.5,152.5C 227.167,152.5 283.833,152.5 340.5,152.5C 340.168,114.663 340.502,76.9963 341.5,39.5C 341.5,77.5 341.5,115.5 341.5,153.5C 284.167,153.5 226.833,153.5 169.5,153.5C 169.5,115.5 169.5,77.5 169.5,39.5 Z"/></g>
<g><path style="opacity:1" fill="#763f4a" d="M 217.5,42.5 C 220.649,42.2114 223.649,42.7114 226.5,44C 236.014,53.681 245.681,63.181 255.5,72.5C 265.653,62.8477 275.653,53.0143 285.5,43C 292.393,41.0593 296.726,43.5593 298.5,50.5C 297.946,52.6096 297.112,54.6096 296,56.5C 286.5,66 277,75.5 267.5,85C 277.333,94.8333 287.167,104.667 297,114.5C 298.792,125.046 294.625,128.879 284.5,126C 274.986,116.319 265.319,106.819 255.5,97.5C 245.681,106.819 236.014,116.319 226.5,126C 218.939,129.437 214.273,127.104 212.5,119C 212.625,117.373 213.125,115.873 214,114.5C 223.833,104.667 233.667,94.8333 243.5,85C 234,75.5 224.5,66 215,56.5C 212.418,51.1198 213.251,46.4531 217.5,42.5 Z"/></g>
<g><path style="opacity:1" fill="#d2a9ba" d="M 357.5,40.5 C 358.498,77.6629 358.832,114.996 358.5,152.5C 396.004,152.168 433.337,152.502 470.5,153.5C 432.833,153.5 395.167,153.5 357.5,153.5C 357.5,115.833 357.5,78.1667 357.5,40.5 Z"/></g>
<g><path style="opacity:1" fill="#d197a8" d="M 39.5,169.5 C 77.5,169.5 115.5,169.5 153.5,169.5C 153.5,226.833 153.5,284.167 153.5,341.5C 115.5,341.5 77.5,341.5 39.5,341.5C 76.9963,340.502 114.663,340.168 152.5,340.5C 152.5,283.833 152.5,227.167 152.5,170.5C 114.663,170.832 76.9963,170.498 39.5,169.5 Z"/></g>
<g><path style="opacity:1" fill="#d5e6f6" d="M 170.5,170.5 C 227.167,170.5 283.833,170.5 340.5,170.5C 340.5,227.167 340.5,283.833 340.5,340.5C 283.833,340.5 227.167,340.5 170.5,340.5C 170.5,283.833 170.5,227.167 170.5,170.5 Z"/></g>
<g><path style="opacity:1" fill="#d196a8" d="M 470.5,169.5 C 433.337,170.498 396.004,170.832 358.5,170.5C 358.5,227.167 358.5,283.833 358.5,340.5C 396.004,340.168 433.337,340.502 470.5,341.5C 432.833,341.5 395.167,341.5 357.5,341.5C 357.5,284.167 357.5,226.833 357.5,169.5C 395.167,169.5 432.833,169.5 470.5,169.5 Z"/></g>
<g><path style="opacity:1" fill="#763f4a" d="M 388.5,213.5 C 391.187,213.336 393.854,213.503 396.5,214C 406.333,223.833 416.167,233.667 426,243.5C 435.5,234 445,224.5 454.5,215C 459.729,212.379 464.229,213.212 468,217.5C 468.79,220.634 468.457,223.634 467,226.5C 457.319,236.014 447.819,245.681 438.5,255.5C 448.152,265.653 457.986,275.653 468,285.5C 469.036,296.132 464.536,299.632 454.5,296C 445,286.5 435.5,277 426,267.5C 416.167,277.333 406.333,287.167 396.5,297C 389.248,299.705 384.915,297.205 383.5,289.5C 383.577,287.701 384.077,286.034 385,284.5C 394.681,274.986 404.181,265.319 413.5,255.5C 404.181,245.681 394.681,236.014 385,226.5C 382.325,221.011 383.492,216.678 388.5,213.5 Z"/></g>
<g><path style="opacity:1" fill="#cd4d60" d="M 57.5,221.5 C 62.5805,221.25 67.5805,221.75 72.5,223C 77.225,225.066 81.3917,227.9 85,231.5C 88.1556,229.014 91.3223,226.514 94.5,224C 105.95,219.046 115.784,221.213 124,230.5C 128.247,237.305 128.58,244.305 125,251.5C 112.524,264.308 99.6911,276.808 86.5,289C 85.5,289.667 84.5,289.667 83.5,289C 71,277.167 58.5,265.333 46,253.5C 38.8664,238.784 42.6998,228.118 57.5,221.5 Z"/></g>
<g><path style="opacity:1" fill="#cd4d61" d="M 228.5,221.5 C 239.291,220.096 248.291,223.429 255.5,231.5C 265.69,220.4 277.357,218.566 290.5,226C 301.199,237.186 300.866,248.186 289.5,259C 278.355,269.401 267.022,279.568 255.5,289.5C 243.311,278.901 231.311,268.067 219.5,257C 208.273,241.521 211.273,229.687 228.5,221.5 Z"/></g>
<g><path style="opacity:1" fill="#d2a9ba" d="M 40.5,357.5 C 78.1667,357.5 115.833,357.5 153.5,357.5C 153.5,395.167 153.5,432.833 153.5,470.5C 152.502,433.337 152.168,396.004 152.5,358.5C 114.996,358.832 77.6629,358.498 40.5,357.5 Z"/></g>
<g><path style="opacity:1" fill="#d18c9d" d="M 341.5,470.5 C 340.502,433.337 340.168,396.004 340.5,358.5C 283.833,358.5 227.167,358.5 170.5,358.5C 170.832,396.004 170.498,433.337 169.5,470.5C 169.5,432.833 169.5,395.167 169.5,357.5C 226.833,357.5 284.167,357.5 341.5,357.5C 341.5,395.167 341.5,432.833 341.5,470.5 Z"/></g>
<g><path style="opacity:1" fill="#d2a9ba" d="M 470.5,357.5 C 433.337,358.498 396.004,358.832 358.5,358.5C 358.832,396.004 358.498,433.337 357.5,470.5C 357.5,432.833 357.5,395.167 357.5,357.5C 395.167,357.5 432.833,357.5 470.5,357.5 Z"/></g>
<g><path style="opacity:1" fill="#763f4a" d="M 388.5,375.5 C 391.649,375.211 394.649,375.711 397.5,377C 407,386.5 416.5,396 426,405.5C 435.5,396 445,386.5 454.5,377C 459.729,374.379 464.229,375.212 468,379.5C 468.79,382.634 468.457,385.634 467,388.5C 457.319,398.014 447.819,407.681 438.5,417.5C 447.819,427.319 457.319,436.986 467,446.5C 470,453.834 467.666,458.501 460,460.5C 458.373,460.375 456.873,459.875 455.5,459C 445.958,449.124 436.125,439.624 426,430.5C 415.875,439.624 406.042,449.124 396.5,459C 389.203,461.897 384.87,459.397 383.5,451.5C 383.577,449.701 384.077,448.034 385,446.5C 394.681,436.986 404.181,427.319 413.5,417.5C 404.181,407.681 394.681,398.014 385,388.5C 382.348,383.039 383.514,378.706 388.5,375.5 Z"/></g>
<g><path style="opacity:1" fill="#77414c" d="M 47.5,383.5 C 50.3198,383.248 52.9865,383.748 55.5,385C 65.0416,394.876 74.8749,404.376 85,413.5C 94.8413,403.325 105.008,393.492 115.5,384C 126.372,383.863 129.538,388.697 125,398.5C 115.652,407.681 106.486,417.014 97.5,426.5C 106.819,436.319 116.319,445.986 126,455.5C 128.636,462.563 126.303,466.896 119,468.5C 117.033,468.458 115.199,467.958 113.5,467C 104,457.5 94.5,448 85,438.5C 75.1372,448.697 64.9706,458.53 54.5,468C 42.9306,468.756 39.7639,463.923 45,453.5C 54.1667,444.333 63.3333,435.167 72.5,426C 63,416.5 53.5,407 44,397.5C 41.2645,391.767 42.4311,387.1 47.5,383.5 Z"/></g>
<g><path style="opacity:1" fill="#cd4d61" d="M 227.5,392.5 C 238.686,390.893 248.019,394.227 255.5,402.5C 265.155,391.817 276.488,389.65 289.5,396C 298.234,402.864 300.401,411.364 296,421.5C 290.532,427.969 284.699,434.136 278.5,440C 270.982,447.019 263.315,453.852 255.5,460.5C 247.017,453.185 238.684,445.685 230.5,438C 224.967,432.802 219.8,427.302 215,421.5C 210.374,408.081 214.541,398.415 227.5,392.5 Z"/></g>
</svg>
