<?xml version="1.0" encoding="UTF-8"?>
<!DOCTYPE svg PUBLIC "-//W3C//DTD SVG 1.1//EN" "http://www.w3.org/Graphics/SVG/1.1/DTD/svg11.dtd">
<svg xmlns="http://www.w3.org/2000/svg" version="1.1" width="700px" height="700px" style="shape-rendering:geometricPrecision; text-rendering:geometricPrecision; image-rendering:optimizeQuality; fill-rule:evenodd; clip-rule:evenodd" xmlns:xlink="http://www.w3.org/1999/xlink">
<g><path style="opacity:1" fill="#fa8eab" d="M -0.5,-0.5 C 232.833,-0.5 466.167,-0.5 699.5,-0.5C 699.5,232.833 699.5,466.167 699.5,699.5C 466.167,699.5 232.833,699.5 -0.5,699.5C -0.5,466.167 -0.5,232.833 -0.5,-0.5 Z"/></g>
<g><path style="opacity:1" fill="#efa5ba" d="M 324.5,76.5 C 341.995,75.3381 359.662,75.1714 377.5,76C 380.051,76.0023 382.051,76.8356 383.5,78.5C 381.146,78.162 378.813,77.662 376.5,77C 359.17,76.5001 341.837,76.3334 324.5,76.5 Z"/></g>
<g><path style="opacity:1" fill="#fdfdfd" d="M 324.5,76.5 C 341.837,76.3334 359.17,76.5001 376.5,77C 378.813,77.662 381.146,78.162 383.5,78.5C 385.223,80.2181 387.223,81.5514 389.5,82.5C 392.553,85.3904 395.053,88.7238 397,92.5C 397.671,93.2524 398.504,93.5858 399.5,93.5C 399.5,96.5 399.5,99.5 399.5,102.5C 399.5,110.833 399.5,119.167 399.5,127.5C 400.833,127.5 402.167,127.5 403.5,127.5C 408.357,129.116 413.357,130.116 418.5,130.5C 418.5,129.5 418.5,128.5 418.5,127.5C 421.839,124.165 424.172,120.165 425.5,115.5C 428.165,112.485 430.498,109.151 432.5,105.5C 435.184,103.807 437.851,102.14 440.5,100.5C 448.046,98.177 455.713,97.8437 463.5,99.5C 463.369,100.376 463.702,101.043 464.5,101.5C 469.877,104.8 475.544,107.633 481.5,110C 491.107,116.632 501.107,122.465 511.5,127.5C 516.565,135.031 519.232,143.364 519.5,152.5C 518.388,154.599 517.721,156.933 517.5,159.5C 515.25,162.999 513.25,166.665 511.5,170.5C 509.06,173.865 506.727,177.365 504.5,181C 505.65,183.316 507.317,185.15 509.5,186.5C 511.309,189.139 513.642,191.306 516.5,193C 518.689,193.322 520.689,192.822 522.5,191.5C 529.319,187.314 536.319,183.648 543.5,180.5C 555.1,177.812 564.767,181.146 572.5,190.5C 573.325,191.386 574.325,191.719 575.5,191.5C 575.5,192.5 575.5,193.5 575.5,194.5C 578.666,200.837 582.333,206.837 586.5,212.5C 587.11,213.391 587.443,214.391 587.5,215.5C 588.08,217.749 589.413,219.415 591.5,220.5C 594.268,227.032 597.268,233.365 600.5,239.5C 600.789,245.245 600.289,250.912 599,256.5C 596.741,260.691 594.241,264.691 591.5,268.5C 585.835,270.997 580.502,273.997 575.5,277.5C 567.847,277.357 565.347,281.023 568,288.5C 569.864,292.263 571.031,296.263 571.5,300.5C 583.681,300.06 595.681,300.727 607.5,302.5C 614.336,306.34 619.002,312.006 621.5,319.5C 621.773,339.856 621.44,360.189 620.5,380.5C 616.812,391.511 609.145,397.845 597.5,399.5C 588.915,399.183 580.415,399.517 572,400.5C 570.675,405.465 569.509,410.465 568.5,415.5C 568.833,416.5 569.167,417.5 569.5,418.5C 573.635,421.326 577.969,423.659 582.5,425.5C 591.843,430.169 597.843,437.502 600.5,447.5C 600.691,452.899 600.191,458.233 599,463.5C 595.971,467.562 593.471,471.895 591.5,476.5C 588.018,481.454 585.018,486.787 582.5,492.5C 580.195,496.432 577.862,500.432 575.5,504.5C 575.5,504.833 575.5,505.167 575.5,505.5C 572.782,508.545 570.116,511.545 567.5,514.5C 566.508,514.328 565.842,514.662 565.5,515.5C 558.59,518.913 551.256,520.247 543.5,519.5C 535.636,515.188 527.636,510.855 519.5,506.5C 518.399,505.402 517.066,505.235 515.5,506C 514.301,507.694 512.968,509.194 511.5,510.5C 511.5,511.167 511.167,511.5 510.5,511.5C 506.65,513.248 505.317,515.915 506.5,519.5C 510.863,527.564 515.196,535.564 519.5,543.5C 519.794,550.4 518.794,557.067 516.5,563.5C 515.476,565.512 513.976,567.178 512,568.5C 511.517,569.448 511.351,570.448 511.5,571.5C 508.802,571.845 506.802,573.178 505.5,575.5C 499.511,577.491 494.177,580.491 489.5,584.5C 484.88,586.489 480.547,588.823 476.5,591.5C 474.287,592.773 471.954,593.773 469.5,594.5C 466.451,595.357 463.451,595.357 460.5,594.5C 460.36,595.764 460.36,596.931 460.5,598C 457.793,599.057 454.96,599.557 452,599.5C 447.441,598.541 442.941,597.374 438.5,596C 437.853,594.391 437.02,592.891 436,591.5C 435.329,592.252 434.496,592.586 433.5,592.5C 432.508,592.672 431.842,592.338 431.5,591.5C 429.819,588.797 428.153,586.131 426.5,583.5C 424.828,580.787 423.162,578.12 421.5,575.5C 419.323,568.329 414.989,566.662 408.5,570.5C 405.572,570.565 402.905,571.232 400.5,572.5C 399.67,581.991 399.17,591.658 399,601.5C 395.388,613.223 387.555,620.223 375.5,622.5C 357.497,622.667 339.497,622.5 321.5,622C 318.637,620.601 315.637,619.601 312.5,619C 310.323,616.656 307.99,614.489 305.5,612.5C 304.309,610.673 302.975,609.007 301.5,607.5C 299.67,595.936 299.003,584.27 299.5,572.5C 294.13,571.378 288.797,570.045 283.5,568.5C 280.147,569.512 278.481,571.845 278.5,575.5C 273.895,579.893 270.561,585.227 268.5,591.5C 264.329,594.419 259.996,597.086 255.5,599.5C 250.228,600.4 244.895,600.733 239.5,600.5C 233.052,597.777 226.719,594.777 220.5,591.5C 219.71,590.206 218.71,589.039 217.5,588C 212.055,585.443 206.721,582.61 201.5,579.5C 199.257,578.916 197.257,577.75 195.5,576C 194.207,575.51 192.873,575.343 191.5,575.5C 187.487,570.473 183.821,565.14 180.5,559.5C 180.5,557.5 180.5,555.5 180.5,553.5C 180.777,546.037 183.277,539.37 188,533.5C 188.688,529.932 189.855,526.599 191.5,523.5C 191.585,521.071 192.585,519.071 194.5,517.5C 192.457,514.457 189.79,512.124 186.5,510.5C 185.833,509.167 184.833,508.167 183.5,507.5C 183.278,504.924 181.945,504.09 179.5,505C 171.966,511.047 163.632,515.547 154.5,518.5C 148.839,518.093 143.172,517.76 137.5,517.5C 134.175,515.503 130.841,513.503 127.5,511.5C 126.331,508.489 124.664,505.822 122.5,503.5C 121.328,499.342 119.328,495.675 116.5,492.5C 112.756,486.013 109.256,479.347 106,472.5C 103.918,469.362 101.751,466.362 99.5,463.5C 98.8058,458.195 98.4724,452.862 98.5,447.5C 99.2205,443.311 100.887,439.645 103.5,436.5C 105.25,435.341 106.25,433.674 106.5,431.5C 109.444,430.212 112.11,428.546 114.5,426.5C 119.648,423.425 124.981,420.591 130.5,418C 131.341,416.004 131.008,414.171 129.5,412.5C 128.269,408.382 127.269,404.215 126.5,400C 116.172,399.5 105.839,399.334 95.5,399.5C 94.5134,396.914 92.5134,395.581 89.5,395.5C 89.1667,395.5 88.8333,395.5 88.5,395.5C 86.8333,393.167 84.8333,391.167 82.5,389.5C 80.6833,387.988 79.6833,385.988 79.5,383.5C 79.5793,380.729 79.0793,378.063 78,375.5C 77.5001,356.836 77.3334,338.17 77.5,319.5C 78.1667,317.5 78.8333,315.5 79.5,313.5C 83.6284,307.366 88.9617,302.7 95.5,299.5C 106.167,299.5 116.833,299.5 127.5,299.5C 127.5,298.5 127.5,297.5 127.5,296.5C 127.5,296.167 127.5,295.833 127.5,295.5C 130.489,293.99 132.156,291.49 132.5,288C 131.718,285.26 131.218,282.426 131,279.5C 129.301,278.594 127.467,278.261 125.5,278.5C 121.497,276.162 117.497,273.829 113.5,271.5C 111.833,270.833 110.167,270.167 108.5,269.5C 105.934,266.711 103.6,263.711 101.5,260.5C 98.762,253.753 97.9287,246.753 99,239.5C 101.208,236.467 102.708,233.134 103.5,229.5C 104.833,226.833 106.167,224.167 107.5,221.5C 109.367,220.24 110.7,218.573 111.5,216.5C 112.833,213.5 114.167,210.5 115.5,207.5C 117.73,206.225 119.063,204.225 119.5,201.5C 122.889,197.639 125.556,193.306 127.5,188.5C 130.55,185.652 133.884,183.318 137.5,181.5C 144.767,179.087 152.101,179.087 159.5,181.5C 161.42,182.065 163.087,183.065 164.5,184.5C 166.033,186.245 168.033,187.245 170.5,187.5C 173.235,189.05 175.902,190.883 178.5,193C 180.674,193.877 182.341,193.377 183.5,191.5C 186.147,189.189 188.814,186.856 191.5,184.5C 191.5,184.167 191.5,183.833 191.5,183.5C 192.995,183.585 193.995,182.919 194.5,181.5C 193.965,179.739 192.965,178.406 191.5,177.5C 191.672,176.508 191.338,175.842 190.5,175.5C 190.25,173.326 189.25,171.659 187.5,170.5C 187.06,166.748 185.393,163.748 182.5,161.5C 181.422,158.598 180.756,155.598 180.5,152.5C 181.119,146.371 182.119,140.705 183.5,135.5C 185.308,130.897 188.308,127.231 192.5,124.5C 200.056,119.261 208.056,114.927 216.5,111.5C 218.966,110.702 220.966,109.369 222.5,107.5C 224.67,105.914 227.004,104.58 229.5,103.5C 232.69,103.11 235.357,101.777 237.5,99.5C 245.07,97.8529 252.404,98.5196 259.5,101.5C 263.916,104.33 267.916,107.663 271.5,111.5C 273.455,116.373 275.789,121.04 278.5,125.5C 277.753,131.067 280.087,132.9 285.5,131C 286.416,130.722 287.082,130.222 287.5,129.5C 290.426,128.539 293.426,127.873 296.5,127.5C 297.5,127.5 298.5,127.5 299.5,127.5C 299.5,116.833 299.5,106.167 299.5,95.5C 301.223,94.3947 302.223,92.7281 302.5,90.5C 305.015,86.8586 308.015,83.5252 311.5,80.5C 315.994,79.4044 320.327,78.071 324.5,76.5 Z"/></g>
<g><path style="opacity:1" fill="#f39bb3" d="M 389.5,82.5 C 391.441,82.8693 393.275,83.536 395,84.5C 395.333,84.1667 395.667,83.8333 396,83.5C 396.735,87.0483 397.901,90.3816 399.5,93.5C 398.504,93.5858 397.671,93.2524 397,92.5C 395.053,88.7238 392.553,85.3904 389.5,82.5 Z"/></g>
<g><path style="opacity:1" fill="#e7a5b5" d="M 302.5,90.5 C 302.223,92.7281 301.223,94.3947 299.5,95.5C 299.259,92.9664 300.259,91.2998 302.5,90.5 Z"/></g>
<g><path style="opacity:1" fill="#eeadbd" d="M 259.5,101.5 C 252.404,98.5196 245.07,97.8529 237.5,99.5C 235.357,101.777 232.69,103.11 229.5,103.5C 231.304,101.533 233.304,99.6993 235.5,98C 243.528,97.3017 251.528,97.4683 259.5,98.5C 259.5,99.5 259.5,100.5 259.5,101.5 Z"/></g>
<g><path style="opacity:1" fill="#efacbd" d="M 463.5,99.5 C 455.713,97.8437 448.046,98.177 440.5,100.5C 441.347,99.0337 442.68,98.2004 444.5,98C 447.667,97.8333 450.833,97.6667 454,97.5C 457.576,97.5152 460.742,98.1818 463.5,99.5 Z"/></g>
<g><path style="opacity:1" fill="#ffbdd4" d="M 399.5,102.5 C 400.492,110.316 400.826,118.316 400.5,126.5C 401.791,126.263 402.791,126.596 403.5,127.5C 402.167,127.5 400.833,127.5 399.5,127.5C 399.5,119.167 399.5,110.833 399.5,102.5 Z"/></g>
<g><path style="opacity:1" fill="#eca5b9" d="M 259.5,101.5 C 261.927,101.523 264.26,102.023 266.5,103C 268.087,106.027 269.754,108.86 271.5,111.5C 267.916,107.663 263.916,104.33 259.5,101.5 Z"/></g>
<g><path style="opacity:1" fill="#fcd4df" d="M 222.5,107.5 C 220.966,109.369 218.966,110.702 216.5,111.5C 217.802,109.178 219.802,107.845 222.5,107.5 Z"/></g>
<g><path style="opacity:1" fill="#fbbbce" d="M 299.5,95.5 C 299.5,106.167 299.5,116.833 299.5,127.5C 298.5,127.5 297.5,127.5 296.5,127.5C 298.119,116.909 299.119,106.242 299.5,95.5 Z"/></g>
<g><path style="opacity:1" fill="#f9d3de" d="M 366.5,143.5 C 365.506,133.013 365.172,122.346 365.5,111.5C 354.833,111.5 344.167,111.5 333.5,111.5C 333.5,122.167 333.5,132.833 333.5,143.5C 333.167,143.5 332.833,143.5 332.5,143.5C 332.5,132.167 332.5,120.833 332.5,109.5C 344.081,109.821 355.581,109.488 367,108.5C 366.565,120.109 366.399,131.775 366.5,143.5 Z"/></g>
<g><path style="opacity:1" fill="#fa8eab" d="M 366.5,143.5 C 367.15,145.435 367.483,147.435 367.5,149.5C 367.5,150.5 367.5,151.5 367.5,152.5C 368.5,152.5 369.5,152.5 370.5,152.5C 376.21,157.183 382.876,159.516 390.5,159.5C 390.833,159.5 391.167,159.5 391.5,159.5C 392.141,160.482 392.807,161.482 393.5,162.5C 399.2,163.428 404.867,164.428 410.5,165.5C 412.216,165.629 413.883,165.962 415.5,166.5C 415.5,167.5 415.5,168.5 415.5,169.5C 421.882,170.996 428.216,170.829 434.5,169C 437.313,165.353 440.313,161.853 443.5,158.5C 444.946,156.382 445.613,154.049 445.5,151.5C 452.851,149.488 455.517,144.821 453.5,137.5C 458.539,140.008 463.872,142.008 469.5,143.5C 469.833,143.5 470.167,143.5 470.5,143.5C 471.833,144.167 473.167,144.833 474.5,145.5C 476.349,146.593 478.016,147.926 479.5,149.5C 479.5,150.833 479.5,152.167 479.5,153.5C 478.167,153.5 476.833,153.5 475.5,153.5C 475.665,156.518 475.498,159.518 475,162.5C 473.117,163.653 472.284,165.319 472.5,167.5C 470.617,171.919 468.45,176.252 466,180.5C 464.812,190.458 468.646,197.791 477.5,202.5C 478.502,204.011 479.169,205.678 479.5,207.5C 481.823,208.75 484.156,210.083 486.5,211.5C 489.164,214.266 491.997,216.933 495,219.5C 495.49,220.793 495.657,222.127 495.5,223.5C 497.635,228.116 501.302,231.283 506.5,233C 511.167,233.667 515.833,233.667 520.5,233C 521.056,232.617 521.389,232.117 521.5,231.5C 523.03,229.654 525.03,228.654 527.5,228.5C 531.505,228.837 534.172,227.17 535.5,223.5C 539.954,221.865 544.621,220.865 549.5,220.5C 549.5,221.5 549.5,222.5 549.5,223.5C 550.5,223.5 551.5,223.5 552.5,223.5C 551.916,226.285 552.916,227.952 555.5,228.5C 558.186,231.563 559.519,235.229 559.5,239.5C 560.5,239.5 561.5,239.5 562.5,239.5C 562.5,241.5 562.5,243.5 562.5,245.5C 558.147,247.676 553.814,249.843 549.5,252C 548.29,253.039 547.29,254.206 546.5,255.5C 545.5,255.5 544.5,255.5 543.5,255.5C 537.806,257.486 532.639,259.82 528,262.5C 529.088,268.682 529.755,275.016 530,281.5C 530.417,282.756 531.25,283.423 532.5,283.5C 533.458,285.302 534.125,287.302 534.5,289.5C 534.338,291.527 534.505,293.527 535,295.5C 535.383,296.056 535.883,296.389 536.5,296.5C 536.711,305.099 538.211,313.433 541,321.5C 541.377,322.942 542.21,323.942 543.5,324.5C 543.5,325.167 543.5,325.833 543.5,326.5C 546.349,331.947 551.015,334.947 557.5,335.5C 567.467,334.549 577.467,334.216 587.5,334.5C 587.5,344.5 587.5,354.5 587.5,364.5C 577.304,364.773 567.138,364.439 557,363.5C 555.112,363.796 553.278,364.296 551.5,365C 550.748,365.671 550.414,366.504 550.5,367.5C 547.882,369.452 545.548,371.785 543.5,374.5C 541.983,374.511 540.816,375.177 540,376.5C 539.667,380.167 539.333,383.833 539,387.5C 537.605,388.815 536.605,388.481 536,386.5C 537.303,393.787 536.303,400.787 533,407.5C 532.503,410.146 532.336,412.813 532.5,415.5C 531.5,415.5 530.5,415.5 529.5,415.5C 529.179,421.026 529.512,426.36 530.5,431.5C 532.816,434.095 535.149,436.761 537.5,439.5C 545.413,444.898 553.747,449.564 562.5,453.5C 563.281,457.295 562.281,460.628 559.5,463.5C 558.5,463.5 557.5,463.5 556.5,463.5C 554.879,467.397 552.712,471.064 550,474.5C 549.506,476.134 549.34,477.801 549.5,479.5C 547.5,479.5 545.5,479.5 543.5,479.5C 543.167,479.5 542.833,479.5 542.5,479.5C 541.766,478.292 541.433,476.959 541.5,475.5C 538.11,475.489 535.444,474.155 533.5,471.5C 531.604,470.534 529.604,470.201 527.5,470.5C 525.854,468.854 524.188,467.188 522.5,465.5C 516.46,464.193 510.46,464.36 504.5,466C 503.748,466.671 503.414,467.504 503.5,468.5C 503.5,468.833 503.5,469.167 503.5,469.5C 499.676,471.982 497.009,475.316 495.5,479.5C 492.277,481.048 489.61,483.381 487.5,486.5C 484.622,487.562 482.622,489.562 481.5,492.5C 480.167,493.5 478.833,494.5 477.5,495.5C 474.761,498.384 471.761,501.051 468.5,503.5C 467.504,503.414 466.671,503.748 466,504.5C 464.803,510.129 464.47,515.796 465,521.5C 467.091,523.416 468.924,525.416 470.5,527.5C 469.907,530.596 470.907,532.929 473.5,534.5C 475.935,539.954 474.268,543.288 468.5,544.5C 468.833,545.5 469.5,546.167 470.5,546.5C 472.409,545.652 474.409,545.318 476.5,545.5C 476.088,543.027 477.088,541.694 479.5,541.5C 479.5,542.167 479.5,542.833 479.5,543.5C 479.5,545.5 479.5,547.5 479.5,549.5C 479.5,549.833 479.5,550.167 479.5,550.5C 477.473,550.338 475.473,550.505 473.5,551C 470.253,553.121 466.919,554.954 463.5,556.5C 463.5,557.5 463.5,558.5 463.5,559.5C 460.755,562.527 457.422,563.527 453.5,562.5C 448.554,554.269 443.887,545.936 439.5,537.5C 438.519,535.511 437.519,533.511 436.5,531.5C 438.879,527.3 437.879,526.633 433.5,529.5C 427.502,528.277 421.502,528.277 415.5,529.5C 415.5,530.5 415.5,531.5 415.5,532.5C 412.15,532.335 408.817,532.502 405.5,533C 404.833,533.667 404.167,534.333 403.5,535C 398.545,535.528 393.878,536.861 389.5,539C 385.167,539.333 380.833,539.667 376.5,540C 375.177,540.816 374.511,541.983 374.5,543.5C 372.062,545.434 369.729,547.6 367.5,550C 366.767,551.766 366.433,553.599 366.5,555.5C 365.44,565.99 364.774,576.656 364.5,587.5C 354.584,587.819 344.75,587.486 335,586.5C 334.217,576.805 334.384,567.138 335.5,557.5C 335.239,554.708 334.239,552.375 332.5,550.5C 329.763,548.086 327.096,545.753 324.5,543.5C 323.942,542.21 322.942,541.377 321.5,541C 314.645,539.432 307.645,538.265 300.5,537.5C 298.901,537.768 297.568,537.434 296.5,536.5C 296.389,535.883 296.056,535.383 295.5,535C 293.527,534.505 291.527,534.338 289.5,534.5C 285.851,533.733 282.518,532.4 279.5,530.5C 277.866,529.839 276.033,529.506 274,529.5C 269.313,530.158 264.813,530.658 260.5,531C 261.731,532.183 261.731,533.349 260.5,534.5C 259.914,534.291 259.414,533.957 259,533.5C 258.178,536.117 257.678,538.784 257.5,541.5C 253.482,548.511 249.482,555.511 245.5,562.5C 243.833,562.5 242.167,562.5 240.5,562.5C 239.833,562.5 239.5,562.167 239.5,561.5C 240.108,560.2 240.775,558.867 241.5,557.5C 240.453,555.944 239.786,554.277 239.5,552.5C 237.336,553.478 235.17,554.478 233,555.5C 231.596,555.491 230.43,554.991 229.5,554C 237.499,549.081 237.166,547.748 228.5,550C 229.451,550.718 229.617,551.551 229,552.5C 226.153,551.494 223.319,550.494 220.5,549.5C 220.951,544.639 221.951,539.973 223.5,535.5C 226.776,534.878 228.109,532.878 227.5,529.5C 227.328,528.508 227.662,527.842 228.5,527.5C 229.978,526.552 230.978,525.219 231.5,523.5C 232.708,522.766 234.041,522.433 235.5,522.5C 235.851,516.738 235.351,511.072 234,505.5C 231.391,502.463 228.891,499.297 226.5,496C 225.552,495.517 224.552,495.351 223.5,495.5C 222.833,495.5 222.167,495.5 221.5,495.5C 222.146,493.844 222.813,492.177 223.5,490.5C 223.167,489.833 222.833,489.167 222.5,488.5C 221.667,489.5 220.833,490.5 220,491.5C 218.011,489.161 215.511,487.827 212.5,487.5C 211.833,484.833 210.167,483.167 207.5,482.5C 207.5,481.5 207.5,480.5 207.5,479.5C 206.448,479.649 205.448,479.483 204.5,479C 200.931,473.929 196.597,469.762 191.5,466.5C 187.689,465.355 183.689,465.188 179.5,466C 177.563,466.122 176.23,466.955 175.5,468.5C 174.167,469.5 172.833,470.5 171.5,471.5C 167.311,472.214 163.978,474.214 161.5,477.5C 159.989,478.502 158.322,479.169 156.5,479.5C 155.078,479.75 154.078,480.583 153.5,482C 152.207,482.49 150.873,482.657 149.5,482.5C 148.696,479.558 147.362,476.891 145.5,474.5C 144.833,473.167 144.167,471.833 143.5,470.5C 142.89,468.566 141.89,466.899 140.5,465.5C 139.76,461.359 138.76,457.359 137.5,453.5C 141.177,452.915 144.843,452.248 148.5,451.5C 149.806,450.088 150.64,448.421 151,446.5C 152.441,445.74 153.941,445.074 155.5,444.5C 156.298,444.043 156.631,443.376 156.5,442.5C 158.288,442.785 159.955,442.452 161.5,441.5C 164.787,438.372 167.787,435.039 170.5,431.5C 171.659,427.878 171.825,424.211 171,420.5C 170.451,418.24 169.284,416.574 167.5,415.5C 166.662,415.158 166.328,414.492 166.5,413.5C 166.662,411.473 166.495,409.473 166,407.5C 165.583,406.244 164.75,405.577 163.5,405.5C 163.666,401.486 163.499,397.486 163,393.5C 162.184,392.177 161.017,391.511 159.5,391.5C 159.5,391.167 159.5,390.833 159.5,390.5C 159.663,388.143 159.497,385.81 159,383.5C 158.092,379.807 156.592,376.473 154.5,373.5C 153.785,371.44 152.451,369.774 150.5,368.5C 148.018,367.933 145.684,367.266 143.5,366.5C 133.013,365.506 122.346,365.172 111.5,365.5C 111.5,354.833 111.5,344.167 111.5,333.5C 122.346,333.828 133.013,333.494 143.5,332.5C 151.161,331.344 155.828,327.011 157.5,319.5C 159.369,317.365 160.036,314.698 159.5,311.5C 159.5,310.833 159.5,310.167 159.5,309.5C 163.485,307.546 164.485,304.546 162.5,300.5C 164.019,297.399 164.685,294.066 164.5,290.5C 164.263,289.209 164.596,288.209 165.5,287.5C 170.115,281.799 171.615,275.132 170,267.5C 168.103,264.873 166.603,262.039 165.5,259C 162.161,257.704 158.827,256.537 155.5,255.5C 155.489,253.983 154.823,252.816 153.5,252C 148.572,249.858 143.739,247.358 139,244.5C 138.342,242.892 138.842,241.725 140.5,241C 139.218,238.21 140.052,236.043 143,234.5C 143.494,232.866 143.66,231.199 143.5,229.5C 147.068,229.241 148.401,227.241 147.5,223.5C 148.5,223.5 149.5,223.5 150.5,223.5C 150.5,222.167 150.5,220.833 150.5,219.5C 154.308,221.283 158.308,222.616 162.5,223.5C 165.708,224.377 168.708,225.711 171.5,227.5C 174.24,229.053 176.907,230.886 179.5,233C 183.689,233.812 187.689,233.645 191.5,232.5C 193.924,232.808 196.257,232.474 198.5,231.5C 201.691,227.981 204.025,223.981 205.5,219.5C 206.167,218.5 206.833,217.5 207.5,216.5C 211.5,214.5 214.5,211.5 216.5,207.5C 216.833,207.5 217.167,207.5 217.5,207.5C 220.637,205.669 223.804,203.669 227,201.5C 228.29,199.208 229.957,197.208 232,195.5C 232.49,194.207 232.657,192.873 232.5,191.5C 233.331,187.524 233.497,183.524 233,179.5C 230.585,175.379 228.085,171.379 225.5,167.5C 224.069,166.22 223.402,164.553 223.5,162.5C 222.841,157.875 221.174,153.875 218.5,150.5C 220.167,150.5 221.833,150.5 223.5,150.5C 223.5,149.5 223.5,148.5 223.5,147.5C 227.241,148.401 229.241,147.068 229.5,143.5C 234.115,143.537 237.448,141.537 239.5,137.5C 241.903,137.448 244.236,137.781 246.5,138.5C 247.687,140.072 248.687,141.739 249.5,143.5C 249.66,148.153 251.66,151.819 255.5,154.5C 256.288,158.315 257.621,161.982 259.5,165.5C 260.736,166.246 262.07,166.579 263.5,166.5C 263.833,166.5 264.167,166.5 264.5,166.5C 264.937,168.074 265.937,169.241 267.5,170C 275.132,171.615 281.799,170.115 287.5,165.5C 292.264,165.231 296.597,163.898 300.5,161.5C 303.986,160.047 307.653,159.381 311.5,159.5C 314.698,160.036 317.365,159.369 319.5,157.5C 323.63,157.534 327.63,158.201 331.5,159.5C 331.5,158.5 331.5,157.5 331.5,156.5C 330.5,156.5 329.5,156.5 328.5,156.5C 328.167,153.5 329.5,152.167 332.5,152.5C 332.5,153.5 332.5,154.5 332.5,155.5C 333.5,155.5 334.5,155.5 335.5,155.5C 334.201,151.63 333.534,147.63 333.5,143.5C 333.5,132.833 333.5,122.167 333.5,111.5C 344.167,111.5 354.833,111.5 365.5,111.5C 365.172,122.346 365.506,133.013 366.5,143.5 Z"/></g>
<g><path style="opacity:1" fill="#eb9fb4" d="M 425.5,115.5 C 424.172,120.165 421.839,124.165 418.5,127.5C 418.343,126.127 418.51,124.793 419,123.5C 421.106,121.623 422.439,119.29 423,116.5C 423.671,115.748 424.504,115.414 425.5,115.5 Z"/></g>
<g><path style="opacity:1" fill="#ffddea" d="M 278.5,125.5 C 279.601,126.848 280.601,128.348 281.5,130C 283.488,130.18 285.488,130.014 287.5,129.5C 287.082,130.222 286.416,130.722 285.5,131C 280.087,132.9 277.753,131.067 278.5,125.5 Z"/></g>
<g><path style="opacity:1" fill="#f298b1" d="M 511.5,127.5 C 513.564,127.762 514.897,128.929 515.5,131C 516.448,131.483 517.448,131.649 518.5,131.5C 518.5,130.167 518.5,128.833 518.5,127.5C 519.5,127.5 520.5,127.5 521.5,127.5C 521.084,130.406 520.418,133.239 519.5,136C 520.732,143.99 520.732,151.824 519.5,159.5C 519.5,157.167 519.5,154.833 519.5,152.5C 519.232,143.364 516.565,135.031 511.5,127.5 Z"/></g>
<g><path style="opacity:1" fill="#fce1ed" d="M 459.5,136.5 C 457.482,135.377 455.482,135.377 453.5,136.5C 452.312,139.021 450.978,141.355 449.5,143.5C 449.24,138.309 451.573,135.309 456.5,134.5C 458.03,134.64 459.03,135.307 459.5,136.5 Z"/></g>
<g><path style="opacity:1" fill="#f1aec0" d="M 246.5,138.5 C 244.236,137.781 241.903,137.448 239.5,137.5C 242.666,133.303 245,133.636 246.5,138.5 Z"/></g>
<g><path style="opacity:1" fill="#fde2ee" d="M 460.5,137.5 C 464.612,137.943 468.279,139.443 471.5,142C 470.944,142.383 470.611,142.883 470.5,143.5C 470.167,143.5 469.833,143.5 469.5,143.5C 466.328,141.748 463.328,139.748 460.5,137.5 Z"/></g>
<g><path style="opacity:1" fill="#ee9ab2" d="M 459.5,136.5 C 459.5,137.167 459.833,137.5 460.5,137.5C 463.328,139.748 466.328,141.748 469.5,143.5C 463.872,142.008 458.539,140.008 453.5,137.5C 455.517,144.821 452.851,149.488 445.5,151.5C 446.249,148.362 447.583,145.695 449.5,143.5C 450.978,141.355 452.312,139.021 453.5,136.5C 455.482,135.377 457.482,135.377 459.5,136.5 Z"/></g>
<g><path style="opacity:1" fill="#feebf5" d="M 474.5,145.5 C 477.739,145.413 480.739,146.08 483.5,147.5C 483.665,150.85 483.498,154.183 483,157.5C 481.855,156.316 480.688,156.316 479.5,157.5C 481.428,155.219 482.428,152.553 482.5,149.5C 481.5,149.5 480.5,149.5 479.5,149.5C 478.016,147.926 476.349,146.593 474.5,145.5 Z"/></g>
<g><path style="opacity:1" fill="#fee0eb" d="M 183.5,135.5 C 182.119,140.705 181.119,146.371 180.5,152.5C 178.577,146.351 179.577,140.684 183.5,135.5 Z"/></g>
<g><path style="opacity:1" fill="#eea0b6" d="M 239.5,137.5 C 237.448,141.537 234.115,143.537 229.5,143.5C 229.241,147.068 227.241,148.401 223.5,147.5C 223.5,148.5 223.5,149.5 223.5,150.5C 221.833,150.5 220.167,150.5 218.5,150.5C 221.174,153.875 222.841,157.875 223.5,162.5C 221.355,159.567 219.188,156.567 217,153.5C 216.219,152.056 216.386,150.723 217.5,149.5C 224.634,145.008 231.968,141.008 239.5,137.5 Z"/></g>
<g><path style="opacity:1" fill="#eca2b7" d="M 249.5,143.5 C 252.247,146.723 254.247,150.389 255.5,154.5C 251.66,151.819 249.66,148.153 249.5,143.5 Z"/></g>
<g><path style="opacity:1" fill="#d8a8b4" d="M 367.5,149.5 C 368.5,150.5 369.5,151.5 370.5,152.5C 369.5,152.5 368.5,152.5 367.5,152.5C 367.5,151.5 367.5,150.5 367.5,149.5 Z"/></g>
<g><path style="opacity:1" fill="#f69ab3" d="M 332.5,143.5 C 332.833,143.5 333.167,143.5 333.5,143.5C 333.534,147.63 334.201,151.63 335.5,155.5C 334.5,155.5 333.5,155.5 332.5,155.5C 332.5,154.5 332.5,153.5 332.5,152.5C 329.5,152.167 328.167,153.5 328.5,156.5C 329.5,156.5 330.5,156.5 331.5,156.5C 331.5,157.5 331.5,158.5 331.5,159.5C 327.63,158.201 323.63,157.534 319.5,157.5C 326.569,155.429 330.902,150.763 332.5,143.5 Z"/></g>
<g><path style="opacity:1" fill="#fcebf4" d="M 370.5,152.5 C 374.469,153.073 378.135,154.406 381.5,156.5C 385.358,154.929 388.358,155.929 390.5,159.5C 382.876,159.516 376.21,157.183 370.5,152.5 Z"/></g>
<g><path style="opacity:1" fill="#f29bb3" d="M 479.5,149.5 C 480.5,149.5 481.5,149.5 482.5,149.5C 482.428,152.553 481.428,155.219 479.5,157.5C 477.656,161.192 475.323,164.525 472.5,167.5C 472.284,165.319 473.117,163.653 475,162.5C 475.498,159.518 475.665,156.518 475.5,153.5C 476.833,153.5 478.167,153.5 479.5,153.5C 479.5,152.167 479.5,150.833 479.5,149.5 Z"/></g>
<g><path style="opacity:1" fill="#e4aebc" d="M 519.5,152.5 C 519.5,154.833 519.5,157.167 519.5,159.5C 519.167,159.5 518.833,159.5 518.5,159.5C 518.167,159.5 517.833,159.5 517.5,159.5C 517.721,156.933 518.388,154.599 519.5,152.5 Z"/></g>
<g><path style="opacity:1" fill="#e6a9be" d="M 319.5,157.5 C 317.365,159.369 314.698,160.036 311.5,159.5C 313.838,157.96 316.505,157.294 319.5,157.5 Z"/></g>
<g><path style="opacity:1" fill="#f0b2c1" d="M 300.5,161.5 C 296.597,163.898 292.264,165.231 287.5,165.5C 291.491,163.394 295.824,162.061 300.5,161.5 Z"/></g>
<g><path style="opacity:1" fill="#ed9fb5" d="M 391.5,159.5 C 397.335,161.568 403.335,163.068 409.5,164C 410.056,164.383 410.389,164.883 410.5,165.5C 404.867,164.428 399.2,163.428 393.5,162.5C 392.807,161.482 392.141,160.482 391.5,159.5 Z"/></g>
<g><path style="opacity:1" fill="#ee9fb4" d="M 255.5,154.5 C 258.551,158.223 261.218,162.223 263.5,166.5C 262.07,166.579 260.736,166.246 259.5,165.5C 257.621,161.982 256.288,158.315 255.5,154.5 Z"/></g>
<g><path style="opacity:1" fill="#efb1c2" d="M 182.5,161.5 C 185.393,163.748 187.06,166.748 187.5,170.5C 186.239,168.71 184.739,167.043 183,165.5C 182.51,164.207 182.343,162.873 182.5,161.5 Z"/></g>
<g><path style="opacity:1" fill="#ee97b0" d="M 287.5,165.5 C 281.799,170.115 275.132,171.615 267.5,170C 265.937,169.241 264.937,168.074 264.5,166.5C 265.391,167.11 266.391,167.443 267.5,167.5C 267.611,168.117 267.944,168.617 268.5,169C 272.5,169.667 276.5,169.667 280.5,169C 281.056,168.617 281.389,168.117 281.5,167.5C 283.102,165.926 285.102,165.259 287.5,165.5 Z"/></g>
<g><path style="opacity:1" fill="#f1b5c5" d="M 267.5,167.5 C 272.167,168.833 276.833,168.833 281.5,167.5C 281.389,168.117 281.056,168.617 280.5,169C 276.5,169.667 272.5,169.667 268.5,169C 267.944,168.617 267.611,168.117 267.5,167.5 Z"/></g>
<g><path style="opacity:1" fill="#eca1b5" d="M 445.5,151.5 C 445.613,154.049 444.946,156.382 443.5,158.5C 440.313,161.853 437.313,165.353 434.5,169C 428.216,170.829 421.882,170.996 415.5,169.5C 415.5,168.5 415.5,167.5 415.5,166.5C 424.543,170.228 432.376,168.561 439,161.5C 440.444,157.589 442.611,154.256 445.5,151.5 Z"/></g>
<g><path style="opacity:1" fill="#ef97af" d="M 517.5,159.5 C 517.833,159.5 518.167,159.5 518.5,159.5C 518.662,161.527 518.495,163.527 518,165.5C 516.117,166.653 515.284,168.319 515.5,170.5C 514.167,170.5 512.833,170.5 511.5,170.5C 513.25,166.665 515.25,162.999 517.5,159.5 Z"/></g>
<g><path style="opacity:1" fill="#efb0c2" d="M 187.5,170.5 C 189.25,171.659 190.25,173.326 190.5,175.5C 188.592,174.514 187.592,172.848 187.5,170.5 Z"/></g>
<g><path style="opacity:1" fill="#feecf2" d="M 225.5,167.5 C 228.085,171.379 230.585,175.379 233,179.5C 233.497,183.524 233.331,187.524 232.5,191.5C 232.167,191.5 231.833,191.5 231.5,191.5C 231.666,187.486 231.499,183.486 231,179.5C 230.259,178.359 229.425,178.359 228.5,179.5C 226.453,175.776 225.453,171.776 225.5,167.5 Z"/></g>
<g><path style="opacity:1" fill="#ec9db3" d="M 159.5,181.5 C 152.101,179.087 144.767,179.087 137.5,181.5C 137.804,180.85 138.137,180.183 138.5,179.5C 144.666,178.271 150.833,178.271 157,179.5C 158.376,179.684 159.209,180.351 159.5,181.5 Z"/></g>
<g><path style="opacity:1" fill="#e7a9be" d="M 191.5,177.5 C 192.965,178.406 193.965,179.739 194.5,181.5C 193.995,182.919 192.995,183.585 191.5,183.5C 191.5,181.5 191.5,179.5 191.5,177.5 Z"/></g>
<g><path style="opacity:1" fill="#f2b5c6" d="M 511.5,170.5 C 511.021,174.504 509.355,178.004 506.5,181C 507.741,182.731 508.741,184.564 509.5,186.5C 507.317,185.15 505.65,183.316 504.5,181C 506.727,177.365 509.06,173.865 511.5,170.5 Z"/></g>
<g><path style="opacity:1" fill="#eda6ba" d="M 543.5,180.5 C 536.319,183.648 529.319,187.314 522.5,191.5C 522.5,190.167 522.5,188.833 522.5,187.5C 525.271,187.579 527.937,187.079 530.5,186C 534.111,182.517 538.444,180.684 543.5,180.5 Z"/></g>
<g><path style="opacity:1" fill="#efb8c7" d="M 164.5,184.5 C 166.967,184.755 168.967,185.755 170.5,187.5C 168.033,187.245 166.033,186.245 164.5,184.5 Z"/></g>
<g><path style="opacity:1" fill="#eb9cb4" d="M 191.5,184.5 C 188.814,186.856 186.147,189.189 183.5,191.5C 184.334,186.996 187,184.663 191.5,184.5 Z"/></g>
<g><path style="opacity:1" fill="#f19eb4" d="M 137.5,181.5 C 133.884,183.318 130.55,185.652 127.5,188.5C 125.556,193.306 122.889,197.639 119.5,201.5C 119.435,198.514 120.602,196.18 123,194.5C 123.333,192.5 123.667,190.5 124,188.5C 126.158,187.174 127.992,185.507 129.5,183.5C 132.08,182.451 134.746,181.784 137.5,181.5 Z"/></g>
<g><path style="opacity:1" fill="#f8c5d4" d="M 335.5,190.5 C 339.82,189.834 344.32,189.501 349,189.5C 355.414,189.289 361.581,189.955 367.5,191.5C 356.833,191.167 346.167,190.833 335.5,190.5 Z"/></g>
<g><path style="opacity:1" fill="#fdfdfd" d="M 335.5,190.5 C 346.167,190.833 356.833,191.167 367.5,191.5C 372.833,192.167 378.167,192.833 383.5,193.5C 388.086,194.774 392.753,196.107 397.5,197.5C 398.167,197.5 398.833,197.5 399.5,197.5C 399.5,198.167 399.833,198.5 400.5,198.5C 402.32,200.448 404.654,201.448 407.5,201.5C 412.398,203.783 417.398,205.783 422.5,207.5C 432.749,213.741 442.749,220.408 452.5,227.5C 455.563,231.566 459.229,234.899 463.5,237.5C 463.821,239.048 464.821,239.715 466.5,239.5C 466.351,240.552 466.517,241.552 467,242.5C 473.481,249.476 479.481,256.809 485,264.5C 489.228,272.301 493.395,279.968 497.5,287.5C 500.143,296.072 502.477,304.739 504.5,313.5C 504.259,315.898 504.926,317.898 506.5,319.5C 506.782,325.021 507.449,330.354 508.5,335.5C 508.5,346.167 508.5,356.833 508.5,367.5C 506.871,372.591 505.871,377.924 505.5,383.5C 502.804,394.247 499.471,404.913 495.5,415.5C 491.826,419.507 489.159,424.173 487.5,429.5C 483.503,435.492 479.503,441.492 475.5,447.5C 473.413,448.585 472.08,450.251 471.5,452.5C 469.856,452.81 468.856,453.81 468.5,455.5C 466.5,456.833 464.833,458.5 463.5,460.5C 463.5,461.5 463.5,462.5 463.5,463.5C 462.5,463.5 461.5,463.5 460.5,463.5C 456.141,467.528 451.807,471.528 447.5,475.5C 442.158,479.17 436.825,482.836 431.5,486.5C 425.511,488.491 420.177,491.491 415.5,495.5C 414.833,495.5 414.167,495.5 413.5,495.5C 409.408,497.176 405.408,498.843 401.5,500.5C 399.302,500.875 397.302,501.542 395.5,502.5C 391.239,502.898 387.239,503.898 383.5,505.5C 377.884,505.656 372.551,506.656 367.5,508.5C 356.833,508.5 346.167,508.5 335.5,508.5C 324.817,507.162 314.15,505.162 303.5,502.5C 300.008,500.931 296.341,499.598 292.5,498.5C 273.647,491.482 256.98,480.982 242.5,467C 241.552,466.517 240.552,466.351 239.5,466.5C 239.271,464.567 238.438,462.9 237,461.5C 225.7,449.546 215.867,436.546 207.5,422.5C 205.551,416.6 203.051,410.934 200,405.5C 198.356,397.873 196.19,390.54 193.5,383.5C 192.444,378.219 191.777,372.886 191.5,367.5C 191.167,356.833 190.833,346.167 190.5,335.5C 191.479,332.375 191.813,329.042 191.5,325.5C 194.232,322.114 195.232,318.114 194.5,313.5C 195.294,310.198 195.96,306.865 196.5,303.5C 198.126,300.375 199.46,297.042 200.5,293.5C 202.845,287.459 205.178,281.459 207.5,275.5C 210.476,272.904 212.476,269.57 213.5,265.5C 213.833,264.5 214.5,263.833 215.5,263.5C 217.162,261.637 218.829,259.637 220.5,257.5C 220.75,255.326 221.75,253.659 223.5,252.5C 225.86,251.135 227.527,249.135 228.5,246.5C 230.547,244.45 232.214,242.117 233.5,239.5C 239.267,235.237 244.601,230.403 249.5,225C 255.469,221.678 260.802,217.678 265.5,213C 269.967,211.311 274.3,209.477 278.5,207.5C 281.918,207.076 284.918,205.742 287.5,203.5C 289.072,202.313 290.739,201.313 292.5,200.5C 295.443,200.02 298.11,199.02 300.5,197.5C 303.789,196.626 307.123,195.959 310.5,195.5C 315.056,194.414 319.556,194.414 324,195.5C 326.167,194.512 328,193.179 329.5,191.5C 331.735,191.795 333.735,191.461 335.5,190.5 Z"/></g>
<g><path style="opacity:1" fill="#fce6ef" d="M 329.5,191.5 C 328,193.179 326.167,194.512 324,195.5C 319.556,194.414 315.056,194.414 310.5,195.5C 316.426,192.78 322.76,191.447 329.5,191.5 Z"/></g>
<g><path style="opacity:1" fill="#eda3b9" d="M 383.5,193.5 C 388.869,192.74 393.535,194.074 397.5,197.5C 392.753,196.107 388.086,194.774 383.5,193.5 Z"/></g>
<g><path style="opacity:1" fill="#f296ae" d="M 575.5,194.5 C 576.583,194.539 577.583,194.873 578.5,195.5C 579.277,197.781 580.277,199.948 581.5,202C 582.448,202.483 583.448,202.649 584.5,202.5C 584.151,199.537 585.151,197.204 587.5,195.5C 587.833,196.667 588.167,197.833 588.5,199C 587.862,201.812 586.862,204.479 585.5,207C 585.696,208.878 586.029,210.712 586.5,212.5C 582.333,206.837 578.666,200.837 575.5,194.5 Z"/></g>
<g><path style="opacity:1" fill="#f098b0" d="M 399.5,197.5 C 403.011,198.058 406.511,198.724 410,199.5C 411.561,199.397 413.061,199.063 414.5,198.5C 415.429,199.689 415.762,201.022 415.5,202.5C 417.564,202.687 419.564,203.187 421.5,204C 422.337,205.011 422.67,206.178 422.5,207.5C 417.398,205.783 412.398,203.783 407.5,201.5C 405.491,199.935 403.157,198.935 400.5,198.5C 399.833,198.5 399.5,198.167 399.5,197.5 Z"/></g>
<g><path style="opacity:1" fill="#efabbe" d="M 300.5,197.5 C 298.11,199.02 295.443,200.02 292.5,200.5C 294.503,198.018 297.169,197.018 300.5,197.5 Z"/></g>
<g><path style="opacity:1" fill="#fdd8e3" d="M 400.5,198.5 C 403.157,198.935 405.491,199.935 407.5,201.5C 404.654,201.448 402.32,200.448 400.5,198.5 Z"/></g>
<g><path style="opacity:1" fill="#f7dbe4" d="M 477.5,202.5 C 478.552,202.351 479.552,202.517 480.5,203C 483.311,205.278 485.311,208.111 486.5,211.5C 484.156,210.083 481.823,208.75 479.5,207.5C 479.169,205.678 478.502,204.011 477.5,202.5 Z"/></g>
<g><path style="opacity:1" fill="#ea9eb4" d="M 231.5,191.5 C 231.833,191.5 232.167,191.5 232.5,191.5C 232.657,192.873 232.49,194.207 232,195.5C 229.957,197.208 228.29,199.208 227,201.5C 223.804,203.669 220.637,205.669 217.5,207.5C 221.542,202.81 226.042,198.476 231,194.5C 231.483,193.552 231.649,192.552 231.5,191.5 Z"/></g>
<g><path style="opacity:1" fill="#f0a4b8" d="M 119.5,201.5 C 119.063,204.225 117.73,206.225 115.5,207.5C 114.599,203.759 115.932,201.759 119.5,201.5 Z"/></g>
<g><path style="opacity:1" fill="#fee5ef" d="M 287.5,203.5 C 284.918,205.742 281.918,207.076 278.5,207.5C 280.835,204.835 283.835,203.502 287.5,203.5 Z"/></g>
<g><path style="opacity:1" fill="#f1b6c5" d="M 216.5,207.5 C 214.5,211.5 211.5,214.5 207.5,216.5C 210.167,213.167 213.167,210.167 216.5,207.5 Z"/></g>
<g><path style="opacity:1" fill="#ffecf4" d="M 157.5,219.5 C 155.289,218.963 153.289,217.963 151.5,216.5C 148.591,219.981 145.925,223.648 143.5,227.5C 142.889,224.039 144.056,221.372 147,219.5C 147.49,218.207 147.657,216.873 147.5,215.5C 149.857,215.337 152.19,215.503 154.5,216C 156.426,216.422 157.426,217.589 157.5,219.5 Z"/></g>
<g><path style="opacity:1" fill="#e6a8bc" d="M 587.5,215.5 C 589.893,216.353 591.226,218.019 591.5,220.5C 589.413,219.415 588.08,217.749 587.5,215.5 Z"/></g>
<g><path style="opacity:1" fill="#eeb2c2" d="M 111.5,216.5 C 110.7,218.573 109.367,220.24 107.5,221.5C 107.774,219.019 109.107,217.353 111.5,216.5 Z"/></g>
<g><path style="opacity:1" fill="#eea0b4" d="M 552.5,223.5 C 551.5,223.5 550.5,223.5 549.5,223.5C 549.5,222.5 549.5,221.5 549.5,220.5C 544.621,220.865 539.954,221.865 535.5,223.5C 539.222,220.803 543.222,218.469 547.5,216.5C 550.359,217.853 552.026,220.186 552.5,223.5 Z"/></g>
<g><path style="opacity:1" fill="#eba0b4" d="M 359.5,225.5 C 350.822,225.584 342.155,225.917 333.5,226.5C 331.5,226.5 329.5,226.5 327.5,226.5C 333.942,225.056 340.608,224.39 347.5,224.5C 351.681,224.501 355.681,224.834 359.5,225.5 Z"/></g>
<g><path style="opacity:1" fill="#ef9fb5" d="M 535.5,223.5 C 534.172,227.17 531.505,228.837 527.5,228.5C 529.629,226.05 532.296,224.383 535.5,223.5 Z"/></g>
<g><path style="opacity:1" fill="#f7bacc" d="M 367.5,225.5 C 370.495,225.294 373.162,225.96 375.5,227.5C 374.167,227.5 372.833,227.5 371.5,227.5C 370.005,227.011 368.671,226.345 367.5,225.5 Z"/></g>
<g><path style="opacity:1" fill="#eea9bd" d="M 552.5,223.5 C 554.25,224.659 555.25,226.326 555.5,228.5C 552.916,227.952 551.916,226.285 552.5,223.5 Z"/></g>
<g><path style="opacity:1" fill="#ee9bb2" d="M 157.5,219.5 C 159.349,220.593 161.016,221.926 162.5,223.5C 158.308,222.616 154.308,221.283 150.5,219.5C 150.5,220.833 150.5,222.167 150.5,223.5C 149.5,223.5 148.5,223.5 147.5,223.5C 148.401,227.241 147.068,229.241 143.5,229.5C 143.5,228.833 143.5,228.167 143.5,227.5C 145.925,223.648 148.591,219.981 151.5,216.5C 153.289,217.963 155.289,218.963 157.5,219.5 Z"/></g>
<g><path style="opacity:1" fill="#fb8cad" d="M 359.5,225.5 C 362.167,225.5 364.833,225.5 367.5,225.5C 368.671,226.345 370.005,227.011 371.5,227.5C 371.389,228.117 371.056,228.617 370.5,229C 357.791,229.874 345.124,229.54 332.5,228C 333.056,227.617 333.389,227.117 333.5,226.5C 342.155,225.917 350.822,225.584 359.5,225.5 Z"/></g>
<g><path style="opacity:1" fill="#f39db5" d="M 463.5,237.5 C 459.229,234.899 455.563,231.566 452.5,227.5C 455.33,227.306 457.996,226.639 460.5,225.5C 460.297,227.638 459.297,229.305 457.5,230.5C 459.523,232.853 461.523,235.186 463.5,237.5 Z"/></g>
<g><path style="opacity:1" fill="#efa8ba" d="M 495.5,223.5 C 496.552,223.351 497.552,223.517 498.5,224C 504.182,232.171 511.848,234.671 521.5,231.5C 521.389,232.117 521.056,232.617 520.5,233C 515.833,233.667 511.167,233.667 506.5,233C 501.302,231.283 497.635,228.116 495.5,223.5 Z"/></g>
<g><path style="opacity:1" fill="#fde6ee" d="M 191.5,231.5 C 191.5,231.833 191.5,232.167 191.5,232.5C 187.689,233.645 183.689,233.812 179.5,233C 176.907,230.886 174.24,229.053 171.5,227.5C 172.583,227.539 173.583,227.873 174.5,228.5C 175.803,226.522 177.469,226.522 179.5,228.5C 178.45,230.102 179.117,230.935 181.5,231C 184.817,231.498 188.15,231.665 191.5,231.5 Z"/></g>
<g><path style="opacity:1" fill="#f19bb3" d="M 205.5,219.5 C 204.025,223.981 201.691,227.981 198.5,231.5C 196.257,232.474 193.924,232.808 191.5,232.5C 191.5,232.167 191.5,231.833 191.5,231.5C 192.922,231.291 194.255,230.791 195.5,230C 198.412,225.925 201.746,222.425 205.5,219.5 Z"/></g>
<g><path style="opacity:1" fill="#fa8eab" d="M 327.5,226.5 C 329.5,226.5 331.5,226.5 333.5,226.5C 333.389,227.117 333.056,227.617 332.5,228C 345.124,229.54 357.791,229.874 370.5,229C 371.056,228.617 371.389,228.117 371.5,227.5C 372.833,227.5 374.167,227.5 375.5,227.5C 387.378,229.266 398.378,233.266 408.5,239.5C 408.33,240.822 408.663,241.989 409.5,243C 411.473,243.495 413.473,243.662 415.5,243.5C 417.432,247.621 420.765,249.954 425.5,250.5C 428.112,251.779 430.445,253.445 432.5,255.5C 433.833,258.833 436.167,261.167 439.5,262.5C 441.816,266.589 444.982,269.922 449,272.5C 450.094,274.078 450.928,275.745 451.5,277.5C 451.581,280.513 452.914,282.513 455.5,283.5C 457.053,286.24 458.886,288.907 461,291.5C 462.411,293.65 463.245,295.984 463.5,298.5C 463.077,300.781 463.744,302.448 465.5,303.5C 466.338,303.842 466.672,304.508 466.5,305.5C 466.219,310.168 467.552,314.168 470.5,317.5C 470.5,318.167 470.5,318.833 470.5,319.5C 470.959,323.439 470.959,327.273 470.5,331C 448.169,331.5 425.836,331.667 403.5,331.5C 399.614,320.265 392.947,310.932 383.5,303.5C 383.5,302.5 383.5,301.5 383.5,300.5C 379.308,297.748 374.641,296.081 369.5,295.5C 368.833,295.5 368.167,295.5 367.5,295.5C 365.341,293.66 362.675,292.493 359.5,292C 351.507,291.5 343.507,291.334 335.5,291.5C 335.843,289.517 335.176,288.183 333.5,287.5C 334.269,283.275 332.602,280.609 328.5,279.5C 325.258,274.019 322.258,268.352 319.5,262.5C 318.265,259.92 316.599,257.587 314.5,255.5C 311.566,248.974 308.066,242.641 304,236.5C 303.51,235.207 303.343,233.873 303.5,232.5C 311.335,229.875 319.335,227.875 327.5,226.5 Z"/></g>
<g><path style="opacity:1" fill="#eeabbc" d="M 103.5,229.5 C 102.708,233.134 101.208,236.467 99,239.5C 97.9287,246.753 98.762,253.753 101.5,260.5C 99.39,259.547 98.2233,257.881 98,255.5C 97.3333,248.833 97.3333,242.167 98,235.5C 99.161,232.815 100.994,230.815 103.5,229.5 Z"/></g>
<g><path style="opacity:1" fill="#eb9cb1" d="M 408.5,239.5 C 411.004,240.584 413.337,241.917 415.5,243.5C 413.473,243.662 411.473,243.495 409.5,243C 408.663,241.989 408.33,240.822 408.5,239.5 Z"/></g>
<g><path style="opacity:1" fill="#f2b4c5" d="M 233.5,239.5 C 232.214,242.117 230.547,244.45 228.5,246.5C 229.069,243.281 230.736,240.948 233.5,239.5 Z"/></g>
<g><path style="opacity:1" fill="#edb8c6" d="M 562.5,239.5 C 563.738,241.214 564.405,243.214 564.5,245.5C 563.833,245.5 563.167,245.5 562.5,245.5C 562.5,243.5 562.5,241.5 562.5,239.5 Z"/></g>
<g><path style="opacity:1" fill="#f09bb2" d="M 143.5,229.5 C 143.66,231.199 143.494,232.866 143,234.5C 140.052,236.043 139.218,238.21 140.5,241C 138.842,241.725 138.342,242.892 139,244.5C 143.739,247.358 148.572,249.858 153.5,252C 154.823,252.816 155.489,253.983 155.5,255.5C 148.705,252.852 142.205,249.518 136,245.5C 136.578,239.341 139.078,234.008 143.5,229.5 Z"/></g>
<g><path style="opacity:1" fill="#fee6f0" d="M 562.5,245.5 C 563.167,245.5 563.833,245.5 564.5,245.5C 564.047,246.458 563.381,247.292 562.5,248C 557.246,250.775 551.913,253.275 546.5,255.5C 547.29,254.206 548.29,253.039 549.5,252C 553.814,249.843 558.147,247.676 562.5,245.5 Z"/></g>
<g><path style="opacity:1" fill="#fed8e7" d="M 228.5,246.5 C 227.527,249.135 225.86,251.135 223.5,252.5C 224.419,249.911 226.086,247.911 228.5,246.5 Z"/></g>
<g><path style="opacity:1" fill="#f0a5b9" d="M 415.5,243.5 C 419.192,245.344 422.525,247.677 425.5,250.5C 420.765,249.954 417.432,247.621 415.5,243.5 Z"/></g>
<g><path style="opacity:1" fill="#f4b9c9" d="M 432.5,255.5 C 435.167,257.5 437.5,259.833 439.5,262.5C 436.167,261.167 433.833,258.833 432.5,255.5 Z"/></g>
<g><path style="opacity:1" fill="#f198b1" d="M 277.5,259.5 C 275.665,258.878 274.498,257.544 274,255.5C 273.667,255.833 273.333,256.167 273,256.5C 272.667,255.5 272.333,254.5 272,253.5C 271.506,255.134 271.34,256.801 271.5,258.5C 269.011,258.298 266.677,258.798 264.5,260C 262.707,262.795 260.54,265.295 258,267.5C 257.536,266.906 257.369,266.239 257.5,265.5C 258.117,263.771 259.117,262.271 260.5,261C 264.394,257.435 268.56,254.269 273,251.5C 275.271,253.707 276.771,256.374 277.5,259.5 Z"/></g>
<g><path style="opacity:1" fill="#fae1ed" d="M 314.5,255.5 C 316.599,257.587 318.265,259.92 319.5,262.5C 317.692,262.509 316.025,262.009 314.5,261C 314.854,259.374 314.854,257.541 314.5,255.5 Z"/></g>
<g><path style="opacity:1" fill="#f19cb2" d="M 600.5,239.5 C 601.794,241.048 602.461,243.048 602.5,245.5C 602.394,249.756 601.728,253.922 600.5,258C 600.527,260.363 601.694,261.863 604,262.5C 604.884,264.641 604.384,266.307 602.5,267.5C 601.316,265.954 600.316,264.287 599.5,262.5C 597.349,263.905 595.682,265.739 594.5,268C 593.552,268.483 592.552,268.649 591.5,268.5C 594.241,264.691 596.741,260.691 599,256.5C 600.289,250.912 600.789,245.245 600.5,239.5 Z"/></g>
<g><path style="opacity:1" fill="#fdd2de" d="M 220.5,257.5 C 218.829,259.637 217.162,261.637 215.5,263.5C 215.772,260.268 217.438,258.268 220.5,257.5 Z"/></g>
<g><path style="opacity:1" fill="#f397b1" d="M 543.5,255.5 C 541.88,257.984 539.547,259.484 536.5,260C 530.185,266.913 528.852,274.746 532.5,283.5C 531.25,283.423 530.417,282.756 530,281.5C 529.755,275.016 529.088,268.682 528,262.5C 532.639,259.82 537.806,257.486 543.5,255.5 Z"/></g>
<g><path style="opacity:1" fill="#ee9db3" d="M 101.5,260.5 C 103.6,263.711 105.934,266.711 108.5,269.5C 106.685,268.37 104.685,267.704 102.5,267.5C 102.552,265.097 102.219,262.764 101.5,260.5 Z"/></g>
<g><path style="opacity:1" fill="#fa8eab" d="M 277.5,259.5 C 277.372,263.636 278.872,266.969 282,269.5C 282.533,274.581 285.033,278.248 289.5,280.5C 291.653,282.794 293.32,285.46 294.5,288.5C 294.812,294.103 296.478,299.103 299.5,303.5C 300.5,303.5 301.5,303.5 302.5,303.5C 303.338,303.842 303.672,304.508 303.5,305.5C 304.64,308.025 305.307,310.692 305.5,313.5C 304.171,315.059 302.838,316.725 301.5,318.5C 298.337,323.826 296.004,329.492 294.5,335.5C 292.614,342.117 292.281,348.783 293.5,355.5C 293.5,357.5 293.5,359.5 293.5,361.5C 293.025,364.082 293.692,366.082 295.5,367.5C 298.263,373.681 301.596,379.681 305.5,385.5C 305.678,386.695 306.011,387.862 306.5,389C 305.685,390.643 304.685,392.143 303.5,393.5C 301.983,393.511 300.816,394.177 300,395.5C 299.505,397.473 299.338,399.473 299.5,401.5C 299.5,401.833 299.5,402.167 299.5,402.5C 298.417,402.539 297.417,402.873 296.5,403.5C 294.917,406.331 293.084,408.997 291,411.5C 290.51,412.793 290.343,414.127 290.5,415.5C 288.033,421.768 285.033,427.768 281.5,433.5C 276.955,437.277 273.955,441.944 272.5,447.5C 272.167,447.5 271.833,447.5 271.5,447.5C 270.99,443.32 268.656,441.32 264.5,441.5C 262.478,437.478 259.478,434.478 255.5,432.5C 246.185,422.2 239.185,410.533 234.5,397.5C 232.526,390.269 230.86,382.935 229.5,375.5C 228.818,374.757 228.151,374.091 227.5,373.5C 226.596,372.791 226.263,371.791 226.5,370.5C 226.018,353.412 226.685,336.412 228.5,319.5C 228.232,317.901 228.566,316.568 229.5,315.5C 231.975,312.749 232.975,309.416 232.5,305.5C 232.893,303.716 233.559,302.05 234.5,300.5C 235.496,300.586 236.329,300.252 237,299.5C 237.275,296.588 238.109,293.921 239.5,291.5C 243.498,281.493 249.498,272.826 257.5,265.5C 257.369,266.239 257.536,266.906 258,267.5C 260.54,265.295 262.707,262.795 264.5,260C 266.677,258.798 269.011,258.298 271.5,258.5C 271.34,256.801 271.506,255.134 272,253.5C 272.333,254.5 272.667,255.5 273,256.5C 273.333,256.167 273.667,255.833 274,255.5C 274.498,257.544 275.665,258.878 277.5,259.5 Z"/></g>
<g><path style="opacity:1" fill="#ef9cb2" d="M 277.5,259.5 C 282.255,266.004 286.255,273.004 289.5,280.5C 285.033,278.248 282.533,274.581 282,269.5C 278.872,266.969 277.372,263.636 277.5,259.5 Z"/></g>
<g><path style="opacity:1" fill="#ee9db3" d="M 155.5,255.5 C 158.827,256.537 162.161,257.704 165.5,259C 166.603,262.039 168.103,264.873 170,267.5C 171.615,275.132 170.115,281.799 165.5,287.5C 165.826,284.689 166.659,282.022 168,279.5C 168.91,274.342 168.41,269.342 166.5,264.5C 162.509,261.702 158.842,258.702 155.5,255.5 Z"/></g>
<g><path style="opacity:1" fill="#efa2ba" d="M 213.5,265.5 C 212.476,269.57 210.476,272.904 207.5,275.5C 208.406,272.564 209.072,269.564 209.5,266.5C 210.959,266.567 212.292,266.234 213.5,265.5 Z"/></g>
<g><path style="opacity:1" fill="#eda0b6" d="M 591.5,268.5 C 591.5,269.5 591.5,270.5 591.5,271.5C 590.022,271.238 588.689,271.571 587.5,272.5C 584.38,276.1 580.38,277.767 575.5,277.5C 580.502,273.997 585.835,270.997 591.5,268.5 Z"/></g>
<g><path style="opacity:1" fill="#ef9bb1" d="M 113.5,271.5 C 117.497,273.829 121.497,276.162 125.5,278.5C 126.167,279.167 126.833,279.833 127.5,280.5C 124.404,281.093 122.071,280.093 120.5,277.5C 116.318,277.559 113.984,275.559 113.5,271.5 Z"/></g>
<g><path style="opacity:1" fill="#f2b1c2" d="M 328.5,279.5 C 332.602,280.609 334.269,283.275 333.5,287.5C 331.336,285.178 329.669,282.511 328.5,279.5 Z"/></g>
<g><path style="opacity:1" fill="#eca8b9" d="M 451.5,277.5 C 453.822,278.802 455.155,280.802 455.5,283.5C 452.914,282.513 451.581,280.513 451.5,277.5 Z"/></g>
<g><path style="opacity:1" fill="#feeef7" d="M 125.5,278.5 C 127.467,278.261 129.301,278.594 131,279.5C 131.218,282.426 131.718,285.26 132.5,288C 132.156,291.49 130.489,293.99 127.5,295.5C 127.5,294.5 127.5,293.5 127.5,292.5C 129.966,288.982 130.966,284.982 130.5,280.5C 129.5,280.5 128.5,280.5 127.5,280.5C 126.833,279.833 126.167,279.167 125.5,278.5 Z"/></g>
<g><path style="opacity:1" fill="#eca9be" d="M 127.5,280.5 C 128.5,280.5 129.5,280.5 130.5,280.5C 130.966,284.982 129.966,288.982 127.5,292.5C 127.401,289.327 128.068,286.327 129.5,283.5C 129.058,282.261 128.391,281.261 127.5,280.5 Z"/></g>
<g><path style="opacity:1" fill="#eaa0b3" d="M 335.5,291.5 C 343.507,291.334 351.507,291.5 359.5,292C 362.675,292.493 365.341,293.66 367.5,295.5C 358.477,292.755 349.31,292.089 340,293.5C 337.992,293.693 336.492,293.026 335.5,291.5 Z"/></g>
<g><path style="opacity:1" fill="#f2a3b8" d="M 575.5,278.5 C 574.817,280.176 573.483,280.843 571.5,280.5C 570.726,284.242 572.059,286.742 575.5,288C 574.296,289.353 573.629,291.019 573.5,293C 573.833,294.5 574.167,296 574.5,297.5C 580.104,298.454 585.771,298.788 591.5,298.5C 594.385,298.194 597.052,298.527 599.5,299.5C 590.5,299.5 581.5,299.5 572.5,299.5C 571.38,294.136 570.047,288.803 568.5,283.5C 569.583,280.229 571.916,278.562 575.5,278.5 Z"/></g>
<g><path style="opacity:1" fill="#efabbd" d="M 239.5,291.5 C 238.109,293.921 237.275,296.588 237,299.5C 236.329,300.252 235.496,300.586 234.5,300.5C 235.243,296.888 236.91,293.888 239.5,291.5 Z"/></g>
<g><path style="opacity:1" fill="#efa4b9" d="M 200.5,293.5 C 199.46,297.042 198.126,300.375 196.5,303.5C 196.351,300.393 196.851,297.393 198,294.5C 198.671,293.748 199.504,293.414 200.5,293.5 Z"/></g>
<g><path style="opacity:1" fill="#e6a9b8" d="M 534.5,289.5 C 535.407,291.657 536.073,293.99 536.5,296.5C 535.883,296.389 535.383,296.056 535,295.5C 534.505,293.527 534.338,291.527 534.5,289.5 Z"/></g>
<g><path style="opacity:1" fill="#ed9cb1" d="M 369.5,295.5 C 374.641,296.081 379.308,297.748 383.5,300.5C 383.5,301.5 383.5,302.5 383.5,303.5C 378.551,301.193 373.884,298.526 369.5,295.5 Z"/></g>
<g><path style="opacity:1" fill="#f098ae" d="M 607.5,301.5 C 604.505,301.706 601.838,301.04 599.5,299.5C 597.052,298.527 594.385,298.194 591.5,298.5C 596.656,296.861 601.989,296.528 607.5,297.5C 606.975,298.192 606.308,298.692 605.5,299C 606.756,299.417 607.423,300.25 607.5,301.5 Z"/></g>
<g><path style="opacity:1" fill="#fcb9ce" d="M 127.5,296.5 C 127.5,297.5 127.5,298.5 127.5,299.5C 116.833,299.5 106.167,299.5 95.5,299.5C 106.242,299.119 116.909,298.119 127.5,296.5 Z"/></g>
<g><path style="opacity:1" fill="#f19bb3" d="M 294.5,288.5 C 297.947,293.059 300.613,298.059 302.5,303.5C 301.5,303.5 300.5,303.5 299.5,303.5C 296.478,299.103 294.812,294.103 294.5,288.5 Z"/></g>
<g><path style="opacity:1" fill="#fef0f7" d="M 575.5,277.5 C 575.5,277.833 575.5,278.167 575.5,278.5C 571.916,278.562 569.583,280.229 568.5,283.5C 570.047,288.803 571.38,294.136 572.5,299.5C 581.5,299.5 590.5,299.5 599.5,299.5C 601.838,301.04 604.505,301.706 607.5,301.5C 607.5,301.833 607.5,302.167 607.5,302.5C 595.681,300.727 583.681,300.06 571.5,300.5C 571.031,296.263 569.864,292.263 568,288.5C 565.347,281.023 567.847,277.357 575.5,277.5 Z"/></g>
<g><path style="opacity:1" fill="#f0adc4" d="M 463.5,298.5 C 465.213,299.635 465.88,301.302 465.5,303.5C 463.744,302.448 463.077,300.781 463.5,298.5 Z"/></g>
<g><path style="opacity:1" fill="#f19fb5" d="M 164.5,290.5 C 164.685,294.066 164.019,297.399 162.5,300.5C 164.485,304.546 163.485,307.546 159.5,309.5C 160.527,302.895 162.194,296.562 164.5,290.5 Z"/></g>
<g><path style="opacity:1" fill="#edacc0" d="M 303.5,305.5 C 306.626,306.806 307.793,309.14 307,312.5C 306.617,313.056 306.117,313.389 305.5,313.5C 305.307,310.692 304.64,308.025 303.5,305.5 Z"/></g>
<g><path style="opacity:1" fill="#f298b1" d="M 497.5,287.5 C 501.245,293.551 503.745,300.218 505,307.5C 505.853,305.065 506.853,302.731 508,300.5C 508.311,302.556 508.811,304.556 509.5,306.5C 507.987,309.632 507.32,312.966 507.5,316.5C 508.11,322.821 508.444,329.155 508.5,335.5C 507.449,330.354 506.782,325.021 506.5,319.5C 506.741,317.102 506.074,315.102 504.5,313.5C 502.477,304.739 500.143,296.072 497.5,287.5 Z"/></g>
<g><path style="opacity:1" fill="#e6a8b8" d="M 232.5,305.5 C 232.975,309.416 231.975,312.749 229.5,315.5C 229.723,311.838 230.723,308.505 232.5,305.5 Z"/></g>
<g><path style="opacity:1" fill="#f1a0b6" d="M 536.5,296.5 C 539.326,305.605 541.659,314.938 543.5,324.5C 542.21,323.942 541.377,322.942 541,321.5C 538.211,313.433 536.711,305.099 536.5,296.5 Z"/></g>
<g><path style="opacity:1" fill="#eda2b8" d="M 466.5,305.5 C 468.358,309.241 469.691,313.241 470.5,317.5C 467.552,314.168 466.219,310.168 466.5,305.5 Z"/></g>
<g><path style="opacity:1" fill="#e6abbf" d="M 159.5,311.5 C 160.036,314.698 159.369,317.365 157.5,319.5C 157.111,316.447 157.777,313.78 159.5,311.5 Z"/></g>
<g><path style="opacity:1" fill="#fbbacb" d="M 504.5,313.5 C 506.074,315.102 506.741,317.102 506.5,319.5C 504.926,317.898 504.259,315.898 504.5,313.5 Z"/></g>
<g><path style="opacity:1" fill="#f7d7e3" d="M 194.5,313.5 C 195.232,318.114 194.232,322.114 191.5,325.5C 191.923,321.253 192.923,317.253 194.5,313.5 Z"/></g>
<g><path style="opacity:1" fill="#efa2b8" d="M 79.5,313.5 C 78.8333,315.5 78.1667,317.5 77.5,319.5C 76.503,338.326 76.1697,357.326 76.5,376.5C 75.3376,357.004 75.1709,337.338 76,317.5C 76.0572,315.09 77.2239,313.756 79.5,313.5 Z"/></g>
<g><path style="opacity:1" fill="#ef9fb4" d="M 228.5,319.5 C 226.685,336.412 226.018,353.412 226.5,370.5C 224.095,356.341 223.928,342.007 226,327.5C 226.279,324.543 227.113,321.877 228.5,319.5 Z"/></g>
<g><path style="opacity:1" fill="#ebabbc" d="M 353.5,327.5 C 351.143,327.337 348.81,327.503 346.5,328C 342.812,329.513 339.145,331.013 335.5,332.5C 339.078,328.412 343.745,326.412 349.5,326.5C 351.045,326.511 352.378,326.844 353.5,327.5 Z"/></g>
<g><path style="opacity:1" fill="#fa8eab" d="M 353.5,327.5 C 359.386,328.108 364.053,330.774 367.5,335.5C 368.927,340.128 369.594,344.962 369.5,350C 369.672,354.399 369.006,358.565 367.5,362.5C 365.382,366.574 362.049,369.241 357.5,370.5C 354.31,370.559 351.143,370.893 348,371.5C 343.735,370.274 339.568,368.94 335.5,367.5C 332.283,364.939 330.283,361.605 329.5,357.5C 328.45,352.886 328.283,348.22 329,343.5C 329.667,342.167 330.667,341.167 332,340.5C 332.003,337.251 333.17,334.584 335.5,332.5C 339.145,331.013 342.812,329.513 346.5,328C 348.81,327.503 351.143,327.337 353.5,327.5 Z"/></g>
<g><path style="opacity:1" fill="#e8a1b5" d="M 470.5,319.5 C 472.26,323.547 473.26,327.88 473.5,332.5C 449.994,332.831 426.661,332.498 403.5,331.5C 425.836,331.667 448.169,331.5 470.5,331C 470.959,327.273 470.959,323.439 470.5,319.5 Z"/></g>
<g><path style="opacity:1" fill="#fed9e3" d="M 548.5,329.5 C 552.084,330.546 555.75,331.379 559.5,332C 569.342,332.17 579.009,332.67 588.5,333.5C 577.162,333.667 565.828,333.5 554.5,333C 551.975,332.576 549.975,331.41 548.5,329.5 Z"/></g>
<g><path style="opacity:1" fill="#fee7f2" d="M 77.5,319.5 C 77.3334,338.17 77.5001,356.836 78,375.5C 79.0793,378.063 79.5793,380.729 79.5,383.5C 78.3485,381.221 77.3485,378.888 76.5,376.5C 76.1697,357.326 76.503,338.326 77.5,319.5 Z"/></g>
<g><path style="opacity:1" fill="#ed9cb3" d="M 543.5,326.5 C 545.332,327.248 546.999,328.248 548.5,329.5C 549.975,331.41 551.975,332.576 554.5,333C 565.828,333.5 577.162,333.667 588.5,333.5C 588.5,344.167 588.5,354.833 588.5,365.5C 576.829,365.333 565.162,365.5 553.5,366C 552.584,366.278 551.918,366.778 551.5,367.5C 551.167,367.5 550.833,367.5 550.5,367.5C 550.414,366.504 550.748,365.671 551.5,365C 553.278,364.296 555.112,363.796 557,363.5C 567.138,364.439 577.304,364.773 587.5,364.5C 587.5,354.5 587.5,344.5 587.5,334.5C 577.467,334.216 567.467,334.549 557.5,335.5C 551.015,334.947 546.349,331.947 543.5,326.5 Z"/></g>
<g><path style="opacity:1" fill="#f9d5e4" d="M 621.5,319.5 C 622.832,328.475 623.498,337.809 623.5,347.5C 623.333,356.833 623.167,366.167 623,375.5C 622.243,377.315 621.41,378.981 620.5,380.5C 621.44,360.189 621.773,339.856 621.5,319.5 Z"/></g>
<g><path style="opacity:1" fill="#eca6b8" d="M 335.5,332.5 C 333.17,334.584 332.003,337.251 332,340.5C 330.667,341.167 329.667,342.167 329,343.5C 328.283,348.22 328.45,352.886 329.5,357.5C 328.034,356.653 327.2,355.32 327,353.5C 325.426,346.315 327.092,339.982 332,334.5C 332.816,333.177 333.983,332.511 335.5,332.5 Z"/></g>
<g><path style="opacity:1" fill="#ef9eb3" d="M 367.5,335.5 C 372.635,342.053 373.802,349.386 371,357.5C 370.303,359.584 369.136,361.251 367.5,362.5C 369.006,358.565 369.672,354.399 369.5,350C 369.594,344.962 368.927,340.128 367.5,335.5 Z"/></g>
<g><path style="opacity:1" fill="#fedde9" d="M 294.5,335.5 C 294.167,342.167 293.833,348.833 293.5,355.5C 292.281,348.783 292.614,342.117 294.5,335.5 Z"/></g>
<g><path style="opacity:1" fill="#feeaf5" d="M 110.5,333.5 C 110.172,344.679 110.505,355.679 111.5,366.5C 110.614,367.776 109.614,367.776 108.5,366.5C 109.146,355.372 109.813,344.372 110.5,333.5 Z"/></g>
<g><path style="opacity:1" fill="#f8c8d7" d="M 190.5,335.5 C 190.833,346.167 191.167,356.833 191.5,367.5C 190.02,361.231 189.353,354.731 189.5,348C 189.501,343.653 189.834,339.486 190.5,335.5 Z"/></g>
<g><path style="opacity:1" fill="#fef4fc" d="M 470.5,382.5 C 470.756,379.402 471.422,376.402 472.5,373.5C 472.5,373.167 472.5,372.833 472.5,372.5C 473.461,370.735 473.795,368.735 473.5,366.5C 450.167,366.5 426.833,366.5 403.5,366.5C 404.507,365.172 405.84,364.172 407.5,363.5C 429.186,364.823 450.852,364.823 472.5,363.5C 473.696,363.846 473.696,364.346 472.5,365C 474.167,365.333 475.833,365.667 477.5,366C 476.584,366.374 475.75,366.874 475,367.5C 475.168,373.149 473.668,378.149 470.5,382.5 Z"/></g>
<g><path style="opacity:1" fill="#e9abbb" d="M 293.5,361.5 C 294.738,363.214 295.405,365.214 295.5,367.5C 293.692,366.082 293.025,364.082 293.5,361.5 Z"/></g>
<g><path style="opacity:1" fill="#f7cbd7" d="M 143.5,332.5 C 133.013,333.494 122.346,333.828 111.5,333.5C 111.5,344.167 111.5,354.833 111.5,365.5C 122.346,365.172 133.013,365.506 143.5,366.5C 132.833,366.5 122.167,366.5 111.5,366.5C 110.505,355.679 110.172,344.679 110.5,333.5C 121.321,332.505 132.321,332.172 143.5,332.5 Z"/></g>
<g><path style="opacity:1" fill="#fed4df" d="M 588.5,365.5 C 576.316,366.246 563.982,366.913 551.5,367.5C 551.918,366.778 552.584,366.278 553.5,366C 565.162,365.5 576.829,365.333 588.5,365.5 Z"/></g>
<g><path style="opacity:1" fill="#daadbc" d="M 403.5,367.5 C 403.5,367.167 403.5,366.833 403.5,366.5C 426.833,366.5 450.167,366.5 473.5,366.5C 473.795,368.735 473.461,370.735 472.5,372.5C 472.5,370.833 472.5,369.167 472.5,367.5C 449.5,367.5 426.5,367.5 403.5,367.5 Z"/></g>
<g><path style="opacity:1" fill="#fa8eab" d="M 403.5,367.5 C 426.5,367.5 449.5,367.5 472.5,367.5C 472.5,369.167 472.5,370.833 472.5,372.5C 472.5,372.833 472.5,373.167 472.5,373.5C 471.518,374.141 470.518,374.807 469.5,375.5C 468.231,383.625 466.564,391.625 464.5,399.5C 461.122,405.249 457.956,411.249 455,417.5C 448.382,427.284 440.548,435.951 431.5,443.5C 427.842,442.68 425.509,444.013 424.5,447.5C 423.532,448.489 422.365,449.156 421,449.5C 417.939,447.665 414.773,447.331 411.5,448.5C 413.5,449.167 415.5,449.833 417.5,450.5C 417,451.5 416.5,452.5 416,453.5C 411.932,455.719 407.766,457.885 403.5,460C 402.663,461.011 402.33,462.178 402.5,463.5C 401.209,463.263 400.209,463.596 399.5,464.5C 397.5,464.833 395.5,465.167 393.5,465.5C 387.64,467.297 381.64,468.464 375.5,469C 372.842,470.478 370.175,471.645 367.5,472.5C 367.5,472.833 367.5,473.167 367.5,473.5C 355.16,474.751 342.826,474.751 330.5,473.5C 326.603,472.945 322.937,471.945 319.5,470.5C 319.03,469.307 318.03,468.64 316.5,468.5C 312.511,467.702 308.511,467.035 304.5,466.5C 303.596,465.791 303.263,464.791 303.5,463.5C 304.5,463.5 305.5,463.5 306.5,463.5C 307.639,460.996 308.306,458.33 308.5,455.5C 311.988,452.751 313.988,449.085 314.5,444.5C 317.084,443.952 318.084,442.285 317.5,439.5C 321.629,438.466 324.629,435.966 326.5,432C 324.881,431.764 323.881,430.931 323.5,429.5C 326.457,421.585 330.457,414.252 335.5,407.5C 350.388,408.15 365.054,406.817 379.5,403.5C 378.998,402.284 378.665,401.117 378.5,400C 383.303,398.783 386.636,395.949 388.5,391.5C 389.833,391.5 391.167,391.5 392.5,391.5C 392.343,390.127 392.51,388.793 393,387.5C 397.361,385.631 399.528,382.298 399.5,377.5C 400.639,374.082 401.972,370.749 403.5,367.5 Z"/></g>
<g><path style="opacity:1" fill="#f2b3c3" d="M 335.5,367.5 C 339.568,368.94 343.735,370.274 348,371.5C 351.143,370.893 354.31,370.559 357.5,370.5C 356.737,371.268 355.737,371.768 354.5,372C 347.283,373.62 340.949,372.12 335.5,367.5 Z"/></g>
<g><path style="opacity:1" fill="#f09bb3" d="M 472.5,373.5 C 471.422,376.402 470.756,379.402 470.5,382.5C 468.641,388.301 466.641,393.968 464.5,399.5C 466.564,391.625 468.231,383.625 469.5,375.5C 470.518,374.807 471.518,374.141 472.5,373.5 Z"/></g>
<g><path style="opacity:1" fill="#eca2b6" d="M 508.5,367.5 C 508.63,371.868 508.297,376.202 507.5,380.5C 507.36,382.03 506.693,383.03 505.5,383.5C 505.871,377.924 506.871,372.591 508.5,367.5 Z"/></g>
<g><path style="opacity:1" fill="#ed9cb0" d="M 227.5,373.5 C 228.151,374.091 228.818,374.757 229.5,375.5C 230.86,382.935 232.526,390.269 234.5,397.5C 233.883,397.389 233.383,397.056 233,396.5C 230.554,388.954 228.721,381.287 227.5,373.5 Z"/></g>
<g><path style="opacity:1" fill="#f0a2b9" d="M 399.5,377.5 C 399.528,382.298 397.361,385.631 393,387.5C 392.51,388.793 392.343,390.127 392.5,391.5C 391.167,391.5 389.833,391.5 388.5,391.5C 392.197,386.809 395.864,382.142 399.5,377.5 Z"/></g>
<g><path style="opacity:1" fill="#f9e7f0" d="M 154.5,373.5 C 156.592,376.473 158.092,379.807 159,383.5C 159.497,385.81 159.663,388.143 159.5,390.5C 156.079,388.496 155.079,385.663 156.5,382C 155.313,379.276 154.647,376.443 154.5,373.5 Z"/></g>
<g><path style="opacity:1" fill="#f0b3c2" d="M 82.5,389.5 C 84.8333,391.167 86.8333,393.167 88.5,395.5C 85.5,394.5 83.5,392.5 82.5,389.5 Z"/></g>
<g><path style="opacity:1" fill="#fad5e3" d="M 305.5,385.5 C 308.442,389.118 307.775,392.118 303.5,394.5C 303.5,394.167 303.5,393.833 303.5,393.5C 304.685,392.143 305.685,390.643 306.5,389C 306.011,387.862 305.678,386.695 305.5,385.5 Z"/></g>
<g><path style="opacity:1" fill="#fee6ef" d="M 543.5,375.5 C 542.173,385.958 540.34,396.291 538,406.5C 536.476,408.898 534.976,411.231 533.5,413.5C 536.826,402.707 539.326,391.707 541,380.5C 541.374,378.509 542.207,376.842 543.5,375.5 Z"/></g>
<g><path style="opacity:1" fill="#ec9db2" d="M 303.5,393.5 C 303.5,393.833 303.5,394.167 303.5,394.5C 302.161,396.873 300.828,399.207 299.5,401.5C 299.338,399.473 299.505,397.473 300,395.5C 300.816,394.177 301.983,393.511 303.5,393.5 Z"/></g>
<g><path style="opacity:1" fill="#ec9db4" d="M 159.5,391.5 C 161.017,391.511 162.184,392.177 163,393.5C 163.499,397.486 163.666,401.486 163.5,405.5C 162.053,400.972 160.719,396.306 159.5,391.5 Z"/></g>
<g><path style="opacity:1" fill="#f3c9d4" d="M 89.5,395.5 C 92.5134,395.581 94.5134,396.914 95.5,399.5C 92.9641,398.963 90.9641,397.63 89.5,395.5 Z"/></g>
<g><path style="opacity:1" fill="#f29ab3" d="M 388.5,391.5 C 386.636,395.949 383.303,398.783 378.5,400C 378.665,401.117 378.998,402.284 379.5,403.5C 365.054,406.817 350.388,408.15 335.5,407.5C 336.134,406.053 337.301,405.387 339,405.5C 353.282,407.277 366.782,404.777 379.5,398C 382.397,395.59 385.397,393.423 388.5,391.5 Z"/></g>
<g><path style="opacity:1" fill="#f198b1" d="M 193.5,383.5 C 196.19,390.54 198.356,397.873 200,405.5C 203.051,410.934 205.551,416.6 207.5,422.5C 206.5,422.5 205.5,422.5 204.5,422.5C 205.405,417.639 203.405,414.973 198.5,414.5C 199.97,411.681 199.804,409.014 198,406.5C 197.417,408.002 196.584,409.335 195.5,410.5C 194.408,407.569 194.741,404.736 196.5,402C 194.646,395.976 193.646,389.809 193.5,383.5 Z"/></g>
<g><path style="opacity:1" fill="#ef98b0" d="M 543.5,374.5 C 543.5,374.833 543.5,375.167 543.5,375.5C 542.207,376.842 541.374,378.509 541,380.5C 539.326,391.707 536.826,402.707 533.5,413.5C 533.672,414.492 533.338,415.158 532.5,415.5C 532.336,412.813 532.503,410.146 533,407.5C 536.303,400.787 537.303,393.787 536,386.5C 536.605,388.481 537.605,388.815 539,387.5C 539.333,383.833 539.667,380.167 540,376.5C 540.816,375.177 541.983,374.511 543.5,374.5 Z"/></g>
<g><path style="opacity:1" fill="#efa4b9" d="M 163.5,405.5 C 164.75,405.577 165.583,406.244 166,407.5C 166.495,409.473 166.662,411.473 166.5,413.5C 164.345,411.383 163.345,408.716 163.5,405.5 Z"/></g>
<g><path style="opacity:1" fill="#ef9cb2" d="M 505.5,383.5 C 503.753,391.375 502.253,399.375 501,407.5C 499.94,410.844 498.107,413.51 495.5,415.5C 499.471,404.913 502.804,394.247 505.5,383.5 Z"/></g>
<g><path style="opacity:1" fill="#eca3b6" d="M 299.5,402.5 C 296.569,406.025 294.402,410.025 293,414.5C 292.329,415.252 291.496,415.586 290.5,415.5C 290.343,414.127 290.51,412.793 291,411.5C 293.084,408.997 294.917,406.331 296.5,403.5C 297.417,402.873 298.417,402.539 299.5,402.5 Z"/></g>
<g><path style="opacity:1" fill="#eea5b8" d="M 597.5,399.5 C 589.684,400.492 581.684,400.826 573.5,400.5C 572.537,405.53 571.704,410.53 571,415.5C 571.51,418.005 573.01,419.505 575.5,420C 578.833,419.667 582.167,419.333 585.5,419C 581.864,420.101 580.864,422.268 582.5,425.5C 577.969,423.659 573.635,421.326 569.5,418.5C 569.167,417.5 568.833,416.5 568.5,415.5C 569.509,410.465 570.675,405.465 572,400.5C 580.415,399.517 588.915,399.183 597.5,399.5 Z"/></g>
<g><path style="opacity:1" fill="#eca0b6" d="M 129.5,412.5 C 131.008,414.171 131.341,416.004 130.5,418C 124.981,420.591 119.648,423.425 114.5,426.5C 114.511,424.983 115.177,423.816 116.5,423C 120.17,420.509 124.17,418.676 128.5,417.5C 129.452,415.955 129.785,414.288 129.5,412.5 Z"/></g>
<g><path style="opacity:1" fill="#eda6b9" d="M 532.5,415.5 C 530.816,420.676 530.15,426.009 530.5,431.5C 529.512,426.36 529.179,421.026 529.5,415.5C 530.5,415.5 531.5,415.5 532.5,415.5 Z"/></g>
<g><path style="opacity:1" fill="#ee9cb2" d="M 167.5,415.5 C 169.284,416.574 170.451,418.24 171,420.5C 171.825,424.211 171.659,427.878 170.5,431.5C 167.787,435.039 164.787,438.372 161.5,441.5C 159.955,442.452 158.288,442.785 156.5,442.5C 161.096,439.739 164.93,436.073 168,431.5C 168.529,426.146 168.362,420.813 167.5,415.5 Z"/></g>
<g><path style="opacity:1" fill="#ecbdc9" d="M 106.5,431.5 C 106.25,433.674 105.25,435.341 103.5,436.5C 103.592,434.152 104.592,432.486 106.5,431.5 Z"/></g>
<g><path style="opacity:1" fill="#f6bfce" d="M 255.5,432.5 C 259.478,434.478 262.478,437.478 264.5,441.5C 261.242,438.909 258.242,435.909 255.5,432.5 Z"/></g>
<g><path style="opacity:1" fill="#efa0b7" d="M 487.5,429.5 C 487.66,431.199 487.494,432.866 487,434.5C 484.361,438.639 481.528,442.639 478.5,446.5C 477.675,447.386 476.675,447.719 475.5,447.5C 479.503,441.492 483.503,435.492 487.5,429.5 Z"/></g>
<g><path style="opacity:1" fill="#f59bb2" d="M 323.5,429.5 C 323.881,430.931 324.881,431.764 326.5,432C 324.629,435.966 321.629,438.466 317.5,439.5C 319.046,437.118 319.713,434.451 319.5,431.5C 321.199,431.473 322.533,430.806 323.5,429.5 Z"/></g>
<g><path style="opacity:1" fill="#f1a3b8" d="M 264.5,441.5 C 268.656,441.32 270.99,443.32 271.5,447.5C 268.94,445.727 266.607,443.727 264.5,441.5 Z"/></g>
<g><path style="opacity:1" fill="#eea7b8" d="M 317.5,439.5 C 318.084,442.285 317.084,443.952 314.5,444.5C 314.75,442.326 315.75,440.659 317.5,439.5 Z"/></g>
<g><path style="opacity:1" fill="#eea6b9" d="M 281.5,433.5 C 278.497,438.175 275.497,442.841 272.5,447.5C 273.955,441.944 276.955,437.277 281.5,433.5 Z"/></g>
<g><path style="opacity:1" fill="#f199b0" d="M 431.5,443.5 C 422.668,451.413 413.002,458.079 402.5,463.5C 402.33,462.178 402.663,461.011 403.5,460C 407.766,457.885 411.932,455.719 416,453.5C 416.5,452.5 417,451.5 417.5,450.5C 415.5,449.833 413.5,449.167 411.5,448.5C 414.773,447.331 417.939,447.665 421,449.5C 422.365,449.156 423.532,448.489 424.5,447.5C 425.509,444.013 427.842,442.68 431.5,443.5 Z"/></g>
<g><path style="opacity:1" fill="#f09eb3" d="M 156.5,442.5 C 156.631,443.376 156.298,444.043 155.5,444.5C 153.941,445.074 152.441,445.74 151,446.5C 150.64,448.421 149.806,450.088 148.5,451.5C 144.843,452.248 141.177,452.915 137.5,453.5C 140.018,450.744 143.018,448.744 146.5,447.5C 149.55,445.308 152.883,443.642 156.5,442.5 Z"/></g>
<g><path style="opacity:1" fill="#f6b6c7" d="M 475.5,447.5 C 474.92,449.749 473.587,451.415 471.5,452.5C 472.08,450.251 473.413,448.585 475.5,447.5 Z"/></g>
<g><path style="opacity:1" fill="#edaabc" d="M 314.5,444.5 C 313.988,449.085 311.988,452.751 308.5,455.5C 309.672,451.342 311.672,447.675 314.5,444.5 Z"/></g>
<g><path style="opacity:1" fill="#ec9cb5" d="M 137.5,453.5 C 138.76,457.359 139.76,461.359 140.5,465.5C 139.163,462.284 137.496,459.117 135.5,456C 135.639,454.699 136.305,453.866 137.5,453.5 Z"/></g>
<g><path style="opacity:1" fill="#fde8f2" d="M 146.5,447.5 C 143.018,448.744 140.018,450.744 137.5,453.5C 136.305,453.866 135.639,454.699 135.5,456C 137.496,459.117 139.163,462.284 140.5,465.5C 141.89,466.899 142.89,468.566 143.5,470.5C 142.178,470.67 141.011,470.337 140,469.5C 139.269,464.728 137.436,460.561 134.5,457C 134.396,454.855 135.063,453.021 136.5,451.5C 138.517,450.826 140.183,449.659 141.5,448C 143.134,447.506 144.801,447.34 146.5,447.5 Z"/></g>
<g><path style="opacity:1" fill="#eba8b9" d="M 98.5,447.5 C 98.4724,452.862 98.8058,458.195 99.5,463.5C 98.1883,461.257 97.5217,458.59 97.5,455.5C 97.5025,452.645 97.8359,449.978 98.5,447.5 Z"/></g>
<g><path style="opacity:1" fill="#eba2b3" d="M 308.5,455.5 C 308.306,458.33 307.639,460.996 306.5,463.5C 305.5,463.5 304.5,463.5 303.5,463.5C 304.669,460.489 306.336,457.822 308.5,455.5 Z"/></g>
<g><path style="opacity:1" fill="#f3b8c6" d="M 468.5,455.5 C 467.833,458.167 466.167,459.833 463.5,460.5C 464.833,458.5 466.5,456.833 468.5,455.5 Z"/></g>
<g><path style="opacity:1" fill="#f4cdd7" d="M 191.5,466.5 C 186.07,466.517 180.737,467.183 175.5,468.5C 176.23,466.955 177.563,466.122 179.5,466C 183.689,465.188 187.689,465.355 191.5,466.5 Z"/></g>
<g><path style="opacity:1" fill="#f19fb5" d="M 527.5,470.5 C 524.746,469.634 522.079,468.467 519.5,467C 516.183,466.502 512.85,466.335 509.5,466.5C 507.142,466.253 505.142,466.919 503.5,468.5C 503.414,467.504 503.748,466.671 504.5,466C 510.46,464.36 516.46,464.193 522.5,465.5C 524.188,467.188 525.854,468.854 527.5,470.5 Z"/></g>
<g><path style="opacity:1" fill="#f19cb2" d="M 600.5,447.5 C 601.787,448.871 602.453,450.705 602.5,453C 602.026,457.869 601.359,462.702 600.5,467.5C 601.833,467.5 603.167,467.5 604.5,467.5C 604.5,469.5 604.5,471.5 604.5,473.5C 603.167,473.5 601.833,473.5 600.5,473.5C 600.5,472.167 600.5,470.833 600.5,469.5C 596.956,469.239 595.122,470.905 595,474.5C 593.887,475.305 592.721,475.972 591.5,476.5C 593.471,471.895 595.971,467.562 599,463.5C 600.191,458.233 600.691,452.899 600.5,447.5 Z"/></g>
<g><path style="opacity:1" fill="#eba8ba" d="M 304.5,466.5 C 308.511,467.035 312.511,467.702 316.5,468.5C 318.03,468.64 319.03,469.307 319.5,470.5C 314.199,469.999 309.199,468.666 304.5,466.5 Z"/></g>
<g><path style="opacity:1" fill="#ee96b0" d="M 393.5,465.5 C 385.476,469.845 376.809,472.178 367.5,472.5C 370.175,471.645 372.842,470.478 375.5,469C 381.64,468.464 387.64,467.297 393.5,465.5 Z"/></g>
<g><path style="opacity:1" fill="#f7cfd9" d="M 509.5,466.5 C 507.544,467.492 505.544,468.492 503.5,469.5C 503.5,469.167 503.5,468.833 503.5,468.5C 505.142,466.919 507.142,466.253 509.5,466.5 Z"/></g>
<g><path style="opacity:1" fill="#fee9f2" d="M 559.5,464.5 C 559.657,465.873 559.49,467.207 559,468.5C 556.642,473.181 554.309,477.847 552,482.5C 550.057,483.807 548.223,483.807 546.5,482.5C 547.822,482.67 548.989,482.337 550,481.5C 552.196,475.175 555.363,469.509 559.5,464.5 Z"/></g>
<g><path style="opacity:1" fill="#fee4ee" d="M 399.5,464.5 C 396.737,466.08 394.07,467.913 391.5,470C 383.497,471.521 375.497,472.687 367.5,473.5C 367.5,473.167 367.5,472.833 367.5,472.5C 376.809,472.178 385.476,469.845 393.5,465.5C 395.5,465.167 397.5,464.833 399.5,464.5 Z"/></g>
<g><path style="opacity:1" fill="#f3a3b8" d="M 460.5,463.5 C 458.657,466.189 456.99,469.022 455.5,472C 452.664,472.921 449.998,474.088 447.5,475.5C 451.807,471.528 456.141,467.528 460.5,463.5 Z"/></g>
<g><path style="opacity:1" fill="#eb9db3" d="M 559.5,463.5 C 559.5,463.833 559.5,464.167 559.5,464.5C 555.363,469.509 552.196,475.175 550,481.5C 548.989,482.337 547.822,482.67 546.5,482.5C 544.81,482.144 543.81,481.144 543.5,479.5C 545.5,479.5 547.5,479.5 549.5,479.5C 549.34,477.801 549.506,476.134 550,474.5C 552.712,471.064 554.879,467.397 556.5,463.5C 557.5,463.5 558.5,463.5 559.5,463.5 Z"/></g>
<g><path style="opacity:1" fill="#fcd1de" d="M 171.5,471.5 C 168.39,473.671 165.056,475.671 161.5,477.5C 163.978,474.214 167.311,472.214 171.5,471.5 Z"/></g>
<g><path style="opacity:1" fill="#fee3ed" d="M 330.5,473.5 C 342.826,474.751 355.16,474.751 367.5,473.5C 360.73,475.001 353.73,475.667 346.5,475.5C 341.833,475.333 337.167,475.167 332.5,475C 331.584,474.722 330.918,474.222 330.5,473.5 Z"/></g>
<g><path style="opacity:1" fill="#efa0b5" d="M 527.5,470.5 C 529.604,470.201 531.604,470.534 533.5,471.5C 535.444,474.155 538.11,475.489 541.5,475.5C 541.433,476.959 541.766,478.292 542.5,479.5C 537.027,477.265 532.027,474.265 527.5,470.5 Z"/></g>
<g><path style="opacity:1" fill="#fee9f4" d="M 145.5,474.5 C 147.362,476.891 148.696,479.558 149.5,482.5C 150.873,482.657 152.207,482.49 153.5,482C 154.078,480.583 155.078,479.75 156.5,479.5C 156.33,480.822 156.663,481.989 157.5,483C 149.394,485.71 145.394,482.877 145.5,474.5 Z"/></g>
<g><path style="opacity:1" fill="#f3b6c5" d="M 207.5,482.5 C 210.167,483.167 211.833,484.833 212.5,487.5C 210.5,486.167 208.833,484.5 207.5,482.5 Z"/></g>
<g><path style="opacity:1" fill="#ed9eb5" d="M 447.5,475.5 C 445.144,478.71 442.477,481.877 439.5,485C 436.883,485.822 434.216,486.322 431.5,486.5C 436.825,482.836 442.158,479.17 447.5,475.5 Z"/></g>
<g><path style="opacity:1" fill="#f099af" d="M 212.5,487.5 C 215.511,487.827 218.011,489.161 220,491.5C 220.833,490.5 221.667,489.5 222.5,488.5C 222.833,489.167 223.167,489.833 223.5,490.5C 222.813,492.177 222.146,493.844 221.5,495.5C 217.895,493.528 214.895,490.861 212.5,487.5 Z"/></g>
<g><path style="opacity:1" fill="#faceda" d="M 487.5,486.5 C 485.923,489.05 483.923,491.05 481.5,492.5C 482.622,489.562 484.622,487.562 487.5,486.5 Z"/></g>
<g><path style="opacity:1" fill="#ee9eb4" d="M 431.5,486.5 C 428.403,489.416 425.069,492.25 421.5,495C 419.527,495.495 417.527,495.662 415.5,495.5C 420.177,491.491 425.511,488.491 431.5,486.5 Z"/></g>
<g><path style="opacity:1" fill="#f2a3b9" d="M 582.5,492.5 C 582.263,495.647 581.43,498.647 580,501.5C 578.871,503.141 577.371,504.141 575.5,504.5C 577.862,500.432 580.195,496.432 582.5,492.5 Z"/></g>
<g><path style="opacity:1" fill="#efa9bc" d="M 116.5,492.5 C 119.328,495.675 121.328,499.342 122.5,503.5C 118.767,500.853 116.767,497.187 116.5,492.5 Z"/></g>
<g><path style="opacity:1" fill="#eda7b9" d="M 292.5,498.5 C 296.341,499.598 300.008,500.931 303.5,502.5C 298.965,503.047 295.298,501.714 292.5,498.5 Z"/></g>
<g><path style="opacity:1" fill="#eaa5b7" d="M 413.5,495.5 C 413.586,496.496 413.252,497.329 412.5,498C 408.93,499.31 405.263,500.143 401.5,500.5C 405.408,498.843 409.408,497.176 413.5,495.5 Z"/></g>
<g><path style="opacity:1" fill="#feeff4" d="M 477.5,495.5 C 477.905,497.65 478.405,499.65 479,501.5C 478.667,501.833 478.333,502.167 478,502.5C 476.867,500.789 475.367,500.289 473.5,501C 472.667,503.167 471.167,504.667 469,505.5C 468.5,508.5 468,511.5 467.5,514.5C 468.889,517.672 469.889,521.005 470.5,524.5C 469.196,523.013 468.03,521.346 467,519.5C 465.946,513.886 466.446,508.552 468.5,503.5C 471.761,501.051 474.761,498.384 477.5,495.5 Z"/></g>
<g><path style="opacity:1" fill="#ef9fb6" d="M 395.5,502.5 C 394.909,503.151 394.243,503.818 393.5,504.5C 390.232,505.487 386.898,505.82 383.5,505.5C 387.239,503.898 391.239,502.898 395.5,502.5 Z"/></g>
<g><path style="opacity:1" fill="#f496b0" d="M 303.5,502.5 C 314.15,505.162 324.817,507.162 335.5,508.5C 328.479,508.624 321.479,508.29 314.5,507.5C 309.803,507.949 305.137,508.616 300.5,509.5C 299.5,509.167 298.5,508.833 297.5,508.5C 297.709,507.914 298.043,507.414 298.5,507C 301.244,506.002 303.911,505.335 306.5,505C 304.881,504.764 303.881,503.931 303.5,502.5 Z"/></g>
<g><path style="opacity:1" fill="#eda3b7" d="M 383.5,505.5 C 378.518,507.739 373.184,508.739 367.5,508.5C 372.551,506.656 377.884,505.656 383.5,505.5 Z"/></g>
<g><path style="opacity:1" fill="#f1a1b7" d="M 519.5,506.5 C 518.5,506.5 517.5,506.5 516.5,506.5C 516.616,509.91 514.95,511.244 511.5,510.5C 512.968,509.194 514.301,507.694 515.5,506C 517.066,505.235 518.399,505.402 519.5,506.5 Z"/></g>
<g><path style="opacity:1" fill="#f097af" d="M 223.5,495.5 C 224.552,495.351 225.552,495.517 226.5,496C 228.891,499.297 231.391,502.463 234,505.5C 235.351,511.072 235.851,516.738 235.5,522.5C 234.041,522.433 232.708,522.766 231.5,523.5C 231.5,522.833 231.5,522.167 231.5,521.5C 235.01,511.873 232.51,504.206 224,498.5C 223.517,497.552 223.351,496.552 223.5,495.5 Z"/></g>
<g><path style="opacity:1" fill="#eba4b7" d="M 575.5,505.5 C 574.611,510.057 571.944,513.057 567.5,514.5C 570.116,511.545 572.782,508.545 575.5,505.5 Z"/></g>
<g><path style="opacity:1" fill="#f4b7c8" d="M 510.5,511.5 C 508.716,513.948 507.382,516.615 506.5,519.5C 505.317,515.915 506.65,513.248 510.5,511.5 Z"/></g>
<g><path style="opacity:1" fill="#ee9db5" d="M 183.5,507.5 C 182.262,506.588 180.928,506.421 179.5,507C 174.353,510.218 169.686,513.884 165.5,518C 161.855,518.719 158.188,519.219 154.5,519.5C 154.5,519.167 154.5,518.833 154.5,518.5C 163.632,515.547 171.966,511.047 179.5,505C 181.945,504.09 183.278,504.924 183.5,507.5 Z"/></g>
<g><path style="opacity:1" fill="#fde1ea" d="M 137.5,517.5 C 143.172,517.76 148.839,518.093 154.5,518.5C 154.5,518.833 154.5,519.167 154.5,519.5C 148.583,519.784 142.916,519.117 137.5,517.5 Z"/></g>
<g><path style="opacity:1" fill="#f395af" d="M 186.5,510.5 C 189.79,512.124 192.457,514.457 194.5,517.5C 192.585,519.071 191.585,521.071 191.5,523.5C 190.542,523.953 189.708,524.619 189,525.5C 186.74,530.356 184.24,535.022 181.5,539.5C 183.248,534.759 184.914,529.926 186.5,525C 185.953,522.783 184.953,520.783 183.5,519C 183.613,517.72 184.28,516.887 185.5,516.5C 186.466,514.604 186.799,512.604 186.5,510.5 Z"/></g>
<g><path style="opacity:1" fill="#f29fb5" d="M 468.5,503.5 C 466.446,508.552 465.946,513.886 467,519.5C 468.03,521.346 469.196,523.013 470.5,524.5C 470.5,525.5 470.5,526.5 470.5,527.5C 468.924,525.416 467.091,523.416 465,521.5C 464.47,515.796 464.803,510.129 466,504.5C 466.671,503.748 467.504,503.414 468.5,503.5 Z"/></g>
<g><path style="opacity:1" fill="#ee98b1" d="M 565.5,515.5 C 565.141,517.371 564.141,518.871 562.5,520C 555.986,520.82 549.653,520.653 543.5,519.5C 551.256,520.247 558.59,518.913 565.5,515.5 Z"/></g>
<g><path style="opacity:1" fill="#f492ac" d="M 127.5,511.5 C 130.841,513.503 134.175,515.503 137.5,517.5C 142.916,519.117 148.583,519.784 154.5,519.5C 151.038,520.482 147.371,520.815 143.5,520.5C 143.5,521.5 143.5,522.5 143.5,523.5C 150.524,523.608 157.524,524.108 164.5,525C 164.957,525.414 165.291,525.914 165.5,526.5C 164,526.833 162.5,527.167 161,527.5C 157.333,526.833 153.667,526.167 150,525.5C 146.178,526.678 142.345,526.678 138.5,525.5C 138.561,522.95 139.894,521.45 142.5,521C 140.2,520.342 137.867,519.842 135.5,519.5C 132.989,520.655 130.322,521.322 127.5,521.5C 127.5,520.5 127.5,519.5 127.5,518.5C 128.833,518.5 130.167,518.5 131.5,518.5C 131.833,515.5 130.5,514.167 127.5,514.5C 127.5,513.5 127.5,512.5 127.5,511.5 Z"/></g>
<g><path style="opacity:1" fill="#edb0c2" d="M 231.5,521.5 C 231.5,522.167 231.5,522.833 231.5,523.5C 230.978,525.219 229.978,526.552 228.5,527.5C 228.461,524.911 229.461,522.911 231.5,521.5 Z"/></g>
<g><path style="opacity:1" fill="#f19db3" d="M 439.5,537.5 C 432.701,530.348 424.701,528.682 415.5,532.5C 415.5,531.5 415.5,530.5 415.5,529.5C 421.502,528.277 427.502,528.277 433.5,529.5C 437.879,526.633 438.879,527.3 436.5,531.5C 437.519,533.511 438.519,535.511 439.5,537.5 Z"/></g>
<g><path style="opacity:1" fill="#f39eb6" d="M 279.5,530.5 C 274.752,530.275 270.085,530.775 265.5,532C 262.696,535.145 260.03,538.312 257.5,541.5C 257.678,538.784 258.178,536.117 259,533.5C 259.414,533.957 259.914,534.291 260.5,534.5C 261.731,533.349 261.731,532.183 260.5,531C 264.813,530.658 269.313,530.158 274,529.5C 276.033,529.506 277.866,529.839 279.5,530.5 Z"/></g>
<g><path style="opacity:1" fill="#f0a7bb" d="M 227.5,529.5 C 228.109,532.878 226.776,534.878 223.5,535.5C 223.684,532.663 225.018,530.663 227.5,529.5 Z"/></g>
<g><path style="opacity:1" fill="#e6a9b8" d="M 289.5,534.5 C 291.527,534.338 293.527,534.505 295.5,535C 296.056,535.383 296.389,535.883 296.5,536.5C 293.99,536.073 291.657,535.407 289.5,534.5 Z"/></g>
<g><path style="opacity:1" fill="#fdebf2" d="M 191.5,523.5 C 189.855,526.599 188.688,529.932 188,533.5C 183.277,539.37 180.777,546.037 180.5,553.5C 179.521,550.375 179.187,547.042 179.5,543.5C 180.167,542.167 180.833,540.833 181.5,539.5C 184.24,535.022 186.74,530.356 189,525.5C 189.708,524.619 190.542,523.953 191.5,523.5 Z"/></g>
<g><path style="opacity:1" fill="#efa0b6" d="M 415.5,532.5 C 410.179,533.975 404.846,535.808 399.5,538C 393.29,539.722 386.957,540.722 380.5,541C 378.359,541.573 376.359,542.406 374.5,543.5C 374.511,541.983 375.177,540.816 376.5,540C 380.833,539.667 385.167,539.333 389.5,539C 393.878,536.861 398.545,535.528 403.5,535C 404.167,534.333 404.833,533.667 405.5,533C 408.817,532.502 412.15,532.335 415.5,532.5 Z"/></g>
<g><path style="opacity:1" fill="#f3bac9" d="M 300.5,537.5 C 307.645,538.265 314.645,539.432 321.5,541C 322.942,541.377 323.942,542.21 324.5,543.5C 316.87,541.92 309.203,540.42 301.5,539C 300.944,538.617 300.611,538.117 300.5,537.5 Z"/></g>
<g><path style="opacity:1" fill="#f398af" d="M 470.5,527.5 C 473.961,531.725 476.961,536.392 479.5,541.5C 477.088,541.694 476.088,543.027 476.5,545.5C 474.409,545.318 472.409,545.652 470.5,546.5C 469.5,546.167 468.833,545.5 468.5,544.5C 474.268,543.288 475.935,539.954 473.5,534.5C 470.907,532.929 469.907,530.596 470.5,527.5 Z"/></g>
<g><path style="opacity:1" fill="#ec9eb8" d="M 479.5,543.5 C 481.969,544.607 482.969,546.607 482.5,549.5C 481.5,549.5 480.5,549.5 479.5,549.5C 479.5,547.5 479.5,545.5 479.5,543.5 Z"/></g>
<g><path style="opacity:1" fill="#ef9eb4" d="M 179.5,543.5 C 179.187,547.042 179.521,550.375 180.5,553.5C 180.5,555.5 180.5,557.5 180.5,559.5C 179.065,556.45 178.398,553.117 178.5,549.5C 178.505,547.304 178.838,545.304 179.5,543.5 Z"/></g>
<g><path style="opacity:1" fill="#f398b0" d="M 223.5,535.5 C 221.951,539.973 220.951,544.639 220.5,549.5C 223.319,550.494 226.153,551.494 229,552.5C 229.617,551.551 229.451,550.718 228.5,550C 237.166,547.748 237.499,549.081 229.5,554C 230.43,554.991 231.596,555.491 233,555.5C 235.17,554.478 237.336,553.478 239.5,552.5C 239.786,554.277 240.453,555.944 241.5,557.5C 240.775,558.867 240.108,560.2 239.5,561.5C 231.858,557.927 224.358,553.927 217,549.5C 216.333,548.167 216.333,546.833 217,545.5C 219.453,542.322 221.619,538.989 223.5,535.5 Z"/></g>
<g><path style="opacity:1" fill="#e99cb1" d="M 479.5,550.5 C 474.172,553.492 468.838,556.492 463.5,559.5C 463.5,558.5 463.5,557.5 463.5,556.5C 466.919,554.954 470.253,553.121 473.5,551C 475.473,550.505 477.473,550.338 479.5,550.5 Z"/></g>
<g><path style="opacity:1" fill="#e8b1bf" d="M 240.5,562.5 C 242.167,562.5 243.833,562.5 245.5,562.5C 244.084,564.851 242.417,564.851 240.5,562.5 Z"/></g>
<g><path style="opacity:1" fill="#eca8bb" d="M 519.5,543.5 C 520.687,549.371 520.52,555.371 519,561.5C 518.583,562.756 517.75,563.423 516.5,563.5C 518.794,557.067 519.794,550.4 519.5,543.5 Z"/></g>
<g><path style="opacity:1" fill="#f0a2b6" d="M 516.5,563.5 C 516.798,567.601 515.132,570.267 511.5,571.5C 511.351,570.448 511.517,569.448 512,568.5C 513.976,567.178 515.476,565.512 516.5,563.5 Z"/></g>
<g><path style="opacity:1" fill="#efa4b8" d="M 301.5,607.5 C 299.025,605.377 297.691,602.543 297.5,599C 298.753,590.805 298.753,582.638 297.5,574.5C 292.885,573.075 288.218,571.742 283.5,570.5C 281.667,572.149 280,573.816 278.5,575.5C 278.481,571.845 280.147,569.512 283.5,568.5C 288.797,570.045 294.13,571.378 299.5,572.5C 299.003,584.27 299.67,595.936 301.5,607.5 Z"/></g>
<g><path style="opacity:1" fill="#e9a1b4" d="M 421.5,575.5 C 420.5,575.5 419.5,575.5 418.5,575.5C 418.621,572.459 417.121,570.792 414,570.5C 411.276,571.687 408.443,572.353 405.5,572.5C 406.5,571.833 407.5,571.167 408.5,570.5C 414.989,566.662 419.323,568.329 421.5,575.5 Z"/></g>
<g><path style="opacity:1" fill="#e7bbc4" d="M 408.5,570.5 C 407.5,571.167 406.5,571.833 405.5,572.5C 403.833,572.5 402.167,572.5 400.5,572.5C 402.905,571.232 405.572,570.565 408.5,570.5 Z"/></g>
<g><path style="opacity:1" fill="#f09ab3" d="M 278.5,575.5 C 278.996,581.175 276.829,585.509 272,588.5C 271.517,589.448 271.351,590.448 271.5,591.5C 270.5,591.5 269.5,591.5 268.5,591.5C 270.561,585.227 273.895,579.893 278.5,575.5 Z"/></g>
<g><path style="opacity:1" fill="#eeafc0" d="M 421.5,575.5 C 423.162,578.12 424.828,580.787 426.5,583.5C 423.167,581.841 421.5,579.175 421.5,575.5 Z"/></g>
<g><path style="opacity:1" fill="#f29ab3" d="M 505.5,575.5 C 505.321,577.606 504.321,579.272 502.5,580.5C 498.093,581.86 493.76,583.193 489.5,584.5C 494.177,580.491 499.511,577.491 505.5,575.5 Z"/></g>
<g><path style="opacity:1" fill="#f09ab2" d="M 201.5,579.5 C 206.721,582.61 212.055,585.443 217.5,588C 218.71,589.039 219.71,590.206 220.5,591.5C 217.664,590.224 214.664,589.558 211.5,589.5C 211.67,588.178 211.337,587.011 210.5,586C 207.854,585.503 205.187,585.336 202.5,585.5C 202.483,583.435 202.15,581.435 201.5,579.5 Z"/></g>
<g><path style="opacity:1" fill="#f0a8bc" d="M 332.5,550.5 C 334.239,552.375 335.239,554.708 335.5,557.5C 334.384,567.138 334.217,576.805 335,586.5C 344.75,587.486 354.584,587.819 364.5,587.5C 364.774,576.656 365.44,565.99 366.5,555.5C 366.828,566.679 366.495,577.679 365.5,588.5C 354.833,588.5 344.167,588.5 333.5,588.5C 333.775,575.796 333.442,563.13 332.5,550.5 Z"/></g>
<g><path style="opacity:1" fill="#ffe5f2" d="M 333.5,588.5 C 344.167,588.5 354.833,588.5 365.5,588.5C 365.38,589.586 364.713,590.253 363.5,590.5C 358.529,589.885 353.529,589.552 348.5,589.5C 343.746,589.534 339.246,590.201 335,591.5C 334.487,590.473 333.987,589.473 333.5,588.5 Z"/></g>
<g><path style="opacity:1" fill="#f0a4ba" d="M 426.5,583.5 C 428.153,586.131 429.819,588.797 431.5,591.5C 430.167,591.5 428.833,591.5 427.5,591.5C 427.167,588.833 426.833,586.167 426.5,583.5 Z"/></g>
<g><path style="opacity:1" fill="#fef0f6" d="M 469.5,594.5 C 463.278,599.882 455.944,601.882 447.5,600.5C 441.614,599.892 436.947,597.226 433.5,592.5C 434.496,592.586 435.329,592.252 436,591.5C 437.02,592.891 437.853,594.391 438.5,596C 442.941,597.374 447.441,598.541 452,599.5C 454.96,599.557 457.793,599.057 460.5,598C 460.36,596.931 460.36,595.764 460.5,594.5C 463.451,595.357 466.451,595.357 469.5,594.5 Z"/></g>
<g><path style="opacity:1" fill="#f19bb2" d="M 476.5,591.5 C 476.631,592.239 476.464,592.906 476,593.5C 472.822,594.67 470.322,596.67 468.5,599.5C 470.045,600.452 471.712,600.785 473.5,600.5C 473.5,601.833 473.5,603.167 473.5,604.5C 471.5,604.5 469.5,604.5 467.5,604.5C 467.5,603.167 467.5,601.833 467.5,600.5C 462.702,601.359 457.869,602.026 453,602.5C 450.705,602.453 448.871,601.787 447.5,600.5C 455.944,601.882 463.278,599.882 469.5,594.5C 471.954,593.773 474.287,592.773 476.5,591.5 Z"/></g>
<g><path style="opacity:1" fill="#ebaebe" d="M 255.5,599.5 C 253.257,600.812 250.59,601.478 247.5,601.5C 244.645,601.497 241.978,601.164 239.5,600.5C 244.895,600.733 250.228,600.4 255.5,599.5 Z"/></g>
<g><path style="opacity:1" fill="#f1a8bd" d="M 305.5,612.5 C 307.99,614.489 310.323,616.656 312.5,619C 315.637,619.601 318.637,620.601 321.5,622C 339.497,622.5 357.497,622.667 375.5,622.5C 356.329,623.828 336.996,623.828 317.5,622.5C 314.089,621.2 310.922,619.533 308,617.5C 306.635,617.844 305.468,618.511 304.5,619.5C 304.167,619 303.833,618.5 303.5,618C 304.885,616.403 305.551,614.57 305.5,612.5 Z"/></g>
</svg>
